<svg xmlns="http://www.w3.org/2000/svg" viewBox="0 0 1024 1024" preserveAspectRatio="xMidYMid meet"><g><path d="M0 0 C337.92 0 675.84 0 1024 0 C1024 337.92 1024 675.84 1024 1024 C686.08 1024 348.16 1024 0 1024 C0 686.08 0 348.16 0 0 Z " fill="#ECF9F9" transform="translate(0,0)"/></g><g><path d="M0 0 C0 337.92 0 675.84 0 1024 C-354.855 1024 -354.855 1024 -398.125 981.188 C-405.394 973.887 -412.011 966.378 -418 958 C-418.406 957.444 -418.812 956.888 -419.23 956.314 C-436.388 932.623 -448.702 904.516 -455 876 C-455.266 874.853 -455.266 874.853 -455.537 873.682 C-456.887 867.818 -458.003 861.933 -459 856 C-459.229 854.683 -459.229 854.683 -459.462 853.34 C-464.893 820.394 -464.416 783.961 -459.444 750.984 C-458.992 747.943 -458.604 744.899 -458.227 741.848 C-453.056 701.825 -443.329 661.577 -431.79 622.939 C-430.992 619.972 -430.454 617.037 -430 614 C-433.946 614.598 -437.672 615.449 -441.5 616.562 C-451.261 618.997 -460.511 619.569 -469.621 614.875 C-476.816 609.204 -481.026 601.896 -485.188 593.875 C-486.329 591.721 -487.471 589.567 -488.613 587.414 C-489.465 585.796 -489.465 585.796 -490.334 584.146 C-492.801 579.488 -495.338 574.87 -497.875 570.25 C-505 557.211 -512.016 544.115 -519 531 C-519.893 529.33 -519.893 529.33 -520.803 527.626 C-522.48 524.484 -524.148 521.336 -525.812 518.188 C-526.559 516.793 -526.559 516.793 -527.32 515.369 C-529.824 510.605 -531.685 506.214 -533 501 C-533.539 499.726 -533.539 499.726 -534.09 498.426 C-537.238 490.036 -535.041 481.995 -531.5 474.188 C-530.369 471.771 -529.2 469.384 -528 467 C-529.98 466.67 -531.96 466.34 -534 466 C-534.495 466.743 -534.99 467.485 -535.5 468.25 C-539.392 472.532 -543.115 474.576 -548.871 475.422 C-555.981 475.748 -561.492 474.671 -567 470 C-569.125 467.502 -570.645 464.981 -572 462 C-572.797 460.339 -572.797 460.339 -573.609 458.645 C-575.866 452.475 -575.444 445.982 -575.375 439.5 C-575.369 438.494 -575.369 438.494 -575.362 437.467 C-575.285 427.31 -574.598 417.861 -572 408 C-571.631 406.463 -571.264 404.925 -570.898 403.387 C-564.953 378.973 -554.728 355.752 -539 336 C-538.569 335.457 -538.137 334.915 -537.693 334.355 C-511.813 302.079 -472.805 276.265 -431 271 C-429.334 270.974 -427.666 270.968 -426 271 C-426.364 270.1 -426.727 269.2 -427.102 268.273 C-434.532 249.442 -438.956 229.793 -443 210 C-443.226 208.915 -443.226 208.915 -443.457 207.808 C-444.261 203.92 -444.991 200.025 -445.644 196.109 C-445.89 194.653 -446.147 193.199 -446.415 191.747 C-448.902 177.97 -449.318 164.273 -449.375 150.312 C-449.383 149.457 -449.391 148.601 -449.399 147.719 C-449.518 130.988 -447.67 114.624 -443.312 98.438 C-443.059 97.486 -442.806 96.534 -442.544 95.553 C-439.888 85.985 -436.275 76.952 -432 68 C-431.517 66.988 -431.517 66.988 -431.023 65.955 C-357.74 -84.597 -129.704 0 0 0 Z " fill="#90C7C2" transform="translate(1024,0)"/></g><g><path d="M0 0 C4.155 4.059 5.906 7.694 6.195 13.531 C5.683 23.811 -0.028 30.789 -7.305 37.656 C-12.909 42.382 -18.694 46.372 -25.18 49.781 C-26.472 50.462 -26.472 50.462 -27.79 51.156 C-40.832 57.742 -54.771 62.412 -68.517 67.297 C-71.126 68.226 -73.722 69.184 -76.313 70.162 C-82.251 72.399 -88.253 74.456 -94.25 76.527 C-95.708 77.031 -97.164 77.538 -98.62 78.046 C-100.745 78.788 -102.872 79.524 -105 80.258 C-105.644 80.484 -106.288 80.71 -106.951 80.943 C-110.715 82.232 -114.364 83.114 -118.305 83.656 C-118.305 84.316 -118.305 84.976 -118.305 85.656 C-108.642 85.204 -99.564 83.944 -90.117 81.844 C-88.937 81.596 -87.757 81.347 -86.541 81.092 C-80.024 79.674 -73.846 77.917 -67.617 75.533 C-64.987 74.536 -62.331 73.769 -59.617 73.031 C-36.554 65.975 -15.852 55.021 2.695 39.656 C4.033 38.548 4.033 38.548 5.398 37.418 C10.731 32.813 15.09 27.836 19.453 22.316 C28.917 11.088 28.917 11.088 35.086 10.383 C43.76 10.075 43.76 10.075 47.195 12.781 C52.81 19.238 53.155 24.597 52.992 32.902 C52.667 37.008 51.849 40.471 50.484 44.336 C49.664 46.747 49.158 49.091 48.695 51.594 C43.846 77.359 32.759 101.047 16.695 121.656 C16.084 122.441 16.084 122.441 15.46 123.242 C-10.031 155.491 -43.907 176.578 -80.305 194.656 C-81.096 195.055 -81.886 195.454 -82.701 195.864 C-83.39 196.211 -84.079 196.557 -84.789 196.914 C-85.634 197.34 -85.634 197.34 -86.495 197.774 C-99.754 204.047 -113.709 207.494 -128.055 210.156 C-128.832 210.303 -129.609 210.45 -130.41 210.601 C-148.231 213.94 -166.181 215.84 -184.198 217.761 C-192.85 218.694 -201.478 219.781 -210.1 220.963 C-211.627 221.172 -213.155 221.377 -214.683 221.58 C-230.906 223.309 -230.906 223.309 -244.305 231.656 C-245.677 233.806 -245.677 233.806 -246.305 235.656 C-247.625 235.656 -248.945 235.656 -250.305 235.656 C-250.281 236.733 -250.258 237.809 -250.234 238.918 C-249.83 265.383 -249.83 265.383 -257.305 273.656 C-261.579 277.518 -265.709 280.134 -270.938 282.516 C-271.672 282.855 -272.406 283.194 -273.162 283.544 C-281.97 287.531 -291.058 290.722 -300.18 293.906 C-301.888 294.51 -303.597 295.114 -305.305 295.719 C-308.45 296.832 -311.597 297.94 -314.746 299.044 C-318.048 300.204 -321.337 301.398 -324.623 302.604 C-330.454 304.73 -336.329 306.707 -342.219 308.66 C-343.314 309.025 -344.409 309.389 -345.537 309.765 C-349.001 310.918 -352.465 312.068 -355.93 313.219 C-358.26 313.994 -360.591 314.769 -362.922 315.545 C-367.206 316.97 -371.491 318.395 -375.776 319.819 C-382.933 322.197 -390.088 324.583 -397.241 326.977 C-400.788 328.164 -404.336 329.349 -407.884 330.534 C-409.73 331.151 -411.576 331.769 -413.421 332.387 C-423.272 335.686 -433.132 338.954 -443.031 342.105 C-443.837 342.364 -444.643 342.622 -445.473 342.889 C-451.067 344.656 -451.067 344.656 -453.305 344.656 C-453.305 259.186 -453.305 173.716 -453.305 85.656 C-446.852 83.896 -440.527 82.175 -434 80.824 C-433.251 80.667 -432.501 80.51 -431.729 80.348 C-429.297 79.841 -426.864 79.341 -424.43 78.844 C-423.16 78.583 -423.16 78.583 -421.864 78.318 C-388.112 71.429 -352.822 64.381 -318.305 63.656 C-317.371 63.63 -316.437 63.605 -315.475 63.578 C-312.356 63.499 -309.237 63.448 -306.117 63.406 C-305.136 63.385 -304.154 63.363 -303.143 63.341 C-296.995 63.313 -292.442 63.801 -287.695 68.121 C-282.305 75.081 -282.305 75.081 -282.305 79.656 C-279.83 79.161 -279.83 79.161 -277.305 78.656 C-276.315 80.141 -276.315 80.141 -275.305 81.656 C-275.428 80.872 -275.552 80.089 -275.68 79.281 C-274.697 69.782 -266.72 62.176 -260.305 55.656 C-259.554 54.893 -258.804 54.13 -258.031 53.344 C-234.852 31.166 -202.018 26.073 -171.655 20.777 C-153.302 17.566 -135.037 13.861 -116.805 10.031 C-115.795 9.821 -115.795 9.821 -114.764 9.606 C-106.336 7.846 -98.02 5.849 -89.725 3.553 C-85.05 2.327 -80.335 1.416 -75.59 0.508 C-71.297 -0.326 -67.034 -1.281 -62.766 -2.234 C-15.444 -12.755 -15.444 -12.755 0 0 Z " fill="#FDB599" transform="translate(453.3046875,595.34375)"/></g><g><path d="M0 0 C3.119 -0.079 6.238 -0.13 9.358 -0.172 C10.34 -0.193 11.321 -0.215 12.333 -0.237 C17.713 -0.262 21.546 0.005 26.17 3.078 C31.59 8.624 33.987 14.768 35.795 22.203 C38.109 31.341 40.991 40.308 43.821 49.295 C47.472 60.92 50.977 72.551 53.608 84.453 C53.814 85.376 54.02 86.299 54.232 87.25 C54.885 90.191 55.529 93.134 56.17 96.078 C56.389 97.073 56.607 98.067 56.832 99.092 C63.205 128.267 68.653 159.137 65.17 189.078 C65 190.869 65 190.869 64.827 192.695 C63.727 202.019 61.211 207.786 53.92 213.787 C50.996 215.944 47.835 217.436 44.538 218.938 C43.804 219.277 43.069 219.616 42.313 219.966 C33.505 223.953 24.417 227.144 15.295 230.328 C13.587 230.931 11.878 231.536 10.17 232.141 C7.025 233.254 3.878 234.362 0.729 235.466 C-2.573 236.626 -5.862 237.82 -9.148 239.026 C-14.979 241.151 -20.854 243.129 -26.744 245.082 C-28.386 245.629 -28.386 245.629 -30.062 246.187 C-33.526 247.339 -36.99 248.49 -40.455 249.641 C-42.785 250.416 -45.116 251.191 -47.447 251.967 C-51.731 253.392 -56.016 254.817 -60.301 256.24 C-67.458 258.619 -74.613 261.005 -81.765 263.399 C-85.313 264.586 -88.861 265.771 -92.409 266.956 C-94.255 267.573 -96.101 268.191 -97.946 268.809 C-107.797 272.108 -117.657 275.375 -127.556 278.527 C-128.362 278.786 -129.168 279.044 -129.998 279.311 C-135.592 281.078 -135.592 281.078 -137.83 281.078 C-137.83 195.608 -137.83 110.138 -137.83 22.078 C-131.377 20.318 -125.052 18.597 -118.525 17.246 C-117.401 17.01 -117.401 17.01 -116.254 16.77 C-113.822 16.263 -111.389 15.763 -108.955 15.266 C-108.108 15.092 -107.261 14.918 -106.389 14.74 C-71.537 7.626 -35.614 0.983 0 0 Z " fill="#FDB599" transform="translate(137.82958984375,658.921875)"/></g><g><path d="M0 0 C0.826 -0.002 1.652 -0.005 2.502 -0.007 C17.199 0.01 30.553 1.864 44.562 6.5 C45.869 6.917 45.869 6.917 47.203 7.342 C62.995 12.455 77.193 19.233 89.562 30.5 C90.244 31.101 90.926 31.701 91.629 32.32 C96.072 36.467 99.74 41.15 103.375 46 C104.078 46.925 104.078 46.925 104.795 47.87 C110.861 56.181 112.052 63.217 111.938 73.438 C111.949 74.471 111.961 75.504 111.973 76.568 C111.948 83.108 111.095 88.472 108.562 94.5 C107.851 96.207 107.851 96.207 107.125 97.949 C91.744 129.827 59.215 154.957 26.652 167.633 C24.639 168.307 22.603 168.912 20.562 169.5 C19.572 169.83 18.582 170.16 17.562 170.5 C13.072 171.202 9.188 171.478 5.199 169.078 C0.819 165.331 -2.03 162.296 -2.879 156.469 C-3.313 144.045 1.287 136.899 9.5 127.938 C10.344 127.047 11.189 126.156 12.059 125.238 C19.184 117.446 25.161 109.946 25.031 99.074 C24.336 95.257 22.406 92.952 19.875 90.094 C18.562 88.5 18.562 88.5 18.562 86.5 C18.04 86.242 17.518 85.984 16.98 85.719 C15.119 84.78 13.269 83.817 11.426 82.844 C10.242 82.229 9.059 81.614 7.875 81 C6.716 80.392 5.557 79.783 4.363 79.156 C-7.063 73.786 -23.056 73.373 -35 77.125 C-36.833 77.868 -38.647 78.659 -40.438 79.5 C-41.344 79.901 -42.25 80.302 -43.184 80.715 C-59.693 88.794 -70.895 104.1 -79.82 119.633 C-91.579 140.07 -91.579 140.07 -98.812 144.625 C-104.687 146.043 -110.026 146.856 -115.438 143.812 C-119.889 138.665 -119.954 133.051 -120.438 126.5 C-121.428 126.83 -122.418 127.16 -123.438 127.5 C-123.442 128.164 -123.446 128.828 -123.45 129.513 C-123.768 158.816 -123.768 158.816 -135.281 170.652 C-142.377 176.732 -149.364 177.053 -158.438 176.5 C-157.777 177.82 -157.118 179.14 -156.438 180.5 C-148.699 180.854 -142.655 180.387 -135.438 177.5 C-134.118 180.14 -132.798 182.78 -131.438 185.5 C-132.097 185.5 -132.757 185.5 -133.438 185.5 C-133.767 184.84 -134.097 184.18 -134.438 183.5 C-134.824 184.054 -135.211 184.609 -135.609 185.18 C-136.391 186.266 -136.391 186.266 -137.188 187.375 C-137.698 188.094 -138.208 188.814 -138.734 189.555 C-141.246 192.424 -143.267 193.332 -147.023 193.871 C-151.798 193.985 -154.672 193.945 -158.875 191.5 C-169.259 179.343 -167.412 161.971 -166.235 146.914 C-164.117 127.923 -157.844 109.562 -149.438 92.5 C-149.115 91.838 -148.793 91.175 -148.461 90.493 C-140.933 75.185 -130.828 62.129 -119.438 49.5 C-118.424 48.377 -118.424 48.377 -117.391 47.23 C-87.239 15.597 -42.869 0.078 0 0 Z " fill="#FDB599" transform="translate(621.4375,275.5)"/></g><g><path d="M0 0 C4.207 0.124 4.207 0.124 8.5 0.25 C9.367 0.266 10.234 0.282 11.127 0.298 C19.203 0.646 24.991 3.647 31 9 C32.694 11.523 32.694 11.523 34.199 14.375 C34.764 15.433 35.328 16.49 35.909 17.58 C36.496 18.708 37.083 19.837 37.688 21 C38.304 22.165 38.92 23.331 39.556 24.531 C43.58 32.155 47.49 39.837 51.301 47.57 C53.968 52.969 56.717 58.316 59.539 63.637 C60.419 65.305 61.299 66.973 62.178 68.642 C62.637 69.513 63.096 70.384 63.569 71.282 C67.611 78.959 71.632 86.647 75.581 94.373 C76.618 96.39 77.666 98.402 78.723 100.41 C90.2 122.239 90.2 122.239 88 133 C84.749 143.325 74.001 149.201 65 154 C22.675 175.747 22.675 175.747 4.777 171.469 C-2.995 168.326 -6.512 163.031 -10.375 156 C-10.886 155.088 -11.397 154.176 -11.924 153.236 C-17.198 143.769 -22.296 134.206 -27.388 124.64 C-30.898 118.046 -34.463 111.484 -38.062 104.938 C-42.669 96.534 -47.143 88.065 -51.562 79.562 C-52.159 78.418 -52.755 77.274 -53.369 76.095 C-56.112 70.797 -58.758 65.53 -61 60 C-61.588 58.608 -61.588 58.608 -62.188 57.188 C-64.195 49.312 -63.369 43.38 -59.445 36.273 C-57.521 33.247 -55.429 30.637 -53 28 C-49.031 29.323 -48.701 30.911 -46.812 34.562 C-46.283 35.574 -45.753 36.586 -45.207 37.629 C-44.809 38.411 -44.41 39.194 -44 40 C-38.092 39.485 -33.519 37.007 -28.332 34.344 C-27.415 33.881 -26.499 33.419 -25.554 32.943 C-22.637 31.469 -19.724 29.985 -16.812 28.5 C-13.889 27.017 -10.964 25.536 -8.038 24.057 C-6.221 23.138 -4.404 22.215 -2.59 21.289 C-1.358 20.664 -1.358 20.664 -0.101 20.025 C0.981 19.474 0.981 19.474 2.085 18.911 C4 18 4 18 7 17 C4.69 11.39 2.38 5.78 0 0 Z " fill="#FEFEFE" transform="translate(557,440)"/></g><g><path d="M0 0 C8.722 6.475 14.353 16.223 16.027 26.934 C19.01 55.324 5.323 81.254 -11.742 103.035 C-17.389 109.893 -23.314 116.524 -29.68 122.723 C-30.234 123.287 -30.788 123.852 -31.359 124.434 C-33.113 126.218 -34.892 127.972 -36.68 129.723 C-37.505 130.548 -38.33 131.373 -39.18 132.223 C-42.723 134.349 -44.669 133.54 -48.68 132.723 C-51.37 131.868 -53.956 130.824 -56.555 129.723 C-57.289 129.414 -58.023 129.106 -58.779 128.788 C-90.819 115.035 -122.898 92.971 -136.586 59.816 C-139.948 50.306 -139.776 40.648 -135.938 31.32 C-130.962 21.044 -123.584 12.771 -112.68 8.723 C-102.17 5.925 -89.066 6.297 -79.328 11.098 C-72.743 15.138 -66.956 20.095 -61.68 25.723 C-61.618 24.753 -61.556 23.784 -61.492 22.785 C-60.286 14.586 -54.647 7.215 -48.68 1.723 C-33.231 -9.602 -16.228 -10.352 0 0 Z " fill="#FEFEFE" transform="translate(912.6796875,854.27734375)"/></g><g><path d="M0 0 C5.866 2.942 10.912 6.301 15.994 10.438 C17.567 11.69 19.141 12.94 20.716 14.188 C21.522 14.829 22.328 15.47 23.158 16.13 C27.196 19.303 31.313 22.369 35.431 25.438 C37.094 26.684 38.757 27.93 40.419 29.177 C43.103 31.186 45.79 33.19 48.483 35.186 C51.368 37.324 54.244 39.474 57.119 41.626 C58.009 42.28 58.9 42.935 59.817 43.61 C65.414 47.818 69.354 51.27 71.619 58.063 C72.643 66.43 68.199 73.185 63.314 79.661 C62.133 81.156 60.943 82.645 59.744 84.126 C58.864 85.233 58.864 85.233 57.966 86.362 C56.787 87.846 55.605 89.329 54.42 90.81 C52.541 93.16 50.664 95.511 48.798 97.872 C48.236 98.58 47.674 99.288 47.095 100.018 C45.687 101.969 44.675 103.91 43.619 106.063 C42.095 107.493 42.095 107.493 40.244 108.938 C36.342 112.216 33.219 115.836 29.994 119.751 C8.363 145.53 -22.539 159.965 -54.381 169.063 C-56.217 169.723 -58.05 170.39 -59.881 171.063 C-74.02 175.789 -89.434 179.247 -104.381 178.063 C-104.381 177.403 -104.381 176.743 -104.381 176.063 C-99.883 174.497 -95.383 172.935 -90.881 171.376 C-90.217 171.145 -89.552 170.915 -88.867 170.678 C-80.304 167.714 -71.735 164.828 -63.034 162.294 C-58.788 160.864 -54.715 159.135 -50.591 157.39 C-47.479 156.104 -44.349 154.906 -41.19 153.739 C-6.954 141.545 -6.954 141.545 17.119 115.626 C19.342 109.866 19.983 104.416 17.619 98.606 C14.014 92.432 9.276 89.426 2.619 87.063 C-16.183 82.165 -39.058 87.962 -57.198 93.2 C-60.182 94.009 -63.075 94.552 -66.131 95.001 C-72.493 95.947 -78.615 97.643 -84.796 99.387 C-85.576 99.603 -86.356 99.818 -87.159 100.04 C-88.199 100.335 -88.199 100.335 -89.26 100.636 C-91.676 101.122 -93.924 101.134 -96.381 101.063 C-96.015 100.576 -95.649 100.088 -95.271 99.586 C-92.678 96.132 -90.091 92.675 -87.522 89.204 C-83.007 83.118 -78.482 77.088 -73.569 71.313 C-67.048 63.616 -61.13 55.463 -55.109 47.374 C-52.086 43.331 -49 39.338 -45.913 35.344 C-43.415 32.114 -40.941 28.866 -38.467 25.618 C-36.789 23.418 -35.103 21.225 -33.417 19.032 C-31.622 16.697 -29.862 14.35 -28.127 11.969 C-21.258 2.754 -11.882 -4.674 0 0 Z " fill="#90C7C2" transform="translate(439.38134765625,502.936767578125)"/></g><g><path d="M0 0 C7.003 4.094 11.537 12.442 14 20 C16.38 39.655 7.965 58.011 -3.938 73.25 C-5.276 74.847 -6.63 76.43 -8 78 C-8.71 78.82 -9.421 79.64 -10.152 80.484 C-19.273 90.807 -28.795 99.997 -40 108 C-40.829 108.61 -41.658 109.219 -42.512 109.848 C-45.886 111.41 -47.447 111.056 -51 110 C-53.66 108.803 -56.168 107.404 -58.688 105.938 C-59.393 105.532 -60.099 105.126 -60.825 104.708 C-82.643 91.969 -104.044 73.723 -114 50 C-114.339 49.193 -114.678 48.386 -115.027 47.555 C-118.076 39.041 -118.864 28.445 -115.312 20 C-114.577 18.647 -113.808 17.311 -113 16 C-112.673 15.389 -112.345 14.778 -112.008 14.148 C-107.825 7.217 -99.595 2.406 -92 0 C-80.043 -1.187 -69.409 0.531 -59.859 8.207 C-56.479 11.466 -53.715 15.181 -51 19 C-50.732 18.371 -50.464 17.742 -50.188 17.094 C-45.5 6.855 -38.764 -0.051 -28.172 -4.074 C-18.109 -7.011 -9.021 -4.898 0 0 Z " fill="#FEFEFE" transform="translate(853,518)"/></g><g><path d="M0 0 C4.155 4.059 5.906 7.694 6.195 13.531 C5.683 23.811 -0.028 30.789 -7.305 37.656 C-12.909 42.382 -18.694 46.372 -25.18 49.781 C-26.472 50.462 -26.472 50.462 -27.79 51.156 C-40.832 57.742 -54.771 62.412 -68.517 67.297 C-71.126 68.226 -73.722 69.184 -76.313 70.162 C-82.251 72.399 -88.253 74.456 -94.25 76.527 C-95.708 77.031 -97.164 77.538 -98.62 78.046 C-100.745 78.788 -102.872 79.524 -105 80.258 C-105.644 80.484 -106.288 80.71 -106.951 80.943 C-110.715 82.232 -114.364 83.114 -118.305 83.656 C-118.305 84.316 -118.305 84.976 -118.305 85.656 C-108.642 85.204 -99.564 83.944 -90.117 81.844 C-88.937 81.596 -87.757 81.347 -86.541 81.092 C-80.024 79.674 -73.846 77.917 -67.617 75.533 C-64.987 74.536 -62.331 73.769 -59.617 73.031 C-36.554 65.975 -15.852 55.021 2.695 39.656 C4.033 38.548 4.033 38.548 5.398 37.418 C10.731 32.813 15.09 27.836 19.453 22.316 C28.917 11.088 28.917 11.088 35.086 10.383 C43.76 10.075 43.76 10.075 47.195 12.781 C52.81 19.238 53.155 24.597 52.992 32.902 C52.667 37.008 51.849 40.471 50.484 44.336 C49.664 46.747 49.158 49.091 48.695 51.594 C43.846 77.359 32.759 101.047 16.695 121.656 C16.084 122.441 16.084 122.441 15.46 123.242 C-10.031 155.491 -43.907 176.578 -80.305 194.656 C-81.096 195.055 -81.886 195.454 -82.701 195.864 C-83.39 196.211 -84.079 196.557 -84.789 196.914 C-85.352 197.198 -85.915 197.482 -86.495 197.774 C-99.754 204.047 -113.709 207.494 -128.055 210.156 C-128.832 210.303 -129.609 210.45 -130.41 210.601 C-148.231 213.94 -166.181 215.84 -184.198 217.761 C-192.85 218.694 -201.478 219.781 -210.1 220.963 C-211.627 221.172 -213.155 221.377 -214.683 221.58 C-230.906 223.309 -230.906 223.309 -244.305 231.656 C-245.677 233.806 -245.677 233.806 -246.305 235.656 C-247.625 235.326 -248.945 234.996 -250.305 234.656 C-250.339 233.874 -250.373 233.092 -250.409 232.287 C-251.992 198.534 -257.066 164.693 -267.164 132.371 C-268.28 128.737 -269.244 125.091 -270.18 121.406 C-272.07 114.177 -274.413 107.128 -276.843 100.063 C-281.694 85.882 -281.694 85.882 -281.305 79.656 C-279.325 79.161 -279.325 79.161 -277.305 78.656 C-274.549 83.758 -272.723 88.979 -270.93 94.469 C-270.624 95.395 -270.319 96.321 -270.005 97.276 C-265.879 109.891 -262.187 122.618 -258.875 135.471 C-258.242 137.896 -257.587 140.315 -256.934 142.734 C-250.075 168.609 -245.902 195.033 -243.305 221.656 C-242.418 221.223 -241.531 220.79 -240.617 220.344 C-229.386 215.594 -216.801 214.631 -204.805 213.156 C-203.077 212.939 -201.349 212.721 -199.621 212.502 C-188.051 211.055 -176.471 209.82 -164.867 208.682 C-157.121 207.902 -149.508 206.82 -141.867 205.336 C-138.519 204.697 -135.179 204.19 -131.805 203.719 C-85.558 196.604 -38.714 170.066 -5.805 137.156 C-4.261 135.612 -2.692 134.092 -1.086 132.613 C16.191 116.372 28.822 94.252 35.695 71.656 C34.847 72.6 33.999 73.543 33.125 74.516 C21.205 87.626 8.405 98.786 -6.305 108.656 C-6.975 109.109 -7.645 109.562 -8.336 110.029 C-26.622 122.282 -46.467 133.403 -67.305 140.656 C-68.363 141.04 -69.421 141.425 -70.512 141.82 C-73.579 142.738 -75.269 142.549 -78.305 141.656 C-77.299 138.962 -76.61 137.837 -74.1 136.351 C-72.736 135.787 -72.736 135.787 -71.344 135.211 C-69.816 134.563 -69.816 134.563 -68.257 133.903 C-67.159 133.45 -66.061 132.998 -64.93 132.531 C-62.635 131.552 -60.342 130.569 -58.051 129.582 C-56.907 129.09 -55.764 128.599 -54.585 128.092 C-30.268 117.448 -6.914 103.842 12.543 85.648 C14.512 83.826 16.548 82.155 18.633 80.469 C30.834 69.823 43.195 52.824 45.695 36.656 C45.811 34.304 45.87 31.949 45.883 29.594 C45.897 28.386 45.911 27.178 45.926 25.934 C45.709 22.851 45.419 21.178 43.695 18.656 C40.338 16.978 37.283 16.83 33.695 17.656 C27.222 21.751 22.704 28.034 17.984 33.938 C14.277 38.341 10.141 42.014 5.695 45.656 C5.14 46.111 4.585 46.566 4.013 47.035 C-27.59 72.606 -74.08 91.648 -114.992 91.906 C-115.82 91.927 -116.649 91.947 -117.502 91.969 C-122.139 91.998 -125.739 91.996 -129.305 88.656 C-129.425 86.044 -129.425 86.044 -129.305 83.656 C-117.796 77.368 -106.06 72.911 -93.609 68.844 C-88.393 67.136 -83.193 65.382 -77.992 63.629 C-76.974 63.286 -75.955 62.943 -74.905 62.59 C-33.425 49.845 -33.425 49.845 -2.172 21.758 C-0.55 17.827 -0.791 13.822 -1.305 9.656 C-3.526 4.659 -6.329 2.76 -11.065 0.499 C-14.8 -0.906 -18.282 -1.022 -22.242 -0.969 C-23.131 -0.96 -24.02 -0.952 -24.937 -0.943 C-46.062 -0.277 -67.209 5.457 -87.632 10.546 C-111.936 16.597 -136.453 21.652 -161.103 26.075 C-169.872 27.667 -178.621 29.369 -187.367 31.083 C-189.241 31.449 -191.116 31.81 -192.992 32.167 C-221.525 37.594 -248.142 47.353 -265.461 71.941 C-266.069 72.837 -266.678 73.733 -267.305 74.656 C-268.323 76.075 -269.343 77.492 -270.367 78.906 C-271.007 79.814 -271.646 80.721 -272.305 81.656 C-273.295 80.996 -274.285 80.336 -275.305 79.656 C-273.704 66.567 -262.407 56.122 -252.505 48.22 C-227.573 29.462 -196.219 25.093 -166.292 19.763 C-153.473 17.471 -140.709 14.965 -127.961 12.302 C-124.846 11.652 -121.729 11.009 -118.611 10.367 C-108.809 8.334 -99.08 6.211 -89.441 3.496 C-84.867 2.271 -80.239 1.398 -75.59 0.508 C-71.297 -0.326 -67.034 -1.281 -62.766 -2.234 C-15.444 -12.755 -15.444 -12.755 0 0 Z " fill="#67252E" transform="translate(453.3046875,595.34375)"/></g><g><path d="M0 0 C3.659 1.312 6.454 2.894 9.52 5.273 C10.37 5.928 11.22 6.582 12.096 7.257 C13.441 8.305 13.441 8.305 14.812 9.375 C16.694 10.827 18.575 12.279 20.457 13.73 C21.856 14.812 21.856 14.812 23.284 15.916 C27.789 19.373 32.354 22.751 36.937 26.105 C40.612 28.829 43.845 31.684 47 35 C35.849 50.825 35.849 50.825 30.649 57.289 C28.595 59.846 26.831 62.307 25.25 65.188 C23.095 68.755 21.508 70.7 18 73 C12.093 74.417 5.997 74.404 -0.047 74.617 C-7.246 74.901 -14.134 76.081 -21.188 77.5 C-22.279 77.714 -23.371 77.929 -24.496 78.15 C-29.466 79.159 -34.203 80.336 -39 82 C-40.805 82.355 -42.618 82.667 -44.438 82.938 C-51.672 84.075 -58.827 85.53 -66 87 C-61.32 79.535 -55.932 72.702 -50.451 65.822 C-48.147 62.929 -45.852 60.029 -43.562 57.125 C-43.114 56.556 -42.665 55.987 -42.203 55.401 C-38.14 50.223 -34.202 44.956 -30.27 39.68 C-27.572 36.069 -24.838 32.503 -22 29 C-16.981 22.805 -12.254 16.391 -7.491 9.999 C-5.001 6.661 -2.5 3.331 0 0 Z " fill="#FEFEFE" transform="translate(418,515)"/></g><g><path d="M0 0 C4.207 0.124 4.207 0.124 8.5 0.25 C9.367 0.266 10.234 0.282 11.127 0.298 C16.92 0.547 21.083 1.954 26 5 C26.859 5.514 27.717 6.029 28.602 6.559 C32.464 10.49 34.794 15.228 37.375 20.062 C38.212 21.572 38.212 21.572 39.066 23.111 C42.089 28.698 42.089 28.698 43 31 C42 34 42 34 40.477 35.072 C39.487 35.566 39.487 35.566 38.476 36.069 C37.721 36.452 36.965 36.835 36.186 37.229 C35.351 37.639 34.517 38.049 33.656 38.471 C32.782 38.911 31.907 39.35 31.006 39.803 C28.104 41.257 25.195 42.697 22.285 44.137 C20.273 45.141 18.262 46.145 16.25 47.151 C12.031 49.257 7.808 51.357 3.582 53.452 C-1.845 56.143 -7.265 58.846 -12.684 61.554 C-16.839 63.629 -20.995 65.699 -25.153 67.769 C-27.153 68.764 -29.152 69.761 -31.151 70.758 C-33.941 72.148 -36.734 73.533 -39.527 74.917 C-40.36 75.333 -41.193 75.749 -42.051 76.178 C-42.809 76.552 -43.568 76.926 -44.349 77.312 C-45.01 77.64 -45.671 77.968 -46.351 78.306 C-48 79 -48 79 -50 79 C-50.495 79.99 -50.495 79.99 -51 81 C-65.186 55.796 -65.186 55.796 -63 44 C-60.765 37.827 -57.423 32.803 -53 28 C-49.031 29.323 -48.701 30.911 -46.812 34.562 C-46.283 35.574 -45.753 36.586 -45.207 37.629 C-44.809 38.411 -44.41 39.194 -44 40 C-38.092 39.485 -33.519 37.007 -28.332 34.344 C-27.415 33.881 -26.499 33.419 -25.554 32.943 C-22.637 31.469 -19.724 29.985 -16.812 28.5 C-13.889 27.017 -10.964 25.536 -8.038 24.057 C-6.221 23.138 -4.404 22.215 -2.59 21.289 C-1.358 20.664 -1.358 20.664 -0.101 20.025 C0.981 19.474 0.981 19.474 2.085 18.911 C4 18 4 18 7 17 C4.69 11.39 2.38 5.78 0 0 Z " fill="#90C7C2" transform="translate(557,440)"/></g><g><path d="M0 0 C2.909 1.907 5.107 3.856 7.336 6.531 C8.14 7.392 8.14 7.392 8.961 8.27 C12.044 11.83 13.769 14.638 14.023 19.406 C13.327 28.924 8.017 35.21 1.647 41.841 C-7.474 51.427 -14.191 60.651 -13.98 74.172 C-13.586 78.356 -12.596 80.52 -9.664 83.531 C-8.963 84.315 -8.262 85.099 -7.539 85.906 C-2.719 88.631 2.171 88.225 7.492 87.059 C9.832 86.33 12.067 85.458 14.336 84.531 C15.375 84.129 16.414 83.727 17.484 83.312 C36.929 75.447 54.242 63.007 69.336 48.531 C70.562 47.383 70.562 47.383 71.812 46.211 C77.143 41.078 81.715 35.707 85.938 29.646 C87.109 28.023 87.109 28.023 89.336 25.531 C90.656 25.531 91.976 25.531 93.336 25.531 C91.938 30.894 89.469 34.34 86.023 38.531 C85.55 39.122 85.076 39.712 84.588 40.32 C83.182 42.067 81.761 43.8 80.336 45.531 C79.891 46.08 79.447 46.628 78.989 47.193 C76.757 49.922 74.525 52.439 71.836 54.719 C70.803 55.595 70.803 55.595 69.75 56.488 C68.953 57.162 68.157 57.837 67.336 58.531 C66.374 59.381 65.413 60.23 64.422 61.105 C56.847 67.752 48.971 73.351 40.336 78.531 C39.768 78.878 39.199 79.224 38.614 79.582 C31.876 83.674 25.034 87.272 17.836 90.469 C17.177 90.763 16.519 91.058 15.84 91.362 C8.794 94.392 -0.116 96.341 -7.652 93.883 C-12.978 91.12 -17.116 86.612 -19.797 81.277 C-22.473 72.801 -21.788 63.575 -17.789 55.719 C-14.484 50.311 -10.538 45.738 -6.168 41.168 C-3.71 38.58 -1.417 35.924 0.836 33.156 C1.78 32 1.78 32 2.742 30.82 C6.064 26.049 7.235 21.315 6.336 15.531 C2.735 8.186 -3.423 4.824 -10.664 1.719 C-23.509 -2.609 -39.541 -2.807 -51.941 2.977 C-56.435 5.542 -60.606 8.322 -64.664 11.531 C-65.288 12.003 -65.912 12.475 -66.555 12.961 C-75.693 20.247 -81.964 30.48 -87.664 40.531 C-87.664 40.861 -87.664 41.191 -87.664 41.531 C-86.901 41.449 -86.138 41.366 -85.352 41.281 C-82.664 41.531 -82.664 41.531 -81.25 43.047 C-79.098 46.418 -77.355 49.94 -75.602 53.531 C-75.075 54.599 -75.075 54.599 -74.537 55.688 C-73.866 57.048 -73.197 58.41 -72.532 59.774 C-71.847 61.16 -71.127 62.529 -70.395 63.891 C-69.419 66.082 -69.875 67.323 -70.664 69.531 C-71.984 69.531 -73.304 69.531 -74.664 69.531 C-76.313 66.095 -77.958 62.657 -79.602 59.219 C-80.07 58.242 -80.539 57.266 -81.021 56.26 C-81.469 55.322 -81.917 54.384 -82.379 53.418 C-82.999 52.122 -82.999 52.122 -83.633 50.8 C-84.664 48.531 -84.664 48.531 -85.664 45.531 C-87.314 45.861 -88.964 46.191 -90.664 46.531 C-89.252 53.256 -86.79 58.36 -83.322 64.238 C-80.611 69.031 -80.611 69.031 -80.926 71.984 C-81.169 72.495 -81.413 73.005 -81.664 73.531 C-84.664 72.531 -84.664 72.531 -86.418 69.547 C-87.031 68.297 -87.634 67.041 -88.227 65.781 C-88.53 65.16 -88.834 64.539 -89.146 63.898 C-90.795 60.494 -92.309 57.063 -93.664 53.531 C-94.984 55.181 -96.304 56.831 -97.664 58.531 C-97.075 59.568 -96.486 60.604 -95.879 61.672 C-95.119 63.041 -94.36 64.411 -93.602 65.781 C-93.212 66.463 -92.822 67.145 -92.42 67.848 C-92.056 68.512 -91.692 69.175 -91.316 69.859 C-90.806 70.771 -90.806 70.771 -90.285 71.7 C-89.487 74.055 -89.685 75.262 -90.664 77.531 C-92.149 78.026 -92.149 78.026 -93.664 78.531 C-95.974 73.581 -98.284 68.631 -100.664 63.531 C-102.644 64.521 -102.644 64.521 -104.664 65.531 C-103.948 70.245 -102.1 73.439 -99.625 77.445 C-98.664 79.531 -98.664 79.531 -99.664 82.531 C-100.654 82.531 -101.644 82.531 -102.664 82.531 C-103.669 80.575 -104.668 78.616 -105.664 76.656 C-106.221 75.566 -106.778 74.475 -107.352 73.352 C-108.664 70.531 -108.664 70.531 -108.664 68.531 C-111.139 69.026 -111.139 69.026 -113.664 69.531 C-113.043 71.137 -112.417 72.741 -111.789 74.344 C-111.441 75.237 -111.093 76.13 -110.734 77.051 C-109.676 79.708 -109.676 79.708 -107.664 82.531 C-107.539 85.219 -107.539 85.219 -107.664 87.531 C-108.984 87.531 -110.304 87.531 -111.664 87.531 C-113.005 85.098 -114.337 82.66 -115.664 80.219 C-116.046 79.528 -116.427 78.838 -116.82 78.127 C-119.664 72.871 -119.664 72.871 -119.664 69.531 C-122.634 69.036 -122.634 69.036 -125.664 68.531 C-125.391 69.086 -125.119 69.64 -124.838 70.212 C-123.605 72.731 -122.385 75.256 -121.164 77.781 C-120.735 78.654 -120.306 79.527 -119.863 80.426 C-119.457 81.27 -119.051 82.114 -118.633 82.984 C-118.256 83.759 -117.879 84.534 -117.49 85.333 C-116.664 87.531 -116.664 87.531 -116.664 91.531 C-119.15 91.166 -120.337 90.943 -121.928 88.937 C-122.278 88.261 -122.628 87.586 -122.988 86.891 C-123.377 86.149 -123.766 85.408 -124.166 84.645 C-124.557 83.865 -124.948 83.085 -125.352 82.281 C-125.754 81.517 -126.157 80.752 -126.572 79.965 C-128.517 76.192 -130.16 72.804 -130.664 68.531 C-132.309 73.466 -132.295 77.166 -130.098 81.918 C-129.439 83.007 -128.78 84.096 -128.102 85.219 C-124.603 91.022 -124.603 91.022 -124.949 93.926 C-125.185 94.456 -125.421 94.985 -125.664 95.531 C-126.654 95.531 -127.644 95.531 -128.664 95.531 C-129.672 93.765 -130.67 91.993 -131.664 90.219 C-132.221 89.233 -132.778 88.246 -133.352 87.23 C-134.664 84.531 -134.664 84.531 -134.664 81.531 C-135.324 81.531 -135.984 81.531 -136.664 81.531 C-137.952 86.204 -137.952 86.204 -136.617 90.707 C-135.708 92.104 -134.768 93.48 -133.793 94.832 C-132.664 96.531 -132.664 96.531 -132.664 98.531 C-133.654 98.861 -134.644 99.191 -135.664 99.531 C-139.664 92.906 -139.664 92.906 -139.664 89.531 C-141.149 90.521 -141.149 90.521 -142.664 91.531 C-142.52 92.191 -142.375 92.851 -142.227 93.531 C-141.541 97.187 -141.102 100.837 -140.664 104.531 C-141.654 104.531 -142.644 104.531 -143.664 104.531 C-147.664 97.781 -147.664 97.781 -147.664 95.531 C-148.175 95.82 -148.685 96.109 -149.211 96.406 C-155.597 99.667 -161.531 100.488 -168.664 99.531 C-169.324 98.871 -169.984 98.211 -170.664 97.531 C-170.664 96.541 -170.664 95.551 -170.664 94.531 C-169.914 94.517 -169.164 94.503 -168.391 94.488 C-159.876 94.092 -152.897 92.65 -146.629 86.551 C-139.127 77.551 -137.068 68.419 -136.914 56.906 C-136.87 55.257 -136.87 55.257 -136.824 53.574 C-136.754 50.893 -136.701 48.213 -136.664 45.531 C-135.344 44.871 -134.024 44.211 -132.664 43.531 C-130.849 45.346 -131.189 48.326 -130.914 50.781 C-130.289 54.852 -129.81 57.289 -127.664 60.844 C-122.634 63.673 -118.084 63.266 -112.555 62.078 C-102.517 58.304 -97.098 44.618 -92.102 35.844 C-88.139 28.888 -84.11 22.448 -78.664 16.531 C-77.822 15.61 -76.981 14.688 -76.113 13.738 C-56.113 -7.519 -26.06 -15.233 0 0 Z " fill="#67252E" transform="translate(633.6640625,357.46875)"/></g><g><path d="M0 0 C2.58 0.016 5.158 0 7.738 -0.019 C18.38 -0.032 28.198 1.03 38.582 3.391 C39.629 3.614 40.675 3.837 41.753 4.066 C60.978 8.251 79.708 16.459 94.582 29.391 C95.18 29.846 95.778 30.301 96.395 30.77 C100.53 33.977 103.766 37.823 107.02 41.891 C107.694 42.71 107.694 42.71 108.383 43.546 C111.259 47.265 112.096 49.717 111.582 54.391 C107.668 52.863 105.816 50.482 103.27 47.204 C90.378 31.099 74.146 21.675 54.77 15.141 C53.835 14.824 52.9 14.507 51.937 14.18 C36.483 9.181 21.935 6.698 5.707 6.954 C4.46 6.966 4.46 6.966 3.187 6.978 C-25.164 7.272 -51.538 13.177 -76.418 27.391 C-77.056 27.747 -77.694 28.102 -78.352 28.469 C-87.076 33.351 -94.908 38.749 -102.418 45.391 C-103.382 46.223 -104.346 47.054 -105.34 47.911 C-133.18 72.307 -151.194 106.306 -158.418 142.391 C-158.644 143.404 -158.869 144.418 -159.102 145.461 C-160.56 153.005 -160.622 160.545 -160.668 168.204 C-160.677 169.278 -160.687 170.352 -160.696 171.459 C-160.665 179.104 -160.296 186.178 -155.98 192.766 C-155.569 193.413 -155.158 194.06 -154.734 194.727 C-152.76 197.223 -151.053 198.315 -147.895 198.692 C-140.609 198.856 -140.609 198.856 -134.418 195.391 C-132.265 192.92 -130.795 190.357 -129.418 187.391 C-127.071 191.059 -126.817 194.11 -127.418 198.391 C-131.433 202.593 -135.45 204.997 -141.215 205.762 C-148.423 205.924 -153.802 205.154 -159.418 200.391 C-161.543 197.893 -163.063 195.373 -164.418 192.391 C-165.215 190.73 -165.215 190.73 -166.027 189.036 C-168.284 182.866 -167.862 176.373 -167.793 169.891 C-167.789 169.22 -167.784 168.549 -167.78 167.858 C-167.703 157.701 -167.016 148.252 -164.418 138.391 C-164.049 136.854 -163.682 135.316 -163.316 133.778 C-157.371 109.364 -147.146 86.143 -131.418 66.391 C-130.771 65.577 -130.771 65.577 -130.111 64.747 C-98.702 25.574 -50.79 -0.376 0 0 Z " fill="#67252E" transform="translate(616.41796875,269.60888671875)"/></g><g><path d="M0 0 C1.32 0 2.64 0 4 0 C4.451 0.918 4.451 0.918 4.911 1.854 C10.912 14.035 17.02 26.127 23.638 37.987 C27.581 45.089 31.202 52.34 34.812 59.615 C36.566 63.137 38.337 66.65 40.107 70.164 C42.057 74.037 44.003 77.911 45.948 81.786 C46.952 83.784 47.958 85.782 48.965 87.778 C50.437 90.699 51.905 93.623 53.371 96.547 C53.822 97.438 54.273 98.33 54.738 99.249 C55.152 100.078 55.567 100.907 55.994 101.761 C56.358 102.485 56.723 103.21 57.098 103.956 C59.961 110.444 60.108 118.462 57.938 125.188 C53.241 135.663 43.437 141.282 34 147 C33.423 147.351 32.846 147.701 32.251 148.062 C23.932 153.012 15.142 156.738 6.188 160.375 C5.138 160.804 4.088 161.234 3.006 161.676 C-8.16 166.096 -20.942 169.65 -32.871 166.16 C-43.129 161.523 -48.181 152.525 -53.188 142.875 C-54.329 140.721 -55.471 138.567 -56.613 136.414 C-57.181 135.335 -57.749 134.257 -58.334 133.146 C-60.801 128.488 -63.338 123.87 -65.875 119.25 C-73 106.211 -80.018 93.116 -87 80 C-87.606 78.865 -88.211 77.731 -88.835 76.562 C-90.543 73.357 -92.242 70.148 -93.938 66.938 C-94.452 65.974 -94.966 65.011 -95.496 64.018 C-95.96 63.134 -96.424 62.25 -96.902 61.34 C-97.31 60.57 -97.717 59.801 -98.136 59.008 C-99 57 -99 57 -99 54 C-96.525 53.505 -96.525 53.505 -94 53 C-91.748 57.186 -89.498 61.374 -87.25 65.562 C-86.742 66.509 -86.742 66.509 -86.223 67.475 C-81.631 76.036 -77.094 84.623 -72.625 93.25 C-69.062 100.12 -65.423 106.926 -61.577 113.642 C-59.172 117.861 -56.857 122.121 -54.578 126.41 C-53.968 127.557 -53.357 128.704 -52.728 129.885 C-51.525 132.151 -50.327 134.419 -49.135 136.691 C-42.275 150.815 -42.275 150.815 -30.078 159.676 C-27.286 160.111 -24.576 160.171 -21.75 160.188 C-20.672 160.202 -19.595 160.216 -18.484 160.23 C3.54 158.774 33.961 144.522 48.625 128.188 C53.031 122.274 52.856 116.138 52 109 C50.275 103.867 47.863 99.176 45.352 94.398 C44.656 93.029 43.962 91.658 43.271 90.286 C41.453 86.694 39.605 83.119 37.749 79.547 C35.898 75.97 34.077 72.377 32.254 68.785 C23.887 52.337 15.439 35.917 6.582 19.727 C6.113 18.863 5.645 17.999 5.162 17.109 C4.23 15.393 3.286 13.682 2.334 11.977 C1.88 11.131 1.425 10.285 0.957 9.414 C0.555 8.681 0.152 7.949 -0.262 7.194 C-1.183 4.455 -0.768 2.746 0 0 Z " fill="#67252E" transform="translate(592,451)"/></g><g><path d="M0 0 C0.33 0 0.66 0 1 0 C1.368 9.195 1.467 15.324 -4.875 22.375 C-22.245 38.713 -53.024 52.436 -76.867 52.219 C-83.14 51.781 -86.664 49.513 -91 45 C-90.085 44.614 -89.17 44.229 -88.227 43.831 C-76.687 38.906 -65.504 33.353 -54.312 27.688 C-50.768 25.897 -47.223 24.109 -43.676 22.324 C-42.803 21.885 -41.93 21.445 -41.03 20.992 C-33.798 17.365 -26.505 13.873 -19.174 10.451 C-14.282 8.153 -9.572 5.686 -4.92 2.93 C-3 2 -3 2 0 2 C0 1.34 0 0.68 0 0 Z " fill="#90C7C2" transform="translate(644,560)"/></g><g><path d="M0 0 C4.106 0.072 6.58 0.443 9.75 3.25 C13.122 8.264 14.44 12.08 14.312 18.188 C14.305 18.918 14.298 19.648 14.29 20.4 C13.932 30.655 10.481 40.218 5.75 49.25 C-8.651 48.142 -21.142 42.463 -31.25 32.25 C-33.943 28.21 -33.8 24.993 -33.25 20.25 C-31.626 16.615 -30.589 15.476 -27.25 13.25 C-21.559 12.415 -17.193 13.208 -12.25 16.25 C-12.164 15.586 -12.077 14.922 -11.988 14.238 C-11.054 8.365 -10.099 5.105 -5.25 1.25 C-3.69 -0.31 -2.161 0.043 0 0 Z " fill="#AF2227" transform="translate(575.25,502.75)"/></g><g><path d="M0 0 C3.803 2.005 5.618 3.427 8 7 C9.87 16.352 6.073 24.375 1 32 C-0.731 34.411 -2.559 36.693 -4.5 38.938 C-5.157 39.727 -5.157 39.727 -5.827 40.533 C-7.156 41.965 -7.156 41.965 -10 44 C-19.412 43.938 -27.376 37.372 -34.016 31.203 C-38.195 26.563 -41.128 21.101 -41.688 14.812 C-40.8 9.893 -38.676 7.286 -35 4 C-31.487 2.244 -27.823 2.309 -24 3 C-21.303 4.682 -19.154 6.673 -17 9 C-16.674 8.518 -16.348 8.036 -16.012 7.539 C-15.575 6.907 -15.138 6.276 -14.688 5.625 C-14.258 4.999 -13.829 4.372 -13.387 3.727 C-9.706 -0.856 -5.41 -0.766 0 0 Z " fill="#FEFEFE" transform="translate(785,798)"/></g><g><path d="M0 0 C0.99 0.66 1.98 1.32 3 2 C4.684 1.379 6.35 0.707 8 0 C10.625 -0.375 10.625 -0.375 13 0 C16.172 3.465 18.02 7.816 20.062 12 C20.589 13.067 20.589 13.067 21.127 14.156 C21.798 15.517 22.467 16.879 23.132 18.243 C23.817 19.629 24.537 20.998 25.27 22.359 C26.245 24.551 25.789 25.792 25 28 C23.68 28 22.36 28 21 28 C19.351 24.564 17.707 21.126 16.062 17.688 C15.594 16.711 15.125 15.735 14.643 14.729 C13.971 13.322 13.971 13.322 13.285 11.887 C12.665 10.591 12.665 10.591 12.031 9.268 C11 7 11 7 10 4 C8.35 4.33 6.7 4.66 5 5 C6.412 11.725 8.874 16.828 12.342 22.707 C15.053 27.5 15.053 27.5 14.738 30.453 C14.495 30.964 14.251 31.474 14 32 C11 31 11 31 9.246 28.016 C8.633 26.765 8.03 25.51 7.438 24.25 C6.982 23.318 6.982 23.318 6.518 22.367 C4.869 18.963 3.355 15.531 2 12 C0.68 13.65 -0.64 15.3 -2 17 C-1.411 18.036 -0.822 19.073 -0.215 20.141 C0.545 21.51 1.304 22.88 2.062 24.25 C2.452 24.932 2.842 25.614 3.244 26.316 C3.608 26.98 3.972 27.644 4.348 28.328 C4.688 28.936 5.028 29.543 5.379 30.169 C6.177 32.523 5.979 33.73 5 36 C3.515 36.495 3.515 36.495 2 37 C-0.31 32.05 -2.62 27.1 -5 22 C-6.32 22.66 -7.64 23.32 -9 24 C-8.284 28.714 -6.436 31.908 -3.961 35.914 C-3 38 -3 38 -4 41 C-4.99 41 -5.98 41 -7 41 C-8.005 39.044 -9.004 37.085 -10 35.125 C-10.557 34.034 -11.114 32.944 -11.688 31.82 C-13 29 -13 29 -13 27 C-14.65 27.33 -16.3 27.66 -18 28 C-17.379 29.606 -16.753 31.21 -16.125 32.812 C-15.603 34.152 -15.603 34.152 -15.07 35.52 C-14.012 38.177 -14.012 38.177 -12 41 C-11.875 43.688 -11.875 43.688 -12 46 C-13.32 46 -14.64 46 -16 46 C-17.341 43.566 -18.673 41.129 -20 38.688 C-20.382 37.997 -20.763 37.307 -21.156 36.596 C-24 31.34 -24 31.34 -24 28 C-25.98 27.67 -27.96 27.34 -30 27 C-29.727 27.555 -29.455 28.109 -29.174 28.681 C-27.941 31.2 -26.72 33.725 -25.5 36.25 C-25.071 37.123 -24.641 37.995 -24.199 38.895 C-23.793 39.739 -23.387 40.583 -22.969 41.453 C-22.403 42.616 -22.403 42.616 -21.826 43.802 C-21 46 -21 46 -21 50 C-23.486 49.635 -24.673 49.412 -26.264 47.405 C-26.614 46.73 -26.964 46.055 -27.324 45.359 C-27.713 44.618 -28.102 43.877 -28.502 43.113 C-28.893 42.333 -29.284 41.554 -29.688 40.75 C-30.09 39.986 -30.493 39.221 -30.908 38.434 C-32.853 34.66 -34.496 31.273 -35 27 C-36.645 31.935 -36.631 35.635 -34.434 40.387 C-33.775 41.476 -33.116 42.565 -32.438 43.688 C-28.939 49.491 -28.939 49.491 -29.285 52.395 C-29.521 52.924 -29.757 53.454 -30 54 C-30.99 54 -31.98 54 -33 54 C-34.008 52.234 -35.006 50.462 -36 48.688 C-36.557 47.701 -37.114 46.715 -37.688 45.699 C-39 43 -39 43 -39 40 C-39.66 40 -40.32 40 -41 40 C-42.288 44.673 -42.288 44.673 -40.953 49.176 C-40.044 50.572 -39.103 51.949 -38.129 53.301 C-37 55 -37 55 -37 57 C-37.99 57.33 -38.98 57.66 -40 58 C-44 51.375 -44 51.375 -44 48 C-44.99 48.66 -45.98 49.32 -47 50 C-46.856 50.66 -46.711 51.32 -46.562 52 C-45.877 55.656 -45.438 59.306 -45 63 C-45.99 63 -46.98 63 -48 63 C-52 56.25 -52 56.25 -52 54 C-52.51 54.289 -53.021 54.577 -53.547 54.875 C-59.933 58.136 -65.867 58.957 -73 58 C-73.66 57.34 -74.32 56.68 -75 56 C-75 55.01 -75 54.02 -75 53 C-74.25 52.986 -73.5 52.972 -72.727 52.957 C-64.212 52.56 -57.233 51.119 -50.965 45.02 C-43.462 36.02 -41.404 26.888 -41.25 15.375 C-41.206 13.726 -41.206 13.726 -41.16 12.043 C-41.09 9.362 -41.037 6.682 -41 4 C-39.68 3.34 -38.36 2.68 -37 2 C-35.185 3.815 -35.525 6.795 -35.25 9.25 C-34.624 13.32 -34.146 15.758 -32 19.312 C-26.97 22.142 -22.42 21.735 -16.891 20.547 C-8.844 17.522 -3.476 7.465 0 0 Z " fill="#67252E" transform="translate(538,399)"/></g><g><path d="M0 0 C4.207 0.124 4.207 0.124 8.5 0.25 C9.367 0.266 10.234 0.282 11.127 0.298 C18.828 0.629 25.494 3.494 31 9 C31.629 11.629 31.629 11.629 32 14 C26.001 17.086 20.001 20.169 14 23.25 C12.663 23.936 12.663 23.936 11.3 24.636 C-0.125 30.5 -11.57 36.315 -23.072 42.026 C-30.747 45.847 -38.337 49.817 -45.906 53.844 C-47.27 54.563 -48.635 55.282 -50 56 C-50.726 56.385 -51.451 56.771 -52.199 57.168 C-52.907 57.535 -53.615 57.903 -54.344 58.281 C-54.975 58.612 -55.606 58.943 -56.256 59.283 C-58 60 -58 60 -61 60 C-63.577 53.879 -64.302 47.659 -62.055 41.344 C-59.642 36.305 -56.778 32.101 -53 28 C-49.031 29.323 -48.701 30.911 -46.812 34.562 C-46.283 35.574 -45.753 36.586 -45.207 37.629 C-44.809 38.411 -44.41 39.194 -44 40 C-38.092 39.485 -33.519 37.007 -28.332 34.344 C-27.415 33.881 -26.499 33.419 -25.554 32.943 C-22.637 31.469 -19.724 29.985 -16.812 28.5 C-13.889 27.017 -10.964 25.536 -8.038 24.057 C-6.221 23.138 -4.404 22.215 -2.59 21.289 C-1.358 20.664 -1.358 20.664 -0.101 20.025 C0.981 19.474 0.981 19.474 2.085 18.911 C4 18 4 18 7 17 C4.69 11.39 2.38 5.78 0 0 Z " fill="#FEFEFE" transform="translate(557,440)"/></g><g><path d="M0 0 C7.799 14.368 7.799 14.368 10.562 20.188 C10.873 20.841 11.184 21.495 11.504 22.168 C12.143 24.529 11.845 25.712 11 28 C9.434 29.333 9.434 29.333 7.438 30.48 C6.713 30.902 5.989 31.324 5.242 31.759 C4.132 32.373 4.132 32.373 3 33 C2.343 33.367 1.685 33.734 1.008 34.112 C-0.984 35.201 -2.988 36.261 -5 37.312 C-5.736 37.699 -6.473 38.086 -7.231 38.485 C-14.019 42.036 -20.843 45.51 -27.722 48.882 C-29.382 49.697 -31.039 50.515 -32.696 51.337 C-35.563 52.756 -38.437 54.161 -41.312 55.562 C-42.684 56.244 -42.684 56.244 -44.083 56.939 C-44.939 57.352 -45.794 57.766 -46.676 58.191 C-47.438 58.565 -48.2 58.938 -48.986 59.323 C-51 60 -51 60 -54 59 C-55.203 56.855 -55.203 56.855 -56.25 54.188 C-56.606 53.315 -56.962 52.442 -57.328 51.543 C-58.043 48.838 -58.163 47.536 -57 45 C-55.515 44.505 -55.515 44.505 -54 44 C-52.68 46.97 -51.36 49.94 -50 53 C-49.01 53 -48.02 53 -47 53 C-47.445 52.336 -47.889 51.672 -48.348 50.988 C-48.914 50.105 -49.479 49.222 -50.062 48.312 C-50.631 47.442 -51.199 46.572 -51.785 45.676 C-53.21 42.537 -53.05 41.227 -52 38 C-51.67 37.34 -51.34 36.68 -51 36 C-50.34 36 -49.68 36 -49 36 C-47.995 37.956 -46.996 39.915 -46 41.875 C-45.165 43.511 -45.165 43.511 -44.312 45.18 C-43 48 -43 48 -43 50 C-41.515 49.505 -41.515 49.505 -40 49 C-40.582 44.921 -41.937 42.133 -44.062 38.625 C-46.557 34.175 -47.831 31.194 -47 26 C-46 23.062 -46 23.062 -45 21 C-44.67 21 -44.34 21 -44 21 C-43.835 22.176 -43.67 23.351 -43.5 24.562 C-42.429 29.448 -40.38 33.608 -38.062 38 C-37.714 38.671 -37.366 39.342 -37.008 40.033 C-34.936 44.043 -34.936 44.043 -31 46 C-33.469 39.641 -36.137 33.42 -39.047 27.25 C-40 25 -40 25 -40 23 C-37.273 23.004 -37.273 23.004 -34 24 C-32.059 26.417 -30.878 29.116 -29.625 31.938 C-29.271 32.679 -28.916 33.421 -28.551 34.186 C-26 39.617 -26 39.617 -26 42 C-24.68 42 -23.36 42 -22 42 C-23.299 37.668 -25.026 33.873 -27.195 29.93 C-28 28 -28 28 -28 24 C-26.35 23.67 -24.7 23.34 -23 23 C-21.995 24.956 -20.996 26.915 -20 28.875 C-19.443 29.966 -18.886 31.056 -18.312 32.18 C-17 35 -17 35 -17 37 C-16.01 36.67 -15.02 36.34 -14 36 C-15.032 32.474 -16.252 29.477 -18.188 26.375 C-20 23 -20 23 -20 20.688 C-18.706 18.504 -17.264 18.045 -15 17 C-13.826 19.1 -12.66 21.205 -11.5 23.312 C-11.166 23.907 -10.832 24.502 -10.488 25.115 C-8.932 27.958 -8 29.707 -8 33 C-7.01 32.34 -6.02 31.68 -5 31 C-5.565 27.6 -7.085 24.99 -8.781 22.024 C-13.201 14.155 -13.201 14.155 -12.57 10.527 C-11.438 8.625 -11.438 8.625 -9 6 C-6.03 9.552 -4.266 13.443 -2.375 17.625 C-1.758 18.971 -1.141 20.318 -0.523 21.664 C-0.021 22.765 0.482 23.866 1 25 C1.495 25.99 1.495 25.99 2 27 C2.66 27 3.32 27 4 27 C3.336 21.505 0.543 17.3 -2.205 12.615 C-4.482 8.56 -5.466 5.785 -5 1 C-3 0 -3 0 0 0 Z " fill="#F6F3F3" transform="translate(548,403)"/></g><g><path d="M0 0 C2.977 1.773 5.428 3.856 7 7 C9.494 5.796 11.681 4.546 14 3 C18.959 2.431 21.065 2.499 25.5 4.875 C28.01 7.31 28.516 9.357 28.75 12.812 C28.256 20.377 23.558 24.695 18.25 29.625 C7.151 38.871 7.151 38.871 1.52 39.102 C-2.369 37.401 -3.927 34.397 -6.125 30.875 C-6.554 30.223 -6.984 29.57 -7.426 28.898 C-11.798 22.118 -15.658 15.306 -14 7 C-10.578 0.929 -6.814 -0.681 0 0 Z " fill="#90C7C2" transform="translate(808,709)"/></g><g><path d="M0 0 C3.494 1.668 4.827 2.74 7 6 C8.559 16.731 4.564 26.058 -1 35 C-10.698 34.515 -19.665 31.538 -27 25 C-29.821 20.769 -29.78 16.967 -29 12 C-26.326 8.596 -24.772 8.096 -20.5 7.562 C-16.869 8.016 -14.931 8.869 -12 11 C-12.082 10.278 -12.165 9.556 -12.25 8.812 C-11.923 5.128 -10.502 3.649 -8 1 C-5.18 -0.41 -3.13 -0.245 0 0 Z " fill="#FEFEFE" transform="translate(703,909)"/></g><g><path d="M0 0 C0.79 -0.033 1.579 -0.066 2.393 -0.1 C6.696 -0.139 8.397 0.006 11.871 2.777 C14.842 6.601 16.216 8.607 16.188 13.438 C16.195 14.737 16.195 14.737 16.203 16.062 C15.938 18.438 15.938 18.438 13.938 21.438 C11.219 22.952 8.281 23.959 5.375 25.062 C4.601 25.374 3.827 25.686 3.029 26.008 C-2.378 28.097 -7.282 29.01 -13.062 29.438 C-18.154 22.591 -21.231 15.056 -20.062 6.438 C-14.734 0.482 -7.508 0.055 0 0 Z " fill="#FDCCBD" transform="translate(437.0625,596.5625)"/></g><g><path d="M0 0 C3.683 0.691 5.332 1.969 8 4.562 C8.99 6.048 8.99 6.048 10 7.562 C10.671 7.021 10.671 7.021 11.355 6.469 C14.123 4.345 16.237 2.722 19.688 2 C23.028 2.812 24.145 3.637 26 6.562 C26.347 10.986 25.795 14.356 23.34 18.082 C20.649 20.935 17.915 22.782 14.562 24.812 C13.45 25.498 12.338 26.184 11.191 26.891 C8.333 28.388 6.172 29.159 3 29.562 C-2.267 23.805 -8.073 17.456 -8.625 9.312 C-8 5.562 -8 5.562 -5.875 2.562 C-3 0.562 -3 0.562 0 0 Z " fill="#FEFEFE" transform="translate(613,169.4375)"/></g><g><path d="M0 0 C4.158 1.808 6.528 4.404 8.875 8.25 C9.75 11.25 9.75 11.25 8.875 14.25 C6.47 16.95 3.757 19.081 0.875 21.25 C-0.486 22.395 -0.486 22.395 -1.875 23.562 C-6.765 26.101 -11.579 27.523 -17.125 27.25 C-20.081 25.476 -21.777 23.414 -23.125 20.25 C-23.609 17.816 -23.609 17.816 -23.125 15.25 C-21.317 13.322 -19.696 11.838 -17.625 10.25 C-17.078 9.816 -16.53 9.383 -15.966 8.936 C-14.369 7.687 -12.747 6.468 -11.125 5.25 C-10.344 4.658 -9.563 4.067 -8.758 3.457 C-5.689 1.326 -3.765 0.301 0 0 Z " fill="#FDCCBD" transform="translate(643.125,416.75)"/></g><g><path d="M0 0 C2.438 1.938 2.438 1.938 4 4 C4 4.66 4 5.32 4 6 C1.97 6.677 -0.061 7.351 -2.094 8.02 C-4.103 8.697 -6.103 9.405 -8.094 10.137 C-23.915 15.785 -41.102 20.339 -58 19 C-58 18.34 -58 17.68 -58 17 C-53.501 15.433 -49.001 13.871 -44.5 12.312 C-43.837 12.083 -43.174 11.853 -42.491 11.616 C-33.732 8.585 -24.961 5.649 -16.066 3.035 C-12.915 2.055 -12.915 2.055 -9.816 0.367 C-6.065 -1.454 -3.975 -1.104 0 0 Z " fill="#F6F3F3" transform="translate(393,662)"/></g><g><path d="M0 0 C2.977 1.773 5.428 3.856 7 7 C9.494 5.796 11.681 4.546 14 3 C18.959 2.431 21.065 2.499 25.5 4.875 C28.01 7.31 28.516 9.357 28.75 12.812 C28.256 20.377 23.558 24.695 18.25 29.625 C7.151 38.871 7.151 38.871 1.52 39.102 C-2.369 37.401 -3.927 34.397 -6.125 30.875 C-6.554 30.223 -6.984 29.57 -7.426 28.898 C-11.798 22.118 -15.658 15.306 -14 7 C-10.578 0.929 -6.814 -0.681 0 0 Z M-10 7 C-11.677 13.781 -8.902 19.282 -5.734 25.18 C-3.473 28.858 -0.978 31.88 2 35 C10.511 31.819 19.525 26.021 24.168 17.977 C25.366 15.131 25.382 13.053 25 10 C23.583 7.417 23.583 7.417 21 6 C14.434 5.743 10.05 9.255 5 13 C4.881 12.233 4.763 11.466 4.641 10.676 C3.74 6.913 1.991 5.379 -1 3 C-5.397 2.035 -7.56 3.295 -10 7 Z " fill="#FEFEFE" transform="translate(808,709)"/></g><g><path d="M0 0 C3.717 0.286 5.336 0.956 8.25 3.25 C10.057 10.725 7.934 17.737 4.25 24.25 C3.59 24.25 2.93 24.25 2.25 24.25 C2.25 24.91 2.25 25.57 2.25 26.25 C-1.125 26.438 -1.125 26.438 -4.75 26.25 C-7.209 22.561 -7.082 19.705 -7.062 15.438 C-7.079 14.738 -7.095 14.039 -7.111 13.318 C-7.116 8.54 -6.215 5.325 -3.75 1.25 C-2.75 0.25 -2.75 0.25 0 0 Z " fill="#FDCCBD" transform="translate(466.75,424.75)"/></g><g><path d="M0 0 C1.32 0.33 2.64 0.66 4 1 C4 4.63 4 8.26 4 12 C12.25 12.33 20.5 12.66 29 13 C29.33 14.65 29.66 16.3 30 18 C25.71 18 21.42 18 17 18 C17 28.56 17 39.12 17 50 C15.68 50 14.36 50 13 50 C12.134 38.648 11.881 27.384 12 16 C10.422 16.031 10.422 16.031 8.812 16.062 C5 16 5 16 0 15 C0 10.05 0 5.1 0 0 Z " fill="#9CCECD" transform="translate(789,553)"/></g><g><path d="M0 0 C3.91 0.626 5.562 1.471 8.125 4.5 C8.272 11.853 4.422 19.069 1.125 25.5 C-3.12 25.833 -5.23 25.939 -8.812 23.5 C-9.493 22.84 -10.174 22.18 -10.875 21.5 C-10.026 17.967 -9.031 14.484 -8 11 C-7.673 9.876 -7.345 8.752 -7.008 7.594 C-4.515 0.785 -4.515 0.785 0 0 Z " fill="#FDCCBD" transform="translate(514.875,395.5)"/></g><g><path d="M0 0 C3.174 0.163 4.56 0.528 6.75 2.875 C8 5 8 5 9 8 C11.268 6.908 13.337 5.775 15.438 4.375 C18.242 2.87 19.87 2.732 23 3 C23.875 5.062 23.875 5.062 24 8 C20.982 13.237 15.634 17.81 10 20 C6.931 19.649 6.17 19.18 4 16.875 C-2.86 7.014 -2.86 7.014 -2 2 C-1.34 1.34 -0.68 0.68 0 0 Z " fill="#90C7C2" transform="translate(611,174)"/></g><g><path d="M0 0 C2.475 0.495 2.475 0.495 5 1 C5.182 2.272 5.364 3.545 5.551 4.855 C5.671 5.695 5.791 6.535 5.915 7.4 C6.183 9.281 6.45 11.162 6.716 13.043 C7.403 17.893 8.109 22.739 8.867 27.578 C10.398 37.492 11.456 46.942 11 57 C9.35 57 7.7 57 6 57 C5.834 55.306 5.834 55.306 5.665 53.579 C5.248 49.347 4.826 45.117 4.401 40.887 C4.219 39.064 4.038 37.24 3.86 35.417 C2.696 22.587 2.696 22.587 0.375 9.932 C-0.27 6.608 -0.125 3.373 0 0 Z " fill="#90C7C2" transform="translate(505,130)"/></g><g><path d="M0 0 C6.54 2.767 11.125 7.948 15.375 13.438 C15.825 13.985 16.275 14.532 16.738 15.096 C19.648 18.833 20.526 21.288 20 26 C16.11 24.476 14.278 22.14 11.75 18.875 C8.246 14.429 4.604 10.564 0.336 6.852 C-1 5 -1 5 -0.711 2.273 C-0.476 1.523 -0.242 0.773 0 0 Z " fill="#5B1826" transform="translate(708,298)"/></g><g><path d="M0 0 C0.66 0 1.32 0 2 0 C1.596 5.995 1.078 11.898 0 17.812 C-1.251 24.845 -1.63 31.874 -2 39 C-2.33 39 -2.66 39 -3 39 C-3.99 35.535 -3.99 35.535 -5 32 C-5.33 32 -5.66 32 -6 32 C-6.027 29.75 -6.046 27.5 -6.062 25.25 C-6.074 23.997 -6.086 22.744 -6.098 21.453 C-6.019 18.661 -5.759 16.634 -5 14 C-4.788 12.42 -4.601 10.836 -4.438 9.25 C-4.354 8.451 -4.27 7.652 -4.184 6.828 C-4.123 6.225 -4.062 5.622 -4 5 C-3.34 5.33 -2.68 5.66 -2 6 C-1.34 4.02 -0.68 2.04 0 0 Z " fill="#5B1826" transform="translate(456,407)"/></g><g><path d="M0 0 C1.65 0.33 3.3 0.66 5 1 C6.958 9.09 8.519 16.655 8 25 C6.68 25 5.36 25 4 25 C2.407 20.506 1.272 16.044 0.312 11.375 C0.041 10.083 -0.231 8.792 -0.512 7.461 C-0.938 4.443 -1.057 2.795 0 0 Z " fill="#67252E" transform="translate(386,314)"/></g><g><path d="M0 0 C2.062 0.438 2.062 0.438 4 1 C5.034 9.013 5.105 16.929 5 25 C3.02 25.99 3.02 25.99 1 27 C-2.605 19.79 -1.369 8.8 -1 1 C-0.67 0.67 -0.34 0.34 0 0 Z " fill="#67252E" transform="translate(441,236)"/></g><g><path d="M0 0 C1.868 0.261 1.868 0.261 4 1 C5.173 2.671 5.173 2.671 6.105 4.824 C6.449 5.606 6.793 6.388 7.146 7.193 C7.662 8.428 7.662 8.428 8.188 9.688 C8.72 10.893 8.72 10.893 9.264 12.123 C11.109 16.405 12.494 20.321 13 25 C10.536 24.632 9.328 24.4 7.72 22.437 C6.548 20.257 5.381 18.077 4.25 15.875 C3.633 14.754 3.633 14.754 3.004 13.609 C0.482 8.8 -0.489 5.424 0 0 Z " fill="#6D3538" transform="translate(504,424)"/></g><g><path d="M0 0 C3.053 -0.294 5.955 -0.414 9 0 C12.142 2.606 12.89 4.086 13.375 8.125 C13 11 13 11 11 14 C9.35 14 7.7 14 6 14 C6.99 10.7 7.98 7.4 9 4 C6.589 6.346 4.298 8.592 2.312 11.312 C1.663 12.148 1.663 12.148 1 13 C0.34 13 -0.32 13 -1 13 C-0.453 9.625 0.055 7.918 2 5 C1.34 4.34 0.68 3.68 0 3 C0 2.01 0 1.02 0 0 Z " fill="#90C7C2" transform="translate(415,574)"/></g><g><path d="M0 0 C4.313 0.691 8.227 2.098 12.25 3.75 C13.205 4.11 13.205 4.11 14.18 4.477 C16.016 5.234 16.016 5.234 19 7 C19.922 9.703 19.922 9.703 20 12 C12.862 11.513 4.136 9.136 -1 4 C-0.625 1.875 -0.625 1.875 0 0 Z " fill="#67252E" transform="translate(417,255)"/></g><g><path d="M0 0 C7.208 1.586 13.54 3.397 20 7 C20 8.32 20 9.64 20 11 C12.517 10.187 4.928 8.879 -1 4 C-0.67 2.68 -0.34 1.36 0 0 Z " fill="#67252E" transform="translate(365,335)"/></g><g><path d="M0 0 C0.66 0.33 1.32 0.66 2 1 C1.927 2.017 1.853 3.034 1.777 4.082 C2.034 8.6 3.239 10.845 5.562 14.688 C9.061 20.491 9.061 20.491 8.715 23.395 C8.479 23.924 8.243 24.454 8 25 C7.01 25 6.02 25 5 25 C3.992 23.234 2.994 21.462 2 19.688 C1.443 18.701 0.886 17.715 0.312 16.699 C-1 14 -1 14 -1 11 C-1.66 10.67 -2.32 10.34 -3 10 C-2.01 6.7 -1.02 3.4 0 0 Z " fill="#7F3C44" transform="translate(500,428)"/></g><g><path d="M0 0 C2.99 0.599 4.998 1.489 7.453 3.285 C8.072 3.733 8.691 4.181 9.328 4.643 C9.962 5.111 10.597 5.58 11.25 6.062 C11.9 6.535 12.549 7.007 13.219 7.494 C14.817 8.657 16.409 9.828 18 11 C17.67 12.32 17.34 13.64 17 15 C12.751 13.558 9.721 11.449 6.25 8.625 C5.286 7.854 4.322 7.083 3.328 6.289 C1.06 4.059 0.311 3.1 0 0 Z " fill="#8CAAAB" transform="translate(380,574)"/></g><g><path d="M0 0 C2.513 3.149 4.406 6.42 6.25 10 C7.062 11.547 7.062 11.547 7.891 13.125 C9.03 16.078 9.185 17.134 8 20 C6.68 20 5.36 20 4 20 C2.35 16.04 0.7 12.08 -1 8 C-0.67 7.67 -0.34 7.34 0 7 C-0.165 6.196 -0.33 5.391 -0.5 4.562 C-1 2 -1 2 0 0 Z " fill="#67252E" transform="translate(555,407)"/></g><g><path d="M0 0 C-1.344 3.234 -2.45 4.601 -5.59 6.141 C-6.643 6.663 -6.643 6.663 -7.717 7.195 C-8.45 7.543 -9.182 7.891 -9.938 8.25 C-10.666 8.614 -11.395 8.977 -12.146 9.352 C-17.578 12 -17.578 12 -21 12 C-20.444 8.348 -20.444 8.348 -18.481 6.812 C-17.842 6.497 -17.202 6.183 -16.543 5.859 C-15.842 5.511 -15.142 5.163 -14.42 4.805 C-13.315 4.283 -13.315 4.283 -12.188 3.75 C-11.462 3.386 -10.737 3.023 -9.99 2.648 C-6.242 0.824 -4.304 0 0 0 Z " fill="#A33436" transform="translate(554,548)"/></g><g><path d="M0 0 C-1 3 -1 3 -2.718 4.167 C-3.813 4.709 -3.813 4.709 -4.93 5.262 C-5.725 5.658 -6.52 6.054 -7.34 6.463 C-8.595 7.069 -8.595 7.069 -9.875 7.688 C-10.704 8.103 -11.533 8.519 -12.387 8.947 C-18.592 12 -18.592 12 -22 12 C-22 11.01 -22 10.02 -22 9 C-19.28 7.483 -16.548 5.989 -13.812 4.5 C-13.044 4.071 -12.275 3.641 -11.482 3.199 C-4.394 -0.634 -4.394 -0.634 0 0 Z " fill="#A02429" transform="translate(617,517)"/></g><g><path d="M0 0 C4.415 0.699 7.349 3.346 10.75 6.062 C11.352 6.535 11.954 7.007 12.574 7.494 C14.054 8.657 15.528 9.828 17 11 C16.67 11.99 16.34 12.98 16 14 C11.99 12.61 9.1 10.733 5.812 8.062 C4.953 7.373 4.093 6.683 3.207 5.973 C1 4 1 4 -1 1 C-0.67 0.67 -0.34 0.34 0 0 Z " fill="#839A98" transform="translate(392,558)"/></g><g><path d="M0 0 C2.438 -0.438 2.438 -0.438 5 0 C8.028 3.125 8.589 6.015 9.188 10.25 C9.346 11.328 9.505 12.405 9.668 13.516 C9.778 14.335 9.887 15.155 10 16 C6.339 14.78 6.077 13.874 4.312 10.562 C3.876 9.759 3.439 8.956 2.988 8.129 C2 6 2 6 2 4 C0.68 3.67 -0.64 3.34 -2 3 C-1.34 2.01 -0.68 1.02 0 0 Z " fill="#67252E" transform="translate(546,399)"/></g><g><path d="M0 0 C2.115 2.737 4.009 5.51 5.75 8.5 C6.199 9.253 6.647 10.006 7.109 10.781 C8 13 8 13 7.828 15.219 C7.555 15.807 7.282 16.394 7 17 C6.01 17.33 5.02 17.66 4 18 C3.16 16.065 2.328 14.127 1.5 12.188 C1.036 11.109 0.572 10.03 0.094 8.918 C-1.259 5.308 -1.218 3.653 0 0 Z " fill="#6D3538" transform="translate(536,418)"/></g><g><path d="M0 0 C0.928 -0.012 1.856 -0.024 2.812 -0.037 C7.426 -0.047 11.199 -0.041 15.375 2.188 C15.375 2.518 15.375 2.847 15.375 3.188 C12.896 3.214 10.417 3.234 7.938 3.25 C7.23 3.258 6.523 3.267 5.795 3.275 C3.988 3.284 2.181 3.24 0.375 3.188 C0.045 2.857 -0.285 2.528 -0.625 2.188 C-3.488 2.114 -6.326 2.095 -9.188 2.125 C-9.994 2.13 -10.8 2.134 -11.631 2.139 C-13.629 2.15 -15.627 2.168 -17.625 2.188 C-17.625 1.857 -17.625 1.528 -17.625 1.188 C-11.728 0.172 -5.977 0.004 0 0 Z " fill="#E4927D" transform="translate(429.625,593.8125)"/></g><g><path d="M0 0 C6.485 8.338 6.485 8.338 6 14 C4.68 14 3.36 14 2 14 C0.35 10.37 -1.3 6.74 -3 3 C-2.01 2.01 -1.02 1.02 0 0 Z " fill="#6D3538" transform="translate(520,431)"/></g><g><path d="M0 0 C5.405 1.52 8.985 5.274 13 9 C10 11 10 11 7.812 10.625 C7.214 10.419 6.616 10.212 6 10 C6.33 9.67 6.66 9.34 7 9 C6.031 8.443 5.061 7.886 4.062 7.312 C1 5 1 5 0.125 2.25 C0.084 1.508 0.043 0.765 0 0 Z " fill="#8CAAAB" transform="translate(369,586)"/></g><g><path d="M0 0 C2.951 3.459 5.259 6.784 7 11 C6.67 11.99 6.34 12.98 6 14 C5.01 14 4.02 14 3 14 C2.108 12.238 1.237 10.465 0.375 8.688 C-0.112 7.701 -0.6 6.715 -1.102 5.699 C-1.398 4.808 -1.695 3.918 -2 3 C-1.34 2.01 -0.68 1.02 0 0 Z " fill="#6D3538" transform="translate(528,426)"/></g><g><path d="M0 0 C0.66 0 1.32 0 2 0 C1.707 3.812 1.499 6.329 -0.812 9.438 C-3 11 -3 11 -7 11 C-5.511 6.399 -3.254 3.498 0 0 Z " fill="#F6F3F3" transform="translate(422,578)"/></g><g><path d="M0 0 C0.33 1.32 0.66 2.64 1 4 C0.01 4.495 0.01 4.495 -1 5 C0.068 9.501 1.14 13.749 3 18 C1.68 18.33 0.36 18.66 -1 19 C-4.667 9.489 -4.667 9.489 -3 5 C-1.4 1.4 -1.4 1.4 0 0 Z " fill="#67252E" transform="translate(544,399)"/></g><g><path d="M0 0 C0.66 0 1.32 0 2 0 C3 1.333 4 2.667 5 4 C5.66 4 6.32 4 7 4 C8.429 6.354 9.087 7.48 8.625 10.25 C8.419 10.827 8.212 11.405 8 12 C7.01 12 6.02 12 5 12 C4.162 10.378 3.33 8.752 2.5 7.125 C2.036 6.22 1.572 5.315 1.094 4.383 C0 2 0 2 0 0 Z " fill="#67252E" transform="translate(500,441)"/></g><g><path d="M0 0 C0.248 0.639 0.495 1.279 0.75 1.938 C1.816 4.187 1.816 4.187 4.125 4.75 C4.744 4.832 5.363 4.915 6 5 C5.34 6.65 4.68 8.3 4 10 C1.36 9.34 -1.28 8.68 -4 8 C-4 6.35 -4 4.7 -4 3 C-2.68 3.33 -1.36 3.66 0 4 C0 2.68 0 1.36 0 0 Z " fill="#C0D6D2" transform="translate(493,458)"/></g><g><path d="M0 0 C0.66 0 1.32 0 2 0 C2.7 2.414 3.385 4.83 4.062 7.25 C4.262 7.932 4.461 8.614 4.666 9.316 C6.4 15.583 6.4 15.583 5 19 C2.934 15.901 2.253 13.65 1.375 10.062 C1.115 9.022 0.854 7.982 0.586 6.91 C0 4 0 4 0 0 Z " fill="#67252E" transform="translate(193,733)"/></g><g><path d="M0 0 C0.66 0 1.32 0 2 0 C2 0.66 2 1.32 2 2 C3.32 1.34 4.64 0.68 6 0 C7.604 3.508 8.22 6.144 8 10 C7.01 10 6.02 10 5 10 C3.35 6.7 1.7 3.4 0 0 Z " fill="#67252E" transform="translate(485,452)"/></g><g><path d="M0 0 C0 3 0 3 -2.406 5.699 C-3.43 6.703 -4.462 7.699 -5.5 8.688 C-6.025 9.199 -6.549 9.71 -7.09 10.236 C-8.387 11.498 -9.692 12.75 -11 14 C-11.66 13.67 -12.32 13.34 -13 13 C-11.212 11.018 -9.42 9.039 -7.625 7.062 C-7.117 6.499 -6.609 5.935 -6.086 5.354 C-2.227 1.113 -2.227 1.113 0 0 Z " fill="#FDB599" transform="translate(486,613)"/></g><g><path d="M0 0 C-2.786 2.786 -5.13 2.492 -9 3 C-11.363 3.591 -13.669 4.287 -16 5 C-16.66 4.34 -17.32 3.68 -18 3 C-11.886 1.143 -6.415 -0.428 0 0 Z " fill="#6D3538" transform="translate(254,623)"/></g><g><path d="M0 0 C1.32 2.64 2.64 5.28 4 8 C3.34 8 2.68 8 2 8 C1.67 7.34 1.34 6.68 1 6 C0.34 6.66 -0.32 7.32 -1 8 C-1 6.35 -1 4.7 -1 3 C-1.866 3.278 -1.866 3.278 -2.75 3.562 C-5.207 4.04 -6.644 3.757 -9 3 C-2.25 0 -2.25 0 0 0 Z " fill="#D4947C" transform="translate(486,453)"/></g><g><path d="M0 0 C-0.33 0.66 -0.66 1.32 -1 2 C-0.34 2.33 0.32 2.66 1 3 C-0.625 3.054 -2.25 3.093 -3.875 3.125 C-4.78 3.148 -5.685 3.171 -6.617 3.195 C-9 3 -9 3 -11 1 C-3.375 -1.125 -3.375 -1.125 0 0 Z " fill="#F1A68D" transform="translate(638,443)"/></g><g><path d="M0 0 C3.465 1.485 3.465 1.485 7 3 C7 4.32 7 5.64 7 7 C5.35 7 3.7 7 2 7 C2 5.68 2 4.36 2 3 C1.34 3 0.68 3 0 3 C0 2.01 0 1.02 0 0 Z " fill="#6D3538" transform="translate(430,260)"/></g><g><path d="M0 0 C-1.583 4.274 -4.506 6.265 -8 9 C-8.66 8.67 -9.32 8.34 -10 8 C-8.907 6.658 -7.8 5.327 -6.688 4 C-5.765 2.886 -5.765 2.886 -4.824 1.75 C-3 0 -3 0 0 0 Z " fill="#5B1826" transform="translate(449,628)"/></g><g><path d="M0 0 C2.211 0.428 3.981 0.991 6 2 C5.67 3.32 5.34 4.64 5 6 C3.125 5.75 3.125 5.75 1 5 C-0.25 2.938 -0.25 2.938 -1 1 C-0.67 0.67 -0.34 0.34 0 0 Z " fill="#7F3C44" transform="translate(374,324)"/></g><g><path d="M0 0 C-0.33 0.99 -0.66 1.98 -1 3 C-3.562 4.188 -3.562 4.188 -6 5 C-6 4.34 -6 3.68 -6 3 C-6.99 2.67 -7.98 2.34 -9 2 C-5.865 0.142 -3.625 -0.201 0 0 Z " fill="#A33436" transform="translate(617,517)"/></g><g><path d="M0 0 C0.99 0 1.98 0 3 0 C2.75 2.875 2.75 2.875 2 6 C-0.062 7.375 -0.062 7.375 -2 8 C-1.125 1.125 -1.125 1.125 0 0 Z " fill="#67252E" transform="translate(453,407)"/></g><g><path d="M0 0 C3.916 0.783 7.364 2.392 11 4 C11 4.99 11 5.98 11 7 C7.209 5.55 3.613 3.848 0 2 C0 1.34 0 0.68 0 0 Z " fill="#67252E" transform="translate(689,290)"/></g><g><path d="M0 0 C-5.203 2.243 -8.343 3.556 -14 2 C-14 1.67 -14 1.34 -14 1 C-12.419 0.635 -10.835 0.283 -9.25 -0.062 C-8.368 -0.26 -7.487 -0.457 -6.578 -0.66 C-4.013 -0.998 -2.429 -0.812 0 0 Z " fill="#774955" transform="translate(337,607)"/></g><g><path d="M0 0 C2.812 -0.25 2.812 -0.25 6 0 C7.875 2 7.875 2 9 4 C6.69 4.33 4.38 4.66 2 5 C2.33 4.34 2.66 3.68 3 3 C2.01 2.01 1.02 1.02 0 0 Z " fill="#839A98" transform="translate(373,592)"/></g><g><path d="M0 0 C0.33 1.32 0.66 2.64 1 4 C-1.647 5.461 -2.894 6 -6 6 C-6 5.01 -6 4.02 -6 3 C-4.02 2.01 -2.04 1.02 0 0 Z " fill="#A33436" transform="translate(601,523)"/></g><g><path d="M0 0 C2.475 0.495 2.475 0.495 5 1 C5 2.32 5 3.64 5 5 C3.68 4.67 2.36 4.34 1 4 C0.67 2.68 0.34 1.36 0 0 Z " fill="#6C1E21" transform="translate(427,245)"/></g><g><path d="M0 0 C0.33 1.32 0.66 2.64 1 4 C0.01 4.495 0.01 4.495 -1 5 C-0.938 5.784 -0.876 6.567 -0.812 7.375 C-0.874 8.241 -0.936 9.108 -1 10 C-1.99 10.66 -2.98 11.32 -4 12 C-3.913 10.561 -3.804 9.124 -3.688 7.688 C-3.629 6.887 -3.571 6.086 -3.512 5.262 C-2.918 2.637 -2.042 1.692 0 0 Z " fill="#6D3538" transform="translate(544,399)"/></g><g><path d="M0 0 C1 2 1 2 0.312 4.562 C-1 7 -1 7 -3.125 7.812 C-3.744 7.874 -4.363 7.936 -5 8 C-4.458 4.204 -2.799 2.528 0 0 Z " fill="#E8A47E" transform="translate(489,666)"/></g><g><path d="M0 0 C0.33 0 0.66 0 1 0 C0.125 6.875 0.125 6.875 -1 8 C-2.666 8.041 -4.334 8.043 -6 8 C-6 7.34 -6 6.68 -6 6 C-5.196 5.753 -4.391 5.505 -3.562 5.25 C-0.829 4.278 -0.829 4.278 -0.188 1.875 C-0.126 1.256 -0.064 0.638 0 0 Z " fill="#90C7C2" transform="translate(427,580)"/></g><g><path d="M0 0 C2.169 0.506 4 1 6 2 C6 2.66 6 3.32 6 4 C4.125 4.625 4.125 4.625 2 5 C1.34 4.34 0.68 3.68 0 3 C0 2.01 0 1.02 0 0 Z " fill="#839A98" transform="translate(380,574)"/></g><g><path d="M0 0 C-1.393 3.367 -2.979 4.986 -6 7 C-6 4 -6 4 -4.125 1.812 C-2 0 -2 0 0 0 Z " fill="#B52F34" transform="translate(573,503)"/></g><g><path d="M0 0 C2 3 2 3 1.625 5.188 C1.419 5.786 1.212 6.384 1 7 C0.01 6.67 -0.98 6.34 -2 6 C-2.688 3.938 -2.688 3.938 -3 2 C-2.01 2.33 -1.02 2.66 0 3 C0 2.01 0 1.02 0 0 Z " fill="#5B1826" transform="translate(518,427)"/></g><g><path d="M0 0 C2.475 0.99 2.475 0.99 5 2 C4.67 3.32 4.34 4.64 4 6 C3.01 5.67 2.02 5.34 1 5 C0.67 3.35 0.34 1.7 0 0 Z " fill="#6C1E21" transform="translate(548,425)"/></g><g><path d="M0 0 C0.66 0.33 1.32 0.66 2 1 C2 1.99 2 2.98 2 4 C0.35 4.33 -1.3 4.66 -3 5 C-2.625 3.062 -2.625 3.062 -2 1 C-1.34 0.67 -0.68 0.34 0 0 Z " fill="#AA4040" transform="translate(536,555)"/></g><g><path d="M0 0 C-0.812 1.938 -0.812 1.938 -2 4 C-2.99 4.33 -3.98 4.66 -5 5 C-5.33 3.68 -5.66 2.36 -6 1 C-4 0 -4 0 0 0 Z " fill="#AA4040" transform="translate(554,548)"/></g><g><path d="M0 0 C0.99 0 1.98 0 3 0 C3 1.65 3 3.3 3 5 C1.68 5 0.36 5 -1 5 C-0.67 3.35 -0.34 1.7 0 0 Z " fill="#7F3C44" transform="translate(523,440)"/></g><g><path d="M0 0 C0.99 0 1.98 0 3 0 C2 2 1 4 0 6 C-0.66 6 -1.32 6 -2 6 C-1.125 1.125 -1.125 1.125 0 0 Z " fill="#90C7C2" transform="translate(416,581)"/></g><g><path d="M0 0 C0.66 0 1.32 0 2 0 C2.66 1.98 3.32 3.96 4 6 C2.68 6 1.36 6 0 6 C-1 3 -1 3 0 0 Z " fill="#6D3538" transform="translate(548,421)"/></g></svg>