<svg xmlns="http://www.w3.org/2000/svg" viewBox="0 0 1024 1024" preserveAspectRatio="xMidYMid meet"><rect width="1024" height="1024" fill="url(#checkerboard)"/><g><path d="M0 0 C337.92 0 675.84 0 1024 0 C1024 337.92 1024 675.84 1024 1024 C686.08 1024 348.16 1024 0 1024 C0 686.08 0 348.16 0 0 Z " fill="#EDF9FA" transform="translate(0,0)"/></g><g><path d="M0 0 C1.225 -0.009 2.45 -0.018 3.712 -0.028 C10.846 -0.003 17.62 0.678 24.663 1.782 C30.653 2.577 36.652 2.64 42.688 2.75 C69.17 3.233 69.17 3.233 73.188 7.25 C75.005 7.748 76.843 8.175 78.688 8.562 C86.591 10.46 93.833 12.877 99.104 19.376 C101.19 22.982 100.94 26.838 100.953 30.91 C100.976 31.864 100.998 32.818 101.022 33.801 C101.069 35.867 101.107 37.934 101.135 40 C101.188 43.301 101.284 46.598 101.393 49.898 C101.58 55.655 101.727 61.411 101.855 67.169 C101.911 69.542 101.973 71.914 102.042 74.286 C102.142 77.773 102.222 81.259 102.297 84.746 C102.348 86.327 102.348 86.327 102.401 87.941 C102.529 95.396 101.774 100.266 96.75 106.062 C92.075 110.054 89.061 110.506 82.875 110.438 C80.963 110.428 80.963 110.428 79.012 110.418 C75.313 110.256 71.836 109.84 68.188 109.25 C68.963 147.66 70.924 183.998 100.062 212.176 C123.3 234.858 124.719 262.975 125.232 293.965 C125.302 301.271 125.283 308.577 125.266 315.883 C125.263 318.293 125.26 320.703 125.257 323.114 C125.215 349.196 125.031 375.277 124.815 401.357 C124.765 407.429 124.719 413.5 124.676 419.571 C124.632 425.588 124.584 431.605 124.535 437.622 C124.515 440.11 124.496 442.598 124.478 445.086 C124.386 458.133 124.155 471.159 123.662 484.198 C123.228 495.777 123.103 507.31 123.273 518.895 C123.295 520.698 123.317 522.502 123.338 524.305 C123.382 528.019 123.432 531.733 123.484 535.448 C123.551 540.159 123.608 544.87 123.662 549.582 C123.706 553.28 123.753 556.979 123.802 560.678 C123.824 562.415 123.846 564.151 123.866 565.888 C123.982 575.497 124.316 585.042 124.968 594.628 C125.278 599.74 125.331 604.833 125.32 609.953 C125.322 611.011 125.323 612.069 125.325 613.159 C125.327 616.606 125.32 620.053 125.312 623.5 C125.31 625.293 125.31 625.293 125.308 627.123 C125.28 645.636 125.134 664.148 124.868 682.659 C124.831 685.229 124.797 687.799 124.766 690.369 C124.584 704.774 124.053 718.957 122.188 733.25 C126.477 733.58 130.767 733.91 135.188 734.25 C135.188 735.57 135.188 736.89 135.188 738.25 C132.184 739.752 129.397 739.343 126.062 739.312 C124.781 739.303 123.5 739.294 122.18 739.285 C120.699 739.268 120.699 739.268 119.188 739.25 C118.878 739.869 118.569 740.487 118.25 741.125 C117.562 742.5 116.875 743.875 116.188 745.25 C117.487 745.233 118.787 745.215 120.125 745.197 C134.499 745.067 148.728 745.752 163.062 746.75 C165.227 746.895 167.391 747.04 169.555 747.184 C174.766 747.531 179.977 747.888 185.188 748.25 C185.517 749.57 185.848 750.89 186.188 752.25 C182.725 754.559 181.302 754.523 177.211 754.594 C175.385 754.636 175.385 754.636 173.523 754.679 C172.216 754.703 170.909 754.726 169.562 754.75 C166.843 754.817 164.125 754.895 161.406 754.977 C160.719 754.997 160.033 755.017 159.325 755.038 C152.56 755.249 145.813 755.63 139.062 756.125 C137.501 756.225 137.501 756.225 135.908 756.326 C134.946 756.402 133.983 756.477 132.992 756.555 C132.157 756.616 131.321 756.678 130.46 756.742 C127.751 757.348 126.373 758.577 124.188 760.25 C122.037 760.85 122.037 760.85 119.746 761.164 C118.915 761.285 118.084 761.406 117.229 761.531 C116.369 761.645 115.51 761.758 114.625 761.875 C112.915 762.115 111.205 762.357 109.496 762.602 C108.741 762.703 107.986 762.804 107.209 762.909 C104.992 763.23 104.992 763.23 102.188 764.25 C100.289 764.325 98.39 764.396 96.49 764.439 C88.124 764.661 80.539 765.84 72.525 768.259 C57.976 772.579 43.397 773.77 28.312 774.312 C24.94 774.441 21.567 774.578 18.195 774.723 C17.355 774.758 16.515 774.793 15.65 774.829 C10.133 775.085 4.702 775.625 -0.777 776.297 C-12.392 777.663 -24.029 777.514 -35.708 777.456 C-39.476 777.438 -43.245 777.435 -47.014 777.436 C-89.853 777.377 -89.853 777.377 -105.438 774.312 C-107.439 773.946 -109.44 773.582 -111.441 773.219 C-112.367 773.047 -113.293 772.876 -114.247 772.699 C-117.614 772.11 -120.98 771.71 -124.375 771.312 C-132.339 770.235 -140.611 767.851 -147.812 764.25 C-152.619 763.995 -157.437 764.057 -162.25 764.062 C-163.316 764.062 -163.316 764.062 -164.404 764.061 C-187.024 763.925 -187.024 763.925 -209.365 766.777 C-211.729 767.234 -213.836 767.365 -216.238 767.348 C-217.034 767.344 -217.83 767.341 -218.65 767.338 C-219.467 767.33 -220.284 767.321 -221.125 767.312 C-221.961 767.308 -222.797 767.303 -223.658 767.299 C-225.71 767.287 -227.761 767.269 -229.812 767.25 C-229.317 764.775 -229.317 764.775 -228.812 762.25 C-227.606 762.164 -226.4 762.079 -225.156 761.99 C-220.697 761.673 -216.237 761.349 -211.778 761.023 C-209.844 760.883 -207.911 760.744 -205.978 760.607 C-203.205 760.41 -200.433 760.208 -197.66 760.004 C-196.79 759.943 -195.921 759.883 -195.024 759.821 C-191.096 759.885 -191.096 759.885 -187.812 758.25 C-190.123 757.92 -192.433 757.59 -194.812 757.25 C-194.812 756.26 -194.812 755.27 -194.812 754.25 C-184.066 752.777 -173.665 751.966 -162.812 752.25 C-163.142 751.59 -163.472 750.93 -163.812 750.25 C-165.854 750.223 -167.896 750.203 -169.938 750.188 C-171.643 750.17 -171.643 750.17 -173.383 750.152 C-176.641 750.245 -179.604 750.711 -182.812 751.25 C-185.726 751.46 -188.644 751.567 -191.562 751.688 C-197.184 751.957 -202.47 752.441 -207.961 753.715 C-214.614 754.963 -221.424 755.357 -228.158 755.991 C-232.464 756.411 -236.763 756.891 -241.062 757.375 C-241.843 757.463 -242.624 757.55 -243.428 757.641 C-245.223 757.843 -247.018 758.046 -248.812 758.25 C-248.483 756.93 -248.152 755.61 -247.812 754.25 C-233.256 751.201 -233.256 751.201 -227.5 750.625 C-223.994 750.489 -223.994 750.489 -221.812 749.25 C-219.837 749.045 -217.857 748.885 -215.875 748.75 C-212.582 748.526 -209.951 748.296 -206.812 747.25 C-205.369 747.051 -203.92 746.888 -202.469 746.75 C-201.218 746.626 -201.218 746.626 -199.941 746.5 C-198.189 746.333 -196.436 746.167 -194.684 746 C-193.433 745.876 -193.433 745.876 -192.156 745.75 C-191.395 745.678 -190.634 745.606 -189.85 745.531 C-187.616 745.286 -187.616 745.286 -184.812 744.25 C-182.246 744.023 -179.696 743.834 -177.125 743.688 C-176.072 743.623 -176.072 743.623 -174.998 743.557 C-173.27 743.451 -171.541 743.35 -169.812 743.25 C-170.741 741.765 -170.741 741.765 -171.688 740.25 C-177.674 728.14 -176.313 711.242 -176.812 698 C-177.425 681.889 -178.043 665.717 -180.902 649.816 C-182.016 643.618 -182.223 637.474 -182.375 631.188 C-182.436 628.988 -182.5 626.789 -182.566 624.59 C-182.59 623.635 -182.614 622.679 -182.639 621.695 C-182.778 618.94 -183.025 616.257 -183.32 613.518 C-184.092 605.235 -183.956 596.935 -183.945 588.625 C-183.946 586.782 -183.948 584.938 -183.949 583.095 C-183.952 578.165 -183.948 573.236 -183.941 568.307 C-183.937 565.247 -183.935 562.187 -183.934 559.127 C-183.917 532.575 -183.794 506.026 -183.406 479.476 C-183.375 477.315 -183.345 475.155 -183.316 472.994 C-183.261 469.028 -183.196 465.063 -183.129 461.098 C-183.112 459.942 -183.095 458.786 -183.078 457.594 C-183.058 456.544 -183.038 455.493 -183.018 454.41 C-182.995 453.05 -182.995 453.05 -182.971 451.662 C-182.812 449.25 -182.812 449.25 -182.311 447.531 C-181.635 444.436 -181.686 441.504 -181.686 438.335 C-181.684 437.64 -181.682 436.944 -181.681 436.228 C-181.677 433.898 -181.68 431.568 -181.683 429.238 C-181.682 427.567 -181.68 425.897 -181.678 424.226 C-181.673 419.689 -181.675 415.152 -181.678 410.615 C-181.681 405.871 -181.678 401.126 -181.677 396.382 C-181.675 388.415 -181.677 380.448 -181.682 372.481 C-181.688 363.264 -181.686 354.047 -181.68 344.83 C-181.676 336.922 -181.675 329.014 -181.678 321.105 C-181.679 316.38 -181.68 311.654 -181.676 306.928 C-181.673 302.487 -181.675 298.046 -181.681 293.604 C-181.682 291.972 -181.682 290.34 -181.68 288.708 C-181.677 286.484 -181.681 284.261 -181.686 282.038 C-181.686 280.792 -181.686 279.546 -181.687 278.263 C-181.676 275.2 -181.676 275.2 -182.812 272.25 C-182.153 271.26 -181.493 270.27 -180.812 269.25 C-180.314 266.414 -179.887 263.601 -179.5 260.75 C-178.355 253.225 -176.561 246.941 -172.812 240.25 C-172.394 239.437 -171.975 238.623 -171.543 237.785 C-166.538 228.655 -159.116 221.481 -151.754 214.246 C-151.051 213.553 -150.347 212.859 -149.623 212.145 C-148.247 210.795 -146.863 209.453 -145.471 208.121 C-121.86 185.062 -127.369 145.721 -126.812 115.25 C-127.803 115.745 -127.803 115.745 -128.812 116.25 C-133.466 116.769 -138.137 117.002 -142.812 117.25 C-144.504 117.351 -144.504 117.351 -146.23 117.453 C-153.94 117.721 -153.94 117.721 -157.938 115.562 C-161.693 110.931 -162.111 106.527 -162.103 100.725 C-162.11 99.985 -162.116 99.244 -162.123 98.481 C-162.142 96.042 -162.146 93.603 -162.148 91.164 C-162.155 89.462 -162.162 87.759 -162.169 86.057 C-162.181 82.491 -162.184 78.925 -162.183 75.359 C-162.183 70.801 -162.21 66.243 -162.245 61.685 C-162.267 58.169 -162.271 54.653 -162.27 51.137 C-162.272 49.457 -162.281 47.777 -162.297 46.097 C-162.316 43.742 -162.31 41.389 -162.298 39.034 C-162.31 38.347 -162.321 37.66 -162.332 36.952 C-162.263 31.589 -160.717 28.599 -157.812 24.25 C-143.216 10.283 -115.181 7.472 -96.062 6.496 C-93.007 6.361 -93.007 6.361 -90.879 5.75 C-87.553 4.945 -84.156 4.956 -80.75 4.812 C-74.59 4.516 -68.499 4.034 -62.375 3.312 C-41.703 0.986 -20.796 0.084 0 0 Z " fill="#0A0909" transform="translate(539.8125,126.75)"/></g><g><path d="M0 0 C2.241 10.499 3.394 20.71 3.621 31.451 C3.751 36.512 4.177 41.354 5.005 46.351 C6.166 54.311 6.268 62.164 6.227 70.185 C6.226 71.754 6.227 73.322 6.228 74.891 C6.229 79.103 6.217 83.314 6.203 87.526 C6.19 91.945 6.189 96.364 6.187 100.783 C6.181 109.13 6.164 117.477 6.144 125.824 C6.122 135.336 6.111 144.847 6.101 154.359 C6.08 173.906 6.045 193.453 6 213 C4.115 213.479 2.23 213.956 0.344 214.431 C-0.706 214.697 -1.755 214.963 -2.837 215.237 C-30.659 221.952 -59.398 222.318 -87.859 222.659 C-90.853 222.698 -93.846 222.746 -96.84 222.795 C-99.735 222.841 -102.63 222.881 -105.526 222.921 C-106.901 222.94 -108.276 222.96 -109.651 222.982 C-111.545 223.011 -113.439 223.032 -115.332 223.053 C-116.943 223.074 -116.943 223.074 -118.587 223.096 C-121 223 -121 223 -122 222 C-123.381 221.883 -124.769 221.833 -126.155 221.811 C-127.041 221.794 -127.928 221.777 -128.842 221.76 C-129.814 221.746 -130.787 221.733 -131.789 221.719 C-133.303 221.691 -133.303 221.691 -134.848 221.663 C-138.107 221.604 -141.366 221.552 -144.625 221.5 C-157.217 221.294 -169.803 221.064 -182.387 220.527 C-183.292 220.489 -184.197 220.452 -185.129 220.413 C-212.472 219.171 -212.472 219.171 -217 216 C-218.44 213.12 -218.296 210.488 -218.465 207.273 C-218.502 206.587 -218.54 205.901 -218.579 205.193 C-218.702 202.921 -218.82 200.648 -218.938 198.375 C-219.11 195.151 -219.285 191.927 -219.461 188.703 C-219.527 187.475 -219.527 187.475 -219.595 186.221 C-219.875 181.098 -220.191 175.979 -220.539 170.859 C-221.625 154.881 -222.327 138.945 -222.658 122.934 C-222.804 116.103 -223.021 109.313 -223.52 102.496 C-224.199 92.316 -224.15 82.136 -224.13 71.937 C-224.125 68.572 -224.13 65.207 -224.137 61.842 C-224.148 30.424 -224.148 30.424 -221.543 17.715 C-220.502 12.51 -219.784 7.248 -219 2 C-215.208 1.971 -211.417 1.953 -207.625 1.938 C-206.564 1.929 -205.503 1.921 -204.41 1.912 C-198.677 1.895 -193.083 2.101 -187.387 2.744 C-174.368 4.141 -161.138 4.097 -148.062 4.125 C-146.892 4.13 -145.721 4.134 -144.514 4.139 C-138.833 4.129 -133.211 3.971 -127.547 3.523 C-117.879 2.859 -108.209 2.713 -98.52 2.554 C-95.134 2.499 -91.748 2.438 -88.362 2.377 C-79.962 2.225 -71.561 2.081 -63.16 1.938 C-56.034 1.815 -48.908 1.69 -41.781 1.56 C-38.465 1.501 -35.148 1.447 -31.831 1.393 C-18.444 1.172 -18.444 1.172 -5.096 0.201 C-3 0 -3 0 0 0 Z " fill="#EDF9FA" transform="translate(620,483)"/></g><g><path d="M0 0 C0.921 -0.001 1.843 -0.003 2.792 -0.004 C3.8 -0.001 4.809 0.003 5.848 0.007 C6.911 0.007 7.975 0.006 9.071 0.006 C12.593 0.007 16.115 0.015 19.638 0.023 C22.077 0.024 24.517 0.026 26.956 0.027 C33.383 0.031 39.809 0.041 46.235 0.052 C52.791 0.062 59.346 0.066 65.902 0.071 C78.768 0.082 91.635 0.099 104.501 0.12 C107.823 14.718 107.823 14.718 108.126 21.96 C108.159 22.615 108.192 23.27 108.226 23.945 C108.329 25.982 108.417 28.02 108.501 30.058 C109.554 55.483 116.29 80.027 134.204 99.023 C136.429 101.054 138.629 102.606 141.189 104.183 C151.086 110.362 155.303 122.951 158.134 133.773 C160.149 142.775 159.826 151.764 159.689 160.933 C159.674 162.704 159.66 164.476 159.648 166.247 C159.615 170.539 159.563 174.829 159.501 179.12 C156.191 180.898 154.03 181.345 150.251 181.245 C149.359 181.227 148.467 181.209 147.548 181.191 C146.873 181.167 146.197 181.144 145.501 181.12 C145.065 180.24 144.63 179.359 144.181 178.452 C143.585 177.291 142.99 176.129 142.376 174.933 C141.796 173.784 141.216 172.636 140.618 171.452 C136.362 164.753 130.571 161.851 123.564 158.62 C122.733 158.232 121.902 157.843 121.045 157.442 C113.687 154.07 106.24 151.473 98.501 149.12 C97.551 148.752 96.601 148.383 95.622 148.003 C91.63 146.874 88 146.865 83.876 146.933 C82.751 146.934 82.751 146.934 81.603 146.935 C78.058 146.963 74.917 147.241 71.501 148.12 C67.843 148.421 64.185 148.628 60.521 148.839 C57.624 148.785 57.624 148.785 56.501 150.12 C55.021 150.034 53.542 149.925 52.064 149.808 C45 149.727 39.973 153.101 34.763 157.632 C33.628 158.748 32.554 159.927 31.501 161.12 C27.921 159.798 24.911 158.15 21.689 156.12 C10.296 149.892 -4.422 150.789 -17.143 150.749 C-18.689 150.74 -20.235 150.731 -21.781 150.722 C-24.995 150.705 -28.21 150.698 -31.424 150.695 C-34.677 150.69 -37.93 150.67 -41.183 150.633 C-74.69 149.748 -74.69 149.748 -104.436 163.495 C-109.016 169.324 -109.943 174.372 -109.686 181.558 C-109.673 182.289 -109.659 183.021 -109.645 183.775 C-109.61 185.557 -109.557 187.339 -109.499 189.12 C-111.54 189.148 -113.582 189.167 -115.624 189.183 C-116.761 189.194 -117.898 189.206 -119.069 189.218 C-122.316 189.125 -125.307 188.686 -128.499 188.12 C-128.506 184.123 -128.506 180.126 -128.501 176.129 C-128.499 174.228 -128.5 172.327 -128.502 170.426 C-128.456 155.016 -128.325 141.138 -121.499 127.12 C-120.997 126.036 -120.496 124.952 -119.979 123.835 C-117.236 118.342 -114.545 114.753 -109.499 111.12 C-103.506 106.134 -97.872 100.766 -92.311 95.308 C-91.531 94.565 -90.75 93.821 -89.946 93.056 C-84.751 87.94 -81.091 82.96 -78.499 76.12 C-78.112 75.103 -78.112 75.103 -77.718 74.066 C-75.224 66.795 -75.026 59.874 -74.987 52.237 C-74.969 50.942 -74.951 49.647 -74.933 48.312 C-74.886 44.902 -74.856 41.493 -74.829 38.083 C-74.799 34.59 -74.753 31.098 -74.708 27.605 C-74.622 20.777 -74.555 13.949 -74.499 7.12 C-72.125 5.933 -70.183 5.734 -67.546 5.402 C-66.542 5.274 -65.538 5.147 -64.503 5.016 C-63.429 4.886 -62.355 4.755 -61.249 4.62 C-60.147 4.486 -59.045 4.351 -57.91 4.213 C-47.853 3.008 -37.876 2.234 -27.757 1.878 C-25.925 1.814 -25.925 1.814 -24.057 1.748 C-21.588 1.664 -19.119 1.585 -16.65 1.512 C-15.513 1.476 -14.377 1.439 -13.206 1.402 C-11.666 1.356 -11.666 1.356 -10.096 1.31 C-6.573 1.053 -3.587 -0.004 0 0 Z " fill="#EDF9FA" transform="translate(495.4988250732422,244.87974548339844)"/></g><g><path d="M0 0 C0.847 47.938 1.605 95.87 0.562 143.812 C0.543 144.743 0.523 145.673 0.503 146.632 C0.446 149.24 0.383 151.849 0.316 154.457 C0.3 155.21 0.283 155.962 0.266 156.738 C0.246 157.449 0.226 158.161 0.205 158.894 C0.182 159.8 0.182 159.8 0.158 160.724 C0.019 162.732 -0.235 164.732 -0.505 166.727 C-1.052 170.993 -1.141 175.185 -1.129 179.482 C-1.131 180.29 -1.133 181.098 -1.135 181.93 C-1.139 184.586 -1.136 187.242 -1.133 189.898 C-1.133 191.775 -1.134 193.652 -1.136 195.529 C-1.137 199.468 -1.135 203.407 -1.13 207.346 C-1.125 212.314 -1.128 217.283 -1.134 222.251 C-1.154 242.855 -1.101 263.42 0 284 C-1.587 284.798 -3.174 285.594 -4.762 286.391 C-5.646 286.834 -6.53 287.278 -7.44 287.735 C-13.131 290.547 -17.596 292.076 -24 292.375 C-29.224 292.664 -33.817 293.705 -38.75 295.375 C-47.044 298.177 -55.35 299.73 -64 301 C-65.701 301.25 -65.701 301.25 -67.437 301.505 C-73.251 302.222 -79.091 302.324 -84.941 302.5 C-86.182 302.541 -87.422 302.581 -88.7 302.623 C-91.987 302.73 -95.274 302.835 -98.562 302.938 C-123.333 301.61 -123.333 301.61 -147 306 C-164.297 307.811 -195.869 311.065 -212 303 C-214.591 302.69 -217.184 302.49 -219.785 302.281 C-222 302 -222 302 -223 301 C-225.438 300.624 -227.864 300.293 -230.312 300 C-237.553 299.118 -237.553 299.118 -239.96 298.482 C-242.116 297.972 -244.06 297.842 -246.273 297.789 C-259.785 297.357 -271.868 296.467 -284 290 C-284.025 289.013 -284.05 288.026 -284.076 287.009 C-284.172 283.278 -284.271 279.547 -284.372 275.815 C-284.415 274.214 -284.457 272.612 -284.497 271.01 C-284.556 268.681 -284.62 266.352 -284.684 264.023 C-284.7 263.33 -284.717 262.637 -284.734 261.922 C-284.826 258.703 -284.956 255.502 -285.235 252.292 C-286.237 240.722 -286.133 229.168 -286.114 217.563 C-286.113 215.216 -286.113 212.869 -286.114 210.522 C-286.114 204.189 -286.108 197.855 -286.101 191.521 C-286.096 185.562 -286.095 179.602 -286.094 173.642 C-286.092 161.848 -286.085 150.053 -286.075 138.259 C-286.066 126.811 -286.059 115.363 -286.055 103.916 C-286.055 103.208 -286.054 102.501 -286.054 101.772 C-286.053 98.224 -286.052 94.676 -286.05 91.127 C-286.04 61.751 -286.022 32.376 -286 3 C-285.403 3.14 -284.806 3.28 -284.19 3.424 C-283.396 3.606 -282.601 3.789 -281.783 3.976 C-281 4.158 -280.217 4.339 -279.411 4.525 C-275.644 5.267 -271.891 5.423 -268.062 5.562 C-260.247 5.877 -260.247 5.877 -258 7 C-258.117 8.48 -258.244 9.959 -258.375 11.438 C-258.445 12.261 -258.514 13.085 -258.586 13.934 C-259 17 -259 17 -259.986 20.805 C-261.421 27.212 -261.464 33.65 -261.633 40.191 C-261.674 41.582 -261.716 42.972 -261.759 44.362 C-261.846 47.281 -261.928 50.2 -262.005 53.119 C-262.102 56.755 -262.209 60.39 -262.321 64.026 C-262.786 79.213 -263.085 94.395 -263.117 109.59 C-263.125 111.566 -263.125 111.566 -263.133 113.583 C-263.126 119.454 -263.003 125.195 -262.245 131.02 C-261.841 134.28 -261.72 137.548 -261.57 140.828 C-261.498 142.344 -261.426 143.86 -261.354 145.376 C-261.317 146.169 -261.28 146.962 -261.241 147.779 C-260.524 162.992 -259.673 178.197 -258.691 193.396 C-258.565 195.368 -258.44 197.341 -258.319 199.313 C-258.147 202.092 -257.965 204.87 -257.781 207.648 C-257.732 208.463 -257.683 209.277 -257.633 210.116 C-256.991 221.376 -256.991 221.376 -252 231 C-249.194 231.863 -246.42 232.065 -243.5 232.25 C-235.162 232.946 -235.162 232.946 -232 234 C-230.602 234.134 -229.2 234.223 -227.797 234.281 C-226.981 234.319 -226.165 234.356 -225.324 234.395 C-224.475 234.429 -223.625 234.464 -222.75 234.5 C-221.078 234.57 -219.406 234.643 -217.734 234.719 C-216.994 234.749 -216.254 234.779 -215.491 234.811 C-213 235 -213 235 -209.852 235.483 C-188.67 238.326 -166.582 237.188 -145.246 237.185 C-141.589 237.185 -137.932 237.192 -134.276 237.206 C-93.37 237.71 -93.37 237.71 -53 232 C-50.522 231.455 -48.042 230.914 -45.562 230.375 C-44.432 230.126 -43.301 229.877 -42.137 229.621 C-39.371 229.074 -36.679 228.698 -33.875 228.438 C-30.452 228.051 -28.859 227.676 -26 226 C-22.037 220.577 -22.841 211.757 -22.779 205.277 C-22.762 204.029 -22.762 204.029 -22.744 202.756 C-22.708 200.031 -22.678 197.307 -22.648 194.582 C-22.625 192.677 -22.602 190.773 -22.578 188.868 C-22.53 184.888 -22.485 180.908 -22.442 176.928 C-22.387 171.83 -22.324 166.733 -22.257 161.635 C-22.207 157.707 -22.162 153.779 -22.118 149.851 C-22.097 147.971 -22.074 146.091 -22.049 144.211 C-22.015 141.586 -21.988 138.961 -21.962 136.335 C-21.951 135.562 -21.94 134.788 -21.928 133.991 C-21.898 130.171 -22.182 126.723 -23 123 C-23.073 121.352 -23.098 119.702 -23.082 118.052 C-23.075 117.093 -23.069 116.134 -23.062 115.145 C-23.051 114.115 -23.039 113.085 -23.027 112.023 C-23.015 109.802 -23.002 107.581 -22.99 105.359 C-22.966 101.889 -22.938 98.419 -22.904 94.948 C-22.796 83.153 -22.792 71.533 -24.219 59.813 C-24.901 54.213 -25.305 48.642 -25.562 43.008 C-25.601 42.19 -25.639 41.373 -25.678 40.531 C-25.828 37.21 -25.969 33.89 -26.104 30.569 C-26.208 28.09 -26.322 25.611 -26.438 23.133 C-26.478 22.014 -26.478 22.014 -26.52 20.873 C-26.713 16.823 -27.366 13.694 -29 10 C-29.125 6.688 -29.125 6.688 -29 4 C-23.344 1.576 -18.124 0.853 -12 0.438 C-10.206 0.312 -10.206 0.312 -8.375 0.184 C-5.571 0.031 -2.806 -0.014 0 0 Z " fill="#EDF9FA" transform="translate(654,476)"/></g><g><path d="M0 0 C0.913 17.21 1.277 34.408 1.35 51.639 C1.364 54.532 1.392 57.424 1.432 60.316 C1.482 63.877 1.506 67.436 1.513 70.997 C1.523 72.973 1.557 74.95 1.592 76.926 C1.572 85.467 0.257 90.579 -5.678 96.743 C-12.097 102.898 -19.952 105.134 -28.418 107.094 C-31.093 107.77 -33.677 108.507 -36.301 109.344 C-106.513 131.743 -106.513 131.743 -128 121 C-130.118 120.905 -132.24 120.875 -134.36 120.874 C-135.015 120.872 -135.669 120.87 -136.343 120.868 C-137.772 120.864 -139.2 120.862 -140.629 120.862 C-143.714 120.858 -146.8 120.837 -149.886 120.817 C-155.619 120.779 -161.352 120.747 -167.085 120.75 C-193.287 120.748 -219.047 119.575 -244.005 110.668 C-246.345 109.885 -248.704 109.221 -251.082 108.562 C-271.855 102.8 -271.855 102.8 -276.861 95.16 C-281.751 86.067 -283.003 78.239 -282.875 67.938 C-282.882 65.891 -282.898 63.845 -282.915 61.799 C-282.93 59.792 -282.933 57.785 -282.937 55.778 C-282.994 52.362 -283.2 49.018 -283.504 45.617 C-284.208 37.476 -284.108 29.351 -284.062 21.188 C-284.057 19.609 -284.053 18.03 -284.049 16.451 C-284.038 12.634 -284.021 8.817 -284 5 C-277.878 5.384 -272.494 5.836 -266.812 8.312 C-253.318 13.423 -238.455 15.131 -224.092 15.565 C-219.723 15.735 -215.522 16.196 -211.211 16.941 C-195.851 19.583 -181.074 20.369 -165.5 20.312 C-164.513 20.31 -163.525 20.307 -162.508 20.304 C-159.682 20.292 -156.857 20.268 -154.031 20.238 C-152.752 20.227 -152.752 20.227 -151.447 20.215 C-150.26 20.196 -150.26 20.196 -149.049 20.177 C-148.361 20.167 -147.672 20.157 -146.963 20.147 C-144.878 19.991 -143.018 19.537 -141 19 C-136.325 18.393 -131.63 17.956 -126.938 17.5 C-126.25 17.432 -125.563 17.365 -124.855 17.295 C-114.058 16.245 -103.301 15.647 -92.455 15.344 C-84.921 15.119 -77.489 14.578 -70.001 13.721 C-66.15 13.287 -62.349 12.943 -58.473 12.859 C-49.04 12.646 -41.037 11.11 -32.059 8.156 C-26.51 6.351 -21.541 5.543 -15.691 5.344 C-11.456 4.803 -7.951 2.988 -4.18 1.059 C-2 0 -2 0 0 0 Z " fill="#F8A773" transform="translate(654,770)"/></g><g><path d="M0 0 C0 0.66 0 1.32 0 2 C0.598 2.268 1.196 2.536 1.812 2.812 C4.127 4.069 5.4 4.91 7 7 C7.401 9.828 7.401 9.828 7.441 13.25 C7.481 15.124 7.481 15.124 7.521 17.035 C7.535 18.344 7.549 19.652 7.562 21 C7.671 28.936 7.955 36.433 9.548 44.212 C10.44 49.713 10.328 55.254 10.312 60.812 C10.329 62 10.345 63.188 10.361 64.412 C10.367 75.051 10.367 75.051 7 80 C5.104 80.027 3.208 80.046 1.312 80.062 C-0.271 80.08 -0.271 80.08 -1.887 80.098 C-5 80 -5 80 -7.319 79.519 C-10.237 78.954 -13.04 78.749 -16.009 78.595 C-17.197 78.532 -18.386 78.469 -19.61 78.404 C-20.888 78.34 -22.165 78.276 -23.48 78.211 C-24.817 78.143 -26.154 78.075 -27.49 78.006 C-30.29 77.864 -33.09 77.725 -35.89 77.588 C-39.453 77.413 -43.015 77.228 -46.578 77.04 C-49.339 76.895 -52.101 76.758 -54.863 76.623 C-56.807 76.526 -58.751 76.422 -60.695 76.318 C-66.816 76.029 -72.659 76.016 -78.743 76.757 C-82.338 77.144 -85.905 77.085 -89.516 77.027 C-91.115 77.015 -92.714 77.002 -94.312 76.99 C-96.76 76.966 -99.207 76.938 -101.654 76.904 C-112.989 76.757 -124.067 77.34 -135.346 78.463 C-141.08 79.028 -146.819 79.424 -152.57 79.781 C-153.523 79.841 -154.477 79.902 -155.459 79.964 C-159.331 80.206 -163.204 80.445 -167.077 80.677 C-181.383 81.515 -181.383 81.515 -195.557 83.549 C-199.246 84.23 -202.956 84.577 -206.688 84.938 C-212.856 85.568 -218.909 86.469 -225 87.625 C-237.401 89.943 -237.401 89.943 -243 89 C-245.806 86.194 -245.416 83.39 -245.562 79.625 C-245.689 74.823 -245.689 74.823 -246.507 70.114 C-247.105 67.55 -247.13 65.203 -247.133 62.57 C-247.134 61.527 -247.135 60.485 -247.137 59.41 C-247.133 58.326 -247.129 57.242 -247.125 56.125 C-247.129 55.049 -247.133 53.972 -247.137 52.863 C-247.13 47.758 -246.86 43.033 -246 38 C-245.92 36.114 -245.864 34.227 -245.824 32.34 C-245.8 31.299 -245.777 30.258 -245.752 29.186 C-245.709 27.016 -245.678 24.847 -245.658 22.678 C-245.448 14.803 -245.448 14.803 -243.184 10.746 C-241 9 -241 9 -237.375 9.125 C-234 10 -234 10 -232 11 C-229.343 11.098 -226.719 11.139 -224.062 11.125 C-223.334 11.129 -222.605 11.133 -221.854 11.137 C-218.641 11.131 -216.068 11.023 -213 10 C-210.667 9.96 -208.333 9.956 -206 10 C-206 10.66 -206 11.32 -206 12 C-205.438 11.856 -204.876 11.711 -204.297 11.562 C-197.671 10.099 -191.329 9.874 -184.578 9.938 C-183.655 9.942 -182.731 9.947 -181.78 9.951 C-179.52 9.963 -177.26 9.979 -175 10 C-174.985 10.92 -174.985 10.92 -174.969 11.858 C-174.86 18.25 -174.746 24.641 -174.628 31.033 C-174.584 33.417 -174.543 35.801 -174.503 38.185 C-174.445 41.616 -174.381 45.046 -174.316 48.477 C-174.3 49.539 -174.283 50.602 -174.266 51.697 C-174.169 56.56 -174.007 61.22 -173 66 C-172.032 59.413 -171.789 52.933 -171.684 46.281 C-171.652 44.634 -171.652 44.634 -171.621 42.953 C-171.556 39.468 -171.496 35.984 -171.438 32.5 C-171.394 30.128 -171.351 27.755 -171.307 25.383 C-171.2 19.589 -171.098 13.794 -171 8 C-169.623 7.917 -169.623 7.917 -168.218 7.832 C-164.803 7.625 -161.389 7.414 -157.975 7.2 C-156.499 7.109 -155.023 7.019 -153.546 6.93 C-151.421 6.802 -149.297 6.669 -147.172 6.535 C-145.255 6.417 -145.255 6.417 -143.3 6.297 C-140.697 6.063 -138.506 5.64 -136 5 C-134.413 4.921 -132.823 4.892 -131.234 4.902 C-130.345 4.906 -129.455 4.909 -128.539 4.912 C-127.619 4.92 -126.698 4.929 -125.75 4.938 C-124.346 4.944 -124.346 4.944 -122.914 4.951 C-120.609 4.963 -118.305 4.979 -116 5 C-116.158 6.105 -116.317 7.211 -116.48 8.35 C-117.105 13.366 -117.225 18.356 -117.316 23.406 C-117.348 24.854 -117.348 24.854 -117.379 26.331 C-117.444 29.388 -117.503 32.444 -117.562 35.5 C-117.606 37.583 -117.649 39.667 -117.693 41.75 C-117.8 46.833 -117.901 51.917 -118 57 C-117.34 56.67 -116.68 56.34 -116 56 C-114.652 50.632 -114.78 45.074 -114.684 39.57 C-114.652 38.085 -114.652 38.085 -114.621 36.569 C-114.555 33.421 -114.496 30.273 -114.438 27.125 C-114.394 24.984 -114.351 22.844 -114.307 20.703 C-114.2 15.469 -114.098 10.234 -114 5 C-97.986 4.228 -82.033 3.86 -66 4 C-65.98 4.777 -65.96 5.553 -65.94 6.354 C-65.412 26.275 -64.416 46.122 -63 66 C-62.34 66 -61.68 66 -61 66 C-61 45.54 -61 25.08 -61 4 C-53.74 3.67 -46.48 3.34 -39 3 C-38.67 3.33 -38.34 3.66 -38 4 C-35.403 3.934 -32.84 3.805 -30.25 3.625 C-29.487 3.575 -28.723 3.524 -27.937 3.472 C-26.375 3.368 -24.812 3.262 -23.25 3.153 C-21.208 3.014 -19.165 2.895 -17.121 2.777 C-15.988 2.706 -14.855 2.636 -13.688 2.562 C-12.681 2.502 -11.674 2.441 -10.637 2.379 C-6.531 1.789 -4.316 0 0 0 Z " fill="#EDF9FA" transform="translate(628,146)"/></g><g><path d="M0 0 C0 20.13 0 40.26 0 61 C-31.057 68.764 -62.015 70.278 -93.859 70.659 C-96.853 70.698 -99.846 70.746 -102.84 70.795 C-105.735 70.841 -108.63 70.881 -111.526 70.921 C-112.901 70.94 -114.276 70.96 -115.651 70.982 C-117.545 71.011 -119.439 71.032 -121.332 71.053 C-122.406 71.067 -123.48 71.081 -124.587 71.096 C-127 71 -127 71 -128 70 C-129.381 69.883 -130.769 69.833 -132.155 69.811 C-133.041 69.794 -133.928 69.777 -134.842 69.76 C-135.814 69.746 -136.787 69.733 -137.789 69.719 C-138.799 69.7 -139.808 69.682 -140.848 69.663 C-144.107 69.604 -147.366 69.552 -150.625 69.5 C-163.217 69.294 -175.803 69.064 -188.387 68.527 C-189.292 68.489 -190.197 68.452 -191.129 68.413 C-218.472 67.171 -218.472 67.171 -223 64 C-224.492 61.016 -224.358 57.887 -224.535 54.605 C-224.578 53.862 -224.621 53.119 -224.665 52.353 C-224.756 50.772 -224.844 49.191 -224.93 47.61 C-225.06 45.235 -225.198 42.861 -225.338 40.486 C-226.424 21.477 -226.424 21.477 -226 14 C-223.98 11.98 -219.941 12.628 -217.16 12.5 C-216.364 12.459 -215.568 12.419 -214.748 12.377 C-212.186 12.247 -209.624 12.123 -207.062 12 C-203.72 11.836 -200.377 11.67 -197.035 11.5 C-195.818 11.438 -195.818 11.438 -194.576 11.375 C-190.677 11.17 -186.803 10.922 -182.922 10.488 C-176.243 9.752 -169.522 9.579 -162.812 9.298 C-147.802 8.665 -132.802 7.895 -117.805 7.016 C-117.057 6.972 -116.309 6.928 -115.538 6.883 C-108.017 6.442 -100.497 5.995 -92.977 5.539 C-89.424 5.325 -85.87 5.113 -82.316 4.902 C-81.625 4.861 -80.934 4.82 -80.221 4.778 C-70.457 4.203 -60.695 3.784 -50.918 3.477 C-41.129 3.166 -31.479 2.567 -21.75 1.438 C-19.287 1.162 -16.823 0.889 -14.359 0.621 C-13.323 0.502 -12.286 0.382 -11.218 0.26 C-7.49 -0.041 -3.74 0 0 0 Z " fill="#40CAB7" transform="translate(626,635)"/></g><g><path d="M0 0 C0.66 0 1.32 0 2 0 C3.168 7.485 3.218 14.937 3.273 22.5 C3.279 23.189 3.284 23.878 3.29 24.587 C3.316 28.227 3.336 31.868 3.35 35.508 C3.363 38.503 3.391 41.497 3.432 44.492 C3.482 48.133 3.506 51.772 3.513 55.413 C3.52 56.791 3.535 58.169 3.559 59.546 C3.714 68.945 2.915 74.902 -3.678 81.741 C-10.093 87.9 -17.953 90.135 -26.418 92.094 C-29.093 92.77 -31.677 93.507 -34.301 94.344 C-104.513 116.743 -104.513 116.743 -126 106 C-128.118 105.905 -130.24 105.875 -132.36 105.874 C-133.015 105.872 -133.669 105.87 -134.343 105.868 C-135.772 105.864 -137.2 105.862 -138.629 105.862 C-141.714 105.858 -144.8 105.837 -147.886 105.817 C-153.619 105.779 -159.352 105.747 -165.085 105.75 C-191.287 105.748 -217.047 104.575 -242.005 95.668 C-244.345 94.885 -246.704 94.221 -249.082 93.562 C-269.9 87.788 -269.9 87.788 -274.858 80.13 C-279.618 71.209 -281.024 64.054 -280.938 53.812 C-280.95 52.428 -280.966 51.044 -280.984 49.66 C-281.023 46.136 -281.021 42.613 -281.006 39.089 C-280.996 35.698 -281.02 32.308 -281.039 28.918 C-281.065 22.612 -281.051 16.306 -281 10 C-280.01 10.495 -280.01 10.495 -279 11 C-278.67 17.93 -278.34 24.86 -278 32 C-277.34 32 -276.68 32 -276 32 C-276 32.99 -276 33.98 -276 35 C-274.35 35.66 -272.7 36.32 -271 37 C-271 37.66 -271 38.32 -271 39 C-269.02 39.66 -267.04 40.32 -265 41 C-264.67 40.01 -264.34 39.02 -264 38 C-263.01 39.32 -262.02 40.64 -261 42 C-261.483 42.526 -261.967 43.052 -262.465 43.594 C-265.58 48.477 -264.717 54.451 -264 60 C-261.017 68.592 -256.295 76.778 -248 81 C-245.354 81.622 -242.8 82.14 -240.125 82.562 C-234.955 83.418 -230.046 84.549 -225 86 C-220.911 86.618 -217.716 86.351 -213.938 84.5 C-206.847 78.465 -200.938 71.766 -199.621 62.266 C-199.346 55.849 -200.624 51.409 -204 46 C-204.33 45.34 -204.66 44.68 -205 44 C-203.903 43.867 -202.806 43.734 -201.676 43.598 C-200.221 43.419 -198.767 43.241 -197.312 43.062 C-196.231 42.932 -196.231 42.932 -195.127 42.799 C-191.38 42.337 -187.692 41.808 -184 41 C-183.876 41.639 -183.752 42.279 -183.625 42.938 C-183.316 43.958 -183.316 43.958 -183 45 C-182.34 45.33 -181.68 45.66 -181 46 C-181 47.65 -181 49.3 -181 51 C-180.34 51 -179.68 51 -179 51 C-177.633 52.828 -177.633 52.828 -176.125 55.25 C-174.006 58.548 -171.957 61.384 -169 64 C-169.474 64.598 -169.949 65.196 -170.438 65.812 C-173.368 69.915 -173.501 74.118 -173 79 C-170.781 85.286 -166.613 88.507 -160.938 91.75 C-145.162 98.463 -121.922 95.976 -106.332 89.973 C-99.622 86.958 -94.181 83.126 -91.222 76.171 C-89.594 71.844 -88.257 67.447 -87 63 C-86.01 64.485 -86.01 64.485 -85 66 C-84.019 67.019 -83.023 68.024 -82 69 C-76.134 65.427 -76.134 65.427 -73 59.625 C-73 58.759 -73 57.893 -73 57 C-72.67 57 -72.34 57 -72 57 C-71.794 58.114 -71.587 59.227 -71.375 60.375 C-69.495 67.623 -66.221 74.205 -59.625 78.125 C-50.418 82.002 -40.085 81.128 -30.875 77.812 C-23.297 74.713 -18.634 70.436 -15.25 63 C-14.96 62.397 -14.67 61.793 -14.371 61.172 C-13.556 59.46 -12.777 57.73 -12 56 C-11.418 54.71 -11.418 54.71 -10.824 53.395 C-9.081 48.33 -8.936 42.647 -10.945 37.648 C-13.368 33.581 -16.122 30.755 -20 28 C-21.017 27.018 -22.026 26.025 -23 25 C-21.34 24.349 -19.68 23.698 -18.02 23.047 C-10.429 19.112 -3.975 11.338 -1 3.375 C-0.67 2.261 -0.34 1.148 0 0 Z " fill="#EDF9FA" transform="translate(652,785)"/></g><g><path d="M0 0 C1.225 -0.009 2.45 -0.018 3.712 -0.028 C10.846 -0.003 17.62 0.678 24.663 1.782 C30.653 2.577 36.652 2.64 42.688 2.75 C69.17 3.233 69.17 3.233 73.188 7.25 C75.005 7.748 76.843 8.175 78.688 8.562 C86.528 10.445 94.025 12.867 99.181 19.427 C101.15 22.994 100.974 26.759 101 30.75 C101.037 32.143 101.037 32.143 101.074 33.565 C101.146 36.794 101.171 40.02 101.188 43.25 C101.196 44.557 101.204 45.864 101.213 47.21 C101.261 55.89 101.245 64.57 101.188 73.25 C100.858 73.25 100.527 73.25 100.188 73.25 C99.858 76.88 99.527 80.51 99.188 84.25 C98.858 84.25 98.527 84.25 98.188 84.25 C98.139 83.078 98.09 81.906 98.039 80.699 C97.964 79.112 97.888 77.525 97.812 75.938 C97.782 75.171 97.751 74.405 97.719 73.615 C97.505 69.332 97.035 65.276 96.164 61.074 C94.591 52.96 94.899 44.697 94.973 36.461 C95.156 30.045 95.156 30.045 92.803 24.327 C91.001 22.815 91.001 22.815 88.188 21.25 C88.188 20.59 88.188 19.93 88.188 19.25 C86.583 19.956 86.583 19.956 84.945 20.676 C79.433 22.74 73.895 23.047 68.062 23.438 C66.475 23.56 66.475 23.56 64.855 23.686 C54.485 24.46 54.485 24.46 50.188 24.25 C49.857 23.92 49.528 23.59 49.188 23.25 C47.553 23.163 45.914 23.143 44.277 23.152 C42.793 23.157 42.793 23.157 41.279 23.162 C39.718 23.175 39.718 23.175 38.125 23.188 C36.558 23.194 36.558 23.194 34.959 23.201 C32.368 23.213 29.778 23.229 27.188 23.25 C27.202 23.909 27.217 24.568 27.232 25.246 C27.385 32.125 27.53 39.003 27.67 45.882 C27.723 48.446 27.778 51.011 27.836 53.575 C27.918 57.269 27.993 60.962 28.066 64.656 C28.107 66.366 28.107 66.366 28.148 68.11 C28.257 73.946 28.099 79.482 27.188 85.25 C26.528 85.25 25.868 85.25 25.188 85.25 C23.542 80.314 23.503 75.169 23.125 70 C23.036 68.778 22.946 67.557 22.854 66.298 C21.901 51.953 21.998 37.62 22.188 23.25 C21.586 23.28 20.985 23.311 20.365 23.342 C4.962 24.099 -10.391 24.384 -25.812 24.25 C-25.482 25.24 -25.153 26.23 -24.812 27.25 C-24.744 28.61 -24.733 29.973 -24.759 31.335 C-24.773 32.153 -24.786 32.971 -24.8 33.814 C-24.821 34.695 -24.842 35.576 -24.863 36.484 C-24.882 37.396 -24.901 38.307 -24.92 39.246 C-24.962 41.176 -25.007 43.106 -25.054 45.036 C-25.124 47.974 -25.179 50.913 -25.232 53.852 C-25.275 55.729 -25.319 57.607 -25.363 59.484 C-25.378 60.358 -25.393 61.231 -25.408 62.13 C-25.548 67.183 -26.199 71.454 -27.812 76.25 C-28.472 76.25 -29.132 76.25 -29.812 76.25 C-29.862 70.13 -29.898 64.011 -29.922 57.891 C-29.932 55.811 -29.946 53.732 -29.963 51.652 C-29.988 48.654 -29.999 45.655 -30.008 42.656 C-30.018 41.735 -30.028 40.814 -30.039 39.865 C-30.04 34.312 -29.385 29.581 -27.812 24.25 C-41.884 24.796 -41.884 24.796 -55.875 26.312 C-61.898 27.152 -67.732 27.365 -73.809 27.309 C-74.679 27.304 -75.549 27.3 -76.446 27.296 C-78.568 27.285 -80.69 27.268 -82.812 27.25 C-82.81 27.856 -82.808 28.463 -82.806 29.088 C-82.784 35.431 -82.769 41.774 -82.758 48.118 C-82.753 50.482 -82.746 52.845 -82.737 55.209 C-82.725 58.617 -82.719 62.025 -82.715 65.434 C-82.71 66.481 -82.705 67.528 -82.699 68.607 C-82.699 74.573 -83.036 80.333 -83.812 86.25 C-84.472 85.92 -85.132 85.59 -85.812 85.25 C-87.317 79.557 -86.939 73.57 -86.91 67.727 C-86.909 66.625 -86.907 65.524 -86.906 64.389 C-86.9 60.884 -86.888 57.38 -86.875 53.875 C-86.87 51.493 -86.865 49.112 -86.861 46.73 C-86.85 40.904 -86.834 35.077 -86.812 29.25 C-90.005 29.403 -93.198 29.559 -96.391 29.715 C-97.737 29.779 -97.737 29.779 -99.11 29.845 C-105.362 30.153 -111.588 30.579 -117.812 31.25 C-117.812 30.59 -117.812 29.93 -117.812 29.25 C-118.349 29.394 -118.885 29.539 -119.438 29.688 C-125.05 31.017 -130.443 31.469 -136.188 31.5 C-136.877 31.509 -137.567 31.518 -138.277 31.527 C-142.004 31.505 -144.611 31.167 -147.812 29.25 C-150.355 28.75 -150.355 28.75 -152.812 29.25 C-155.736 32.284 -156.202 34.535 -156.289 38.68 C-156.32 39.723 -156.351 40.765 -156.383 41.84 C-156.401 42.924 -156.419 44.008 -156.438 45.125 C-156.728 57.257 -156.728 57.257 -157.812 63.25 C-158.068 66.372 -158.223 69.497 -158.375 72.625 C-158.418 73.456 -158.461 74.288 -158.506 75.145 C-158.611 77.18 -158.712 79.215 -158.812 81.25 C-159.142 81.25 -159.473 81.25 -159.812 81.25 C-160.142 90.16 -160.473 99.07 -160.812 108.25 C-161.142 108.25 -161.473 108.25 -161.812 108.25 C-161.905 98.331 -161.976 88.413 -162.02 78.494 C-162.041 73.888 -162.069 69.282 -162.114 64.676 C-162.158 60.228 -162.182 55.78 -162.192 51.332 C-162.199 49.638 -162.214 47.944 -162.235 46.25 C-162.265 43.871 -162.268 41.493 -162.267 39.113 C-162.281 38.418 -162.295 37.723 -162.31 37.007 C-162.265 31.608 -160.74 28.623 -157.812 24.25 C-143.216 10.283 -115.181 7.472 -96.062 6.496 C-93.007 6.361 -93.007 6.361 -90.879 5.75 C-87.553 4.945 -84.156 4.956 -80.75 4.812 C-74.59 4.516 -68.499 4.034 -62.375 3.312 C-41.703 0.986 -20.796 0.084 0 0 Z " fill="#0A0909" transform="translate(539.8125,126.75)"/></g><g><path d="M0 0 C6.558 -0.372 10.654 0.98 15.672 5.23 C20.874 10.843 22.113 15.063 21.902 22.609 C21.592 26.134 21.206 27.696 18.672 30.23 C12.68 34.149 7.808 35.891 0.672 35.23 C1.238 36.062 1.804 36.893 2.387 37.75 C3.487 39.38 3.487 39.38 4.609 41.043 C5.34 42.122 6.071 43.201 6.824 44.312 C9.968 49.278 10.281 53.507 9.672 59.23 C7.809 66.921 3.985 72.491 -2.328 77.23 C-11.498 82.546 -21.042 84.452 -31.516 84.918 C-32.338 84.956 -33.16 84.995 -34.007 85.034 C-48.383 85.599 -61.232 85.064 -72.578 75.293 C-76.013 71.245 -76.708 67.523 -76.598 62.223 C-76.19 59.212 -74.794 56.857 -73.328 54.23 C-72.979 51.051 -72.979 51.051 -75.578 48.918 C-76.486 48.031 -77.393 47.144 -78.328 46.23 C-81.83 42.066 -82.971 39.057 -82.719 33.734 C-81.657 26.928 -79.261 20.163 -74.328 15.23 C-70.241 12.505 -67.125 12.622 -62.328 13.23 C-55.673 15.167 -51.179 19.607 -47.328 25.23 C-45.276 29.248 -44.328 32.664 -44.328 37.23 C-42.64 37.169 -40.952 37.08 -39.266 36.98 C-38.326 36.934 -37.386 36.888 -36.418 36.84 C-33.14 36.38 -33.14 36.38 -30.016 34.199 C-25.852 31.65 -22.16 31.768 -17.391 31.98 C-16.611 31.999 -15.832 32.017 -15.029 32.035 C-13.128 32.082 -11.228 32.154 -9.328 32.23 C-9.822 31.688 -10.316 31.145 -10.824 30.586 C-11.465 29.871 -12.106 29.155 -12.766 28.418 C-13.404 27.71 -14.042 27.003 -14.699 26.273 C-17.75 22.448 -17.721 18.51 -17.68 13.805 C-16.99 8.758 -13.924 5.775 -10.391 2.355 C-7.015 0.514 -3.774 0.374 0 0 Z " fill="#0A0909" transform="translate(554.328125,795.76953125)"/></g><g><path d="M0 0 C6.031 2.123 9.507 7.518 12.555 12.801 C14.08 17.886 13.876 22.25 13.68 27.551 C17.97 27.551 22.26 27.551 26.68 27.551 C26.185 26.416 25.69 25.282 25.18 24.113 C23.268 18.937 22.468 13.861 24.406 8.566 C26.476 4.629 28.781 1.669 32.68 -0.449 C39.148 -1.417 43.798 -0.235 49.68 2.551 C51.508 3.007 53.342 3.443 55.18 3.863 C61.857 5.624 65.625 8.7 69.617 14.238 C71.172 19.085 71.445 23.516 70.68 28.551 C67.768 33.888 64.099 35.758 58.461 37.805 C53.916 39.024 49.37 39.372 44.68 39.551 C45.319 40.479 45.958 41.407 46.617 42.363 C50.228 47.944 50.52 53.057 49.68 59.551 C46.761 68.125 41.607 76.092 33.645 80.738 C27.231 83.39 20.503 80.856 14.186 79.04 C10.84 78.085 7.718 77.348 4.242 77.176 C-1.617 76.148 -5.367 72.98 -9.051 68.398 C-10.594 66.169 -11.979 63.907 -13.32 61.551 C-14.248 59.973 -14.248 59.973 -15.195 58.363 C-17.121 51.838 -18.012 43.804 -14.797 37.621 C-14.31 36.938 -13.822 36.255 -13.32 35.551 C-13.707 35.089 -14.094 34.628 -14.492 34.152 C-20.494 26.636 -24.317 18.936 -23.801 9.113 C-23.134 5.557 -22.199 3.302 -19.625 0.734 C-13.759 -2.278 -6.282 -1.216 0 0 Z " fill="#0A0909" transform="translate(403.3203125,790.44921875)"/></g><g><path d="M0 0 C3.2 4.066 3.33 7.226 3.188 12.312 C3.147 14.194 3.147 14.194 3.105 16.113 C3.071 17.066 3.036 18.019 3 19 C3.66 18.67 4.32 18.34 5 18 C11.02 17.126 15.241 18.009 20.211 21.504 C24.577 25.155 28.315 29.534 29.441 35.234 C29.934 45.472 25.375 56.085 19.188 64.188 C13.023 70.501 2.948 74.165 -5.709 74.432 C-13.353 74.453 -19.839 74.097 -26 69 C-30.968 63.083 -33.169 58.461 -33.312 50.75 C-33.35 49.445 -33.387 48.141 -33.426 46.797 C-32.822 41.411 -30.498 38.458 -26.688 34.75 C-23.455 32.645 -20.741 31.88 -17 31 C-17 30.34 -17 29.68 -17 29 C-17.866 28.918 -18.732 28.835 -19.625 28.75 C-24.213 27.73 -27.464 26.138 -30.266 22.238 C-32.842 17.62 -34.169 13.247 -33 8 C-30.627 2.465 -27.421 -1.234 -22 -4 C-14.507 -6.117 -6.25 -4.712 0 0 Z " fill="#FA9456" transform="translate(614,792)"/></g><g><path d="M0 0 C6.165 -0.17 12.33 -0.289 18.497 -0.38 C20.968 -0.423 23.439 -0.482 25.909 -0.558 C44.912 -1.114 57.332 1.37 71.87 13.783 C73.857 15.721 74.849 17.65 75.802 20.242 C76.121 21.058 76.441 21.874 76.771 22.714 C77.302 25.179 77.302 25.179 76.302 30.179 C71.682 30.179 67.062 30.179 62.302 30.179 C62.24 28.818 62.178 27.457 62.114 26.054 C61.547 21.112 60.039 18.591 56.302 15.179 C47.85 10.723 37.607 9.678 28.353 12.292 C22.916 14.643 18.478 18.342 15.302 23.304 C14.386 25.937 13.817 28.447 13.302 31.179 C12.149 31.204 10.996 31.229 9.808 31.255 C5.445 31.351 1.082 31.451 -3.281 31.552 C-5.154 31.594 -7.026 31.636 -8.899 31.677 C-18.944 31.895 -28.962 32.202 -38.989 32.845 C-44.421 33.187 -49.82 33.301 -55.261 33.242 C-56.09 33.237 -56.92 33.233 -57.774 33.228 C-59.749 33.217 -61.724 33.199 -63.698 33.179 C-64.359 31.922 -65.013 30.661 -65.663 29.398 C-66.028 28.696 -66.393 27.994 -66.768 27.271 C-68.231 23.982 -68.268 21.721 -67.698 18.179 C-66.315 15.276 -64.616 12.753 -62.698 10.179 C-61.894 9.004 -61.894 9.004 -61.073 7.804 C-57.828 5.584 -54.703 5.272 -50.843 4.769 C-48.203 4.274 -46.135 3.61 -43.651 2.664 C-37.711 0.638 -31.867 0.602 -25.636 0.492 C-24.66 0.472 -24.66 0.472 -23.664 0.452 C-19.867 0.375 -16.069 0.317 -12.271 0.269 C-8.18 0.211 -4.091 0.114 0 0 Z " fill="#FA9456" transform="translate(457.6982421875,401.82080078125)"/></g><g><path d="M0 0 C0.152 2.34 0.152 2.34 0 5 C-1.624 6.708 -3.292 8.376 -5 10 C-5.861 12.173 -5.861 12.173 -6 14 C-6.99 13.691 -7.98 13.381 -9 13.062 C-15.203 11.32 -21.334 10.896 -27.75 10.688 C-28.838 10.65 -29.926 10.613 -31.047 10.574 C-34.672 11.097 -35.757 12.175 -38 15 C-40.082 19.164 -39.328 24.454 -39 29 C-37.328 33.84 -34.612 36.459 -31 40 C-43.151 42.589 -54.66 43.388 -67.062 43.188 C-68.719 43.172 -70.376 43.159 -72.033 43.146 C-76.022 43.114 -80.011 43.063 -84 43 C-83.523 41.541 -83.043 40.083 -82.562 38.625 C-82.296 37.813 -82.029 37.001 -81.754 36.164 C-81 34 -81 34 -80 32 C-79.504 27.7 -79.692 25.534 -81.875 21.75 C-87.855 15.605 -96.445 15.676 -104.5 15.562 C-113.066 15.608 -120.587 16.512 -127.062 22.625 C-129.622 25.763 -130.192 27.164 -129.875 31.125 C-129.338 35.68 -127.695 38.674 -125.059 42.371 C-124 44 -124 44 -124 46 C-133.57 46 -143.14 46 -153 46 C-151.02 43.69 -149.04 41.38 -147 39 C-142.899 33.338 -143.247 27.766 -144 21 C-144.886 18.198 -145.924 15.656 -147.223 13.023 C-148 11 -148 11 -147 8 C-145.463 7.909 -145.463 7.909 -143.895 7.816 C-142.534 7.732 -141.173 7.647 -139.812 7.562 C-139.139 7.523 -138.465 7.484 -137.771 7.443 C-135.065 7.272 -132.434 7.098 -129.785 6.5 C-126.086 5.836 -122.415 5.765 -118.668 5.684 C-117.851 5.663 -117.034 5.642 -116.192 5.621 C-113.524 5.555 -110.856 5.496 -108.188 5.438 C-107.28 5.416 -106.372 5.394 -105.437 5.372 C-91.477 5.042 -77.526 4.905 -63.563 5.037 C-62.338 5.045 -61.114 5.054 -59.852 5.062 C-58.256 5.08 -58.256 5.08 -56.627 5.098 C-53.889 5.119 -53.889 5.119 -51 4 C-48.456 3.843 -45.921 3.723 -43.375 3.625 C-37.286 3.344 -31.473 2.64 -25.5 1.438 C-16.965 -0.261 -8.672 -0.293 0 0 Z " fill="#FA9456" transform="translate(652,433)"/></g><g><path d="M0 0 C4.621 -0.143 4.621 -0.143 7.185 2.213 C11.418 9.425 11.933 16.893 10.872 25.088 C9.438 28.235 7.575 29.982 4.872 32.088 C4.253 32.653 3.635 33.217 2.997 33.799 C-3.732 39.228 -10.824 38.997 -19.128 39.088 C-20.27 39.104 -21.412 39.119 -22.589 39.135 C-36.967 39.225 -51.324 38.62 -65.69 38.088 C-68.359 37.991 -71.028 37.895 -73.696 37.799 C-80.174 37.565 -86.651 37.328 -93.128 37.088 C-92.554 34.221 -92.266 33.227 -90.128 31.088 C-89.485 29.019 -89.485 29.019 -89.128 27.088 C-88.076 27.398 -87.024 27.707 -85.94 28.026 C-72.457 31.361 -56.166 32.121 -43.128 27.088 C-42.138 26.758 -41.148 26.428 -40.128 26.088 C-38.144 21.703 -37.471 17.853 -38.128 13.088 C-39.858 10.178 -41.944 7.666 -44.128 5.088 C-45.133 3.758 -46.133 2.425 -47.128 1.088 C-40.847 0.945 -34.567 0.802 -28.286 0.661 C-26.152 0.613 -24.017 0.564 -21.882 0.515 C-18.806 0.445 -15.731 0.376 -12.655 0.307 C-11.707 0.285 -10.759 0.263 -9.782 0.241 C-8.019 0.201 -6.255 0.166 -4.491 0.135 C-2.994 0.105 -1.497 0.062 0 0 Z " fill="#FA9456" transform="translate(494.1278991699219,441.911865234375)"/></g><g><path d="M0 0 C4.548 2.282 7.832 6.038 9.562 10.871 C10.517 15.515 10.837 20.329 10 25 C7.865 27.661 6.789 28.827 3.438 29.562 C1 29 1 29 -0.75 27 C-2.308 23.262 -2.597 20.025 -3 16 C-4.155 14.618 -4.155 14.618 -7.312 14.875 C-10.937 15.586 -10.937 15.586 -12.224 17.622 C-15.372 24.435 -15.506 30.579 -15.312 38 C-15.303 39.143 -15.293 40.287 -15.283 41.465 C-15.691 46.59 -15.691 46.59 -14 51 C-10.414 50.992 -6.841 50.921 -3.258 50.785 C2.588 50.675 2.588 50.675 4.725 52.36 C6 54 6 54 6.375 56.5 C5.911 59.592 5.478 60.126 3 62 C0.422 62.842 -2.061 63.557 -4.688 64.188 C-5.389 64.365 -6.091 64.542 -6.814 64.725 C-8.541 65.159 -10.27 65.581 -12 66 C-12.161 72.629 -11.562 78.779 -10.5 85.312 C-8.049 101.417 -8.049 101.417 -9 108 C-11 110 -11 110 -13.438 110.438 C-16 110 -16 110 -17.566 107.824 C-21.514 100.046 -22.31 90.549 -23.688 82 C-23.819 81.187 -23.95 80.374 -24.086 79.537 C-24.686 75.655 -25.167 71.942 -25 68 C-25.675 68.046 -26.351 68.093 -27.047 68.141 C-34.256 68.432 -34.256 68.432 -37.688 66.438 C-39.58 62.923 -39.032 60.785 -38 57 C-36.938 55.125 -36.938 55.125 -35 54 C-32.319 53.465 -29.736 53.224 -27 53 C-27.153 52.081 -27.307 51.162 -27.465 50.215 C-29.707 34.229 -29.738 19.399 -20 6 C-14.689 -0.474 -8.094 -1.657 0 0 Z " fill="#0A0909" transform="translate(445,523)"/></g><g><path d="M0 0 C5.413 1.46 10.108 4.292 14.898 7.125 C15.894 7.713 15.894 7.713 16.909 8.312 C20.014 10.21 21.915 11.556 23.961 14.625 C25.17 22.262 24.083 27.996 19.746 34.363 C16.137 38.936 12.492 43.425 6.961 45.625 C1.079 45.429 -4.516 44.157 -10.227 42.812 C-10.904 42.66 -11.581 42.507 -12.278 42.349 C-21.123 40.156 -26.324 35.037 -31.305 27.781 C-34.438 22.397 -35.096 16.76 -34.039 10.625 C-32.832 8.32 -32.832 8.32 -31.039 6.625 C-28.656 6.227 -28.656 6.227 -25.914 6.25 C-21.411 6.031 -19.011 5.28 -15.414 2.562 C-10.142 -1.34 -6.257 -1.151 0 0 Z " fill="#FA9456" transform="translate(425.0390625,822.375)"/></g><g><path d="M0 0 C2 2 2 2 2.457 4.773 C1.855 9.027 -0.244 10.886 -3.312 13.625 C-8.211 17.867 -8.211 17.867 -12 23 C-12.106 28.856 -8.926 31.989 -5.188 36.062 C-4.118 37.261 -3.049 38.46 -1.98 39.66 C-1.216 40.513 -1.216 40.513 -0.437 41.384 C4.884 47.37 4.884 47.37 5.562 51.062 C5 54 5 54 2.875 56.438 C0 58 0 58 -3 58.062 C-9.524 55.752 -13.804 48.705 -17.982 43.377 C-19.516 41.448 -19.516 41.448 -22 39 C-23.32 39 -24.64 39 -26 39 C-27.822 41.309 -29.344 43.509 -30.875 46 C-31.762 47.377 -32.65 48.753 -33.539 50.129 C-34.36 51.419 -35.181 52.709 -36 54 C-40.951 61.753 -40.951 61.753 -45.188 62.75 C-48 62 -48 62 -49.938 60.375 C-51.378 57.155 -50.818 55.405 -50 52 C-48.601 49.363 -48.601 49.363 -46.84 46.742 C-46.211 45.787 -45.583 44.832 -44.936 43.848 C-44.276 42.867 -43.617 41.886 -42.938 40.875 C-41.626 38.92 -40.322 36.959 -39.027 34.992 C-38.447 34.13 -37.867 33.267 -37.269 32.378 C-35.686 29.861 -35.686 29.861 -36 26 C-37.643 23.508 -37.643 23.508 -39.812 21.062 C-46.85 12.769 -46.85 12.769 -47.312 7.312 C-47 4 -47 4 -45 2 C-42.16 1.582 -42.16 1.582 -39 2 C-36.621 4.012 -36.621 4.012 -34.438 6.688 C-33.674 7.596 -32.911 8.505 -32.125 9.441 C-31.424 10.286 -30.723 11.13 -30 12 C-28.372 13.715 -26.699 15.355 -25 17 C-21.752 15.603 -19.886 14.014 -17.625 11.312 C-17.026 10.606 -16.426 9.9 -15.809 9.172 C-15.212 8.455 -14.615 7.738 -14 7 C-12.899 5.685 -11.795 4.373 -10.688 3.062 C-10.217 2.497 -9.746 1.931 -9.262 1.348 C-6.349 -1.764 -3.89 -0.891 0 0 Z " fill="#0A0909" transform="translate(537,568)"/></g><g><path d="M0 0 C3.2 4.066 3.33 7.226 3.188 12.312 C3.147 14.194 3.147 14.194 3.105 16.113 C3.071 17.066 3.036 18.019 3 19 C3.66 18.67 4.32 18.34 5 18 C11.02 17.126 15.241 18.009 20.211 21.504 C24.577 25.155 28.315 29.534 29.441 35.234 C29.934 45.472 25.375 56.085 19.188 64.188 C13.023 70.501 2.948 74.165 -5.709 74.432 C-13.353 74.453 -19.839 74.097 -26 69 C-30.968 63.083 -33.169 58.461 -33.312 50.75 C-33.35 49.445 -33.387 48.141 -33.426 46.797 C-32.822 41.411 -30.498 38.458 -26.688 34.75 C-23.455 32.645 -20.741 31.88 -17 31 C-17 30.34 -17 29.68 -17 29 C-17.866 28.918 -18.732 28.835 -19.625 28.75 C-24.213 27.73 -27.464 26.138 -30.266 22.238 C-32.842 17.62 -34.169 13.247 -33 8 C-30.627 2.465 -27.421 -1.234 -22 -4 C-14.507 -6.117 -6.25 -4.712 0 0 Z M-6.922 28.969 C-11.147 31.757 -15.562 33.887 -20.156 35.984 C-25.483 38.437 -25.483 38.437 -29 43 C-30.786 48.684 -31.043 54.913 -28.375 60.25 C-23.552 65.835 -18.969 69.548 -11.434 70.406 C0.401 70.684 8.896 68.02 18 60 C19.705 57.505 20.807 54.772 22 52 C22.375 51.176 22.75 50.353 23.137 49.504 C25.514 44.024 27.537 39.076 25.305 33.156 C23.083 28.75 20.39 26.378 16 24 C6.384 21.195 1.139 23.609 -6.922 28.969 Z " fill="#0A0909" transform="translate(614,792)"/></g><g><path d="M0 0 C1.288 0.01 2.577 0.021 3.904 0.032 C4.932 0.036 4.932 0.036 5.98 0.04 C8.171 0.052 10.362 0.077 12.552 0.102 C14.037 0.112 15.521 0.121 17.005 0.129 C20.646 0.151 24.287 0.186 27.927 0.227 C27.927 0.887 27.927 1.547 27.927 2.227 C29.719 2.281 31.51 2.32 33.302 2.352 C34.3 2.375 35.298 2.398 36.326 2.422 C39.09 2.499 39.09 2.499 40.927 0.227 C43.371 0.156 45.679 0.208 48.111 0.364 C48.834 0.403 49.558 0.442 50.303 0.482 C52.658 0.614 55.011 0.763 57.365 0.915 C58.159 0.963 58.954 1.011 59.773 1.061 C90.321 2.925 90.321 2.925 99.927 7.227 C99.927 7.887 99.927 8.547 99.927 9.227 C97.947 9.227 95.967 9.227 93.927 9.227 C93.927 8.567 93.927 7.907 93.927 7.227 C93.045 7.232 92.162 7.238 91.253 7.243 C87.963 7.26 84.674 7.273 81.385 7.282 C79.964 7.287 78.543 7.294 77.122 7.302 C75.074 7.315 73.026 7.32 70.978 7.325 C69.747 7.33 68.517 7.335 67.249 7.341 C64.335 7.241 61.77 6.805 58.927 6.227 C58.597 6.557 58.267 6.887 57.927 7.227 C49.546 7.639 49.546 7.639 45.927 5.227 C45.927 6.217 45.927 7.207 45.927 8.227 C40.003 9.05 34.156 9.469 28.181 9.692 C26.27 9.771 24.36 9.849 22.449 9.928 C19.499 10.046 16.55 10.162 13.6 10.277 C2.796 10.7 -7.955 11.271 -18.725 12.231 C-29.153 13.136 -39.559 13.534 -50.018 13.79 C-50.798 13.809 -51.577 13.828 -52.38 13.848 C-58.811 14.003 -65.242 14.144 -71.673 14.279 C-76.524 14.381 -81.374 14.491 -86.225 14.611 C-88.464 14.663 -90.704 14.705 -92.943 14.747 C-94.317 14.78 -95.691 14.814 -97.065 14.848 C-98.254 14.873 -99.442 14.898 -100.666 14.924 C-104.338 15.251 -107.555 16.15 -111.073 17.227 C-113.725 17.422 -113.725 17.422 -116.01 17.352 C-117.168 17.325 -117.168 17.325 -118.35 17.297 C-118.919 17.274 -119.487 17.251 -120.073 17.227 C-120.073 16.237 -120.073 15.247 -120.073 14.227 C-111.377 9.82 -101.869 8.38 -92.35 6.781 C-89.904 6.367 -87.467 5.931 -85.028 5.48 C-71.722 3.108 -58.5 2.483 -45.01 2.04 C-42.821 1.958 -40.631 1.875 -38.442 1.792 C-29.314 1.453 -20.208 1.168 -11.073 1.227 C-12.063 1.887 -13.053 2.547 -14.073 3.227 C-14.403 4.217 -14.733 5.207 -15.073 6.227 C-4.678 5.732 -4.678 5.732 5.927 5.227 C6.257 4.567 6.587 3.907 6.927 3.227 C2.967 2.897 -0.993 2.567 -5.073 2.227 C-3.073 0.227 -3.073 0.227 0 0 Z " fill="#F4F4F4" transform="translate(517.07275390625,135.77294921875)"/></g><g><path d="M0 0 C6.6 0.6 6.6 0.6 9 3 C10.021 9.532 6.464 13.825 3.111 19.078 C1.144 22.325 -0.002 24.26 0.008 28.121 C1.14 31.406 2.606 34.111 4.438 37.062 C10.852 47.468 10.852 47.468 10 54 C7.936 56.37 6.748 56.941 3.625 57.188 C-0.57 55.29 -2.452 51.722 -5 48 C-6.118 46.495 -7.243 44.995 -8.375 43.5 C-9.25 42.333 -10.125 41.167 -11 40 C-14.311 41.104 -14.625 41.517 -16.41 44.309 C-17.059 45.305 -17.059 45.305 -17.721 46.322 C-18.163 47.02 -18.606 47.718 -19.062 48.438 C-19.947 49.812 -20.834 51.186 -21.723 52.559 C-22.112 53.17 -22.501 53.782 -22.903 54.412 C-24 56 -24 56 -26 58 C-29.625 57.625 -29.625 57.625 -33 57 C-34.129 53.305 -34.533 51.202 -32.941 47.612 C-31.364 44.959 -29.713 42.38 -28 39.812 C-26.843 38.055 -25.697 36.291 -24.562 34.52 C-24.048 33.747 -23.534 32.975 -23.004 32.179 C-21.824 30.082 -21.824 30.082 -22.158 27.915 C-23.122 25.722 -24.179 24.491 -25.906 22.836 C-26.485 22.271 -27.064 21.707 -27.66 21.125 C-28.267 20.548 -28.874 19.97 -29.5 19.375 C-30.7 18.218 -31.898 17.06 -33.094 15.898 C-33.627 15.39 -34.16 14.881 -34.709 14.357 C-36.769 12.191 -36.998 11.034 -37.188 8 C-37 5 -37 5 -35 3 C-31.692 2.35 -30.169 2.126 -27 3 C-24.253 4.987 -21.902 7.161 -19.492 9.543 C-16.78 12.216 -13.949 14.594 -11 17 C-10.702 16.521 -10.405 16.041 -10.098 15.547 C-8.754 13.385 -7.408 11.224 -6.062 9.062 C-5.594 8.308 -5.125 7.553 -4.643 6.775 C-4.195 6.057 -3.747 5.338 -3.285 4.598 C-2.871 3.933 -2.458 3.268 -2.031 2.582 C-1 1 -1 1 0 0 Z " fill="#0A0909" transform="translate(587,567)"/></g><g><path d="M0 0 C12.282 -0.732 24.357 4.379 34.844 10.191 C35.983 10.762 37.123 11.334 38.297 11.922 C49.626 17.675 49.626 17.675 52.844 23.191 C53.719 27.004 53.719 27.004 53.844 30.191 C51.199 32.836 43.756 31.466 39.963 31.487 C37.814 31.504 35.666 31.547 33.518 31.592 C21.292 31.73 21.292 31.73 15.556 28.187 C12.585 26.459 9.304 25.998 5.969 25.316 C-2.283 23.427 -9.35 20.468 -15.281 14.191 C-17.429 10.755 -17.933 9.161 -17.156 5.191 C-15.844 2.879 -15.844 2.879 -13.156 1.191 C-8.787 0.345 -4.416 0.392 0 0 Z " fill="#FA9456" transform="translate(581.15625,396.80859375)"/></g><g><path d="M0 0 C2.293 1.729 4.098 3.471 5.961 5.652 C6.542 6.321 7.124 6.99 7.723 7.68 C11.055 12.053 11.9 15.17 11.273 20.715 C9.472 25.732 7.374 29.687 3.461 33.34 C-1.441 35.455 -5.599 35.424 -10.727 33.715 C-12.663 33.614 -14.601 33.533 -16.539 33.465 C-22.396 33.005 -24.88 32.153 -28.727 27.715 C-31.51 23.632 -32.388 19.957 -32.199 15.086 C-31.015 9.145 -26.997 4.31 -22.289 0.652 C-16.167 -2.776 -6.277 -2.958 0 0 Z " fill="#FA9456" transform="translate(549.7265625,833.28515625)"/></g><g><path d="M0 0 C0 4.95 0 9.9 0 15 C-0.66 15 -1.32 15 -2 15 C-2.103 15.722 -2.206 16.444 -2.312 17.188 C-4.249 25.109 -11.645 33.975 -18.25 38.625 C-22.737 40.869 -26.843 41.122 -31.812 41.062 C-32.788 41.053 -33.764 41.044 -34.77 41.035 C-35.874 41.018 -35.874 41.018 -37 41 C-37.049 40.047 -37.098 39.095 -37.148 38.113 C-37.223 36.859 -37.298 35.605 -37.375 34.312 C-37.445 33.071 -37.514 31.83 -37.586 30.551 C-37.968 27.278 -38.479 24.907 -40 22 C-42.329 20.802 -42.329 20.802 -45 20 C-45.763 19.484 -46.526 18.969 -47.312 18.438 C-50.918 16.509 -53.938 16.344 -58 16 C-57.67 15.34 -57.34 14.68 -57 14 C-54.637 13.474 -52.326 13.056 -49.938 12.688 C-44.013 11.695 -38.438 10.299 -32.75 8.375 C-27.042 6.453 -21.841 5.634 -15.832 5.379 C-11.536 4.804 -8.009 3.018 -4.18 1.059 C-2 0 -2 0 0 0 Z " fill="#FBC49D" transform="translate(654,770)"/></g><g><path d="M0 0 C1.23 -0.037 2.46 -0.073 3.727 -0.111 C12.369 -0.153 18.459 1.457 25.5 6.562 C29.526 10.78 30.902 13.681 30.859 19.59 C30.5 21.562 30.5 21.562 28.125 24 C23.858 26.54 20.75 26.752 15.859 26.801 C15.1 26.809 14.34 26.817 13.557 26.825 C11.946 26.839 10.336 26.85 8.725 26.858 C6.273 26.875 3.823 26.919 1.371 26.963 C-0.195 26.973 -1.762 26.982 -3.328 26.988 C-4.421 27.015 -4.421 27.015 -5.535 27.041 C-10.674 27.02 -13.541 25.79 -17.5 22.562 C-20.169 19.065 -21.5 15.984 -21.5 11.562 C-20.149 8.651 -18.465 6.095 -16.5 3.562 C-16.1 3.04 -15.7 2.518 -15.288 1.979 C-11.302 -1.18 -4.861 0.007 0 0 Z " fill="#FA9456" transform="translate(422.5,441.4375)"/></g><g><path d="M0 0 C-0.035 0.736 -0.07 1.472 -0.105 2.23 C-0.538 9.736 -0.538 9.736 3 16 C11.058 22.46 19.918 25.956 30.066 27.508 C30.704 27.67 31.343 27.833 32 28 C32.495 28.99 32.495 28.99 33 30 C32.144 30.02 31.287 30.04 30.405 30.06 C27.18 30.139 23.956 30.226 20.732 30.317 C19.345 30.355 17.959 30.39 16.572 30.422 C9.289 30.59 2.282 30.935 -4.841 32.568 C-8.153 33.231 -11.248 33.191 -14.625 33.125 C-15.834 33.107 -17.043 33.089 -18.289 33.07 C-19.184 33.047 -20.078 33.024 -21 33 C-21.459 31.987 -21.918 30.974 -22.391 29.93 C-23.01 28.578 -23.63 27.226 -24.25 25.875 C-24.55 25.21 -24.851 24.545 -25.16 23.859 C-26.657 20.61 -28.197 17.601 -30.254 14.668 C-32 12 -32 12 -31.688 9.438 C-27.874 3.929 -23.667 1.871 -17.25 0.688 C-11.489 -0.091 -5.804 -0.206 0 0 Z " fill="#FA9456" transform="translate(562,399)"/></g><g><path d="M0 0 C1.031 0.206 2.062 0.413 3.125 0.625 C2.674 3.254 2.18 5.505 1.062 7.938 C-0.785 13.234 -0.53 17.778 1.75 22.812 C4.621 27.862 7.536 30.885 13.145 32.488 C15.291 32.985 17.448 33.441 19.613 33.852 C20.857 34.234 20.857 34.234 22.125 34.625 C22.455 35.615 22.785 36.605 23.125 37.625 C15.42 39.707 8.146 39.959 0.188 39.938 C-1.024 39.954 -2.235 39.97 -3.482 39.986 C-13.159 39.992 -22.197 39.023 -29.875 32.625 C-32.385 29.586 -33.711 27.502 -34.438 23.625 C-33.844 20.46 -33.003 18.159 -30.828 15.734 C-27.183 13.664 -23.042 14.475 -18.969 14.641 C-15.737 14.813 -15.737 14.813 -12.438 13.25 C-9.94 10.692 -8.631 8.489 -6.938 5.375 C-4.355 0.702 -4.355 0.702 0 0 Z " fill="#FA9456" transform="translate(514.875,836.375)"/></g><g><path d="M0 0 C5.995 -0.268 10.277 0.836 15.285 4.199 C17.588 6.502 17.651 7.061 17.785 10.199 C17.698 16.194 14.513 21.971 10.285 26.199 C5.71 26.538 1.122 26.524 -3.465 26.574 C-5.398 26.63 -5.398 26.63 -7.371 26.688 C-8.614 26.699 -9.856 26.711 -11.137 26.723 C-12.277 26.742 -13.418 26.762 -14.593 26.783 C-18.666 26.021 -20.064 24.3 -22.715 21.199 C-23.478 20.436 -24.241 19.673 -25.027 18.887 C-27 15.745 -27.367 13.785 -27.16 10.129 C-26.36 6.66 -24.527 5.233 -21.715 3.199 C-14.814 0.383 -7.348 0.539 0 0 Z " fill="#FA9456" transform="translate(551.71484375,451.80078125)"/></g><g><path d="M0 0 C1.337 0.659 2.67 1.326 4 2 C6.156 2.304 6.156 2.304 8.375 2.375 C13.873 2.933 17.091 4.731 20.699 9.02 C23.32 12.605 24.872 15.361 25.75 19.75 C24.69 24.344 22.857 25.378 19 28 C15.792 29.604 12.333 29.226 8.812 29.25 C8.069 29.271 7.326 29.291 6.561 29.312 C-1.526 29.369 -7.226 26.639 -13 21 C-15.565 15.781 -15.796 10.707 -15 5 C-11.482 -0.981 -6.352 -0.981 0 0 Z " fill="#FA9456" transform="translate(446,795)"/></g><g><path d="M0 0 C4.39 2.425 7.19 5.21 9.156 9.844 C10.753 15.75 10.758 21.131 8.094 26.656 C4.502 30.54 1.757 32.309 -3.531 32.781 C-8.514 32.623 -11.055 30.448 -14.488 27.008 C-15.059 26.397 -15.63 25.786 -16.219 25.156 C-17.044 24.393 -17.869 23.63 -18.719 22.844 C-21.053 18.661 -20.922 14.83 -20.219 10.156 C-18.922 6.038 -17.221 3.073 -14.031 0.156 C-9.218 -1.555 -4.832 -1.837 0 0 Z " fill="#FA9456" transform="translate(496.21875,814.84375)"/></g><g><path d="M0 0 C1.476 0.036 2.952 0.07 4.429 0.102 C13.099 0.295 21.485 0.972 30.004 2.681 C30.334 4.001 30.664 5.321 31.004 6.681 C28.171 6.708 25.338 6.728 22.504 6.743 C21.317 6.756 21.317 6.756 20.106 6.768 C19.319 6.772 18.533 6.775 17.723 6.778 C17.011 6.783 16.299 6.789 15.565 6.794 C13.004 6.681 13.004 6.681 9.58 6.185 C3.438 5.385 -2.738 5.518 -8.922 5.513 C-10.296 5.509 -11.671 5.505 -13.046 5.5 C-16.711 5.491 -20.376 5.49 -24.041 5.492 C-26.31 5.493 -28.579 5.493 -30.849 5.492 C-49.727 5.493 -68.574 5.688 -87.433 6.618 C-88.773 6.683 -88.773 6.683 -90.14 6.75 C-92.612 6.874 -95.083 7.007 -97.554 7.145 C-98.615 7.203 -98.615 7.203 -99.697 7.262 C-102.921 7.462 -105.878 7.871 -108.996 8.681 C-110.8 8.825 -112.609 8.927 -114.418 8.997 C-115.442 9.039 -116.467 9.081 -117.523 9.124 C-118.587 9.163 -119.65 9.203 -120.746 9.243 C-122.364 9.308 -122.364 9.308 -124.015 9.374 C-126.675 9.48 -129.335 9.582 -131.996 9.681 C-131.121 5.806 -131.121 5.806 -129.996 4.681 C-123.981 3.743 -118.01 3.462 -111.933 3.243 C-105.887 2.997 -99.98 2.632 -93.996 1.681 C-63.392 -2.734 -30.848 -0.762 0 0 Z " fill="#151514" transform="translate(561.9957885742188,258.31939697265625)"/></g><g><path d="M0 0 C5.549 -0.617 5.549 -0.617 8 0 C11.064 3.191 11.394 5.599 11.477 9.945 C11.507 11.105 11.538 12.266 11.57 13.461 C11.597 15.275 11.597 15.275 11.625 17.125 C11.677 19.503 11.731 21.88 11.789 24.258 C11.817 25.406 11.844 26.554 11.873 27.737 C12.017 31.449 12.367 35.107 12.777 38.797 C13.1 41.992 13.169 45.165 13.188 48.375 C13.202 49.538 13.216 50.7 13.23 51.898 C13.007 54.899 12.789 56.596 11 59 C7.375 59.75 7.375 59.75 4 60 C1.634 56.444 0.5 53.592 -0.125 49.375 C-0.272 48.434 -0.419 47.493 -0.57 46.523 C-1.773 36.659 -2.182 26.94 -2.188 17 C-2.2 15.692 -2.212 14.383 -2.225 13.035 C-2.227 11.786 -2.228 10.537 -2.23 9.25 C-2.235 8.121 -2.239 6.992 -2.243 5.828 C-2 3 -2 3 0 0 Z " fill="#0A0909" transform="translate(464,570)"/></g><g><path d="M0 0 C4.507 2.135 7.174 4.918 10 9 C11.729 14.187 11.604 19.118 9.938 24.312 C6.804 28.659 3.259 30.519 -1.938 31.625 C-7.524 30.485 -11.306 27.339 -14.621 22.762 C-17.865 17.001 -19.781 10.557 -18 4 C-12.882 -1.483 -7.015 -0.875 0 0 Z " fill="#FA9456" transform="translate(402,794)"/></g><g><path d="M0 0 C0.826 0.002 1.652 0.004 2.503 0.006 C3.413 0.005 4.324 0.004 5.262 0.004 C6.212 0.024 7.161 0.044 8.139 0.064 C9.077 0.057 10.015 0.05 10.981 0.043 C17.25 0.1 21.875 0.845 26.702 5.189 C28.935 9.78 28.185 14.668 26.889 19.439 C25.827 22.502 25.827 22.502 24.827 23.502 C21.963 23.85 19.14 24.112 16.264 24.314 C15.477 24.391 14.69 24.468 13.88 24.547 C7.957 24.952 3.723 23.938 -1.173 20.502 C-4.249 17.048 -5.397 12.821 -5.611 8.252 C-5.123 4.074 -4.444 1.026 0 0 Z " fill="#FA9456" transform="translate(620.173095703125,446.498291015625)"/></g><g><path d="M0 0 C0.577 0.351 1.155 0.701 1.75 1.062 C3.911 2.255 3.911 2.255 5.812 1.375 C8.971 0.834 10.703 2.378 13.316 4.008 C15.17 5.1 16.876 5.66 19 6 C19 6.66 19 7.32 19 8 C18.325 8.303 17.649 8.606 16.953 8.918 C11.041 11.695 7.011 13.978 4 20 C3.802 23.343 3.682 26.684 3.574 30.031 C3 33 3 33 1.223 34.242 C0.122 34.617 0.122 34.617 -1 35 C-2.426 35.859 -3.843 36.734 -5.25 37.625 C-5.956 38.071 -6.663 38.517 -7.391 38.977 C-7.922 39.314 -8.453 39.652 -9 40 C-9.99 38.68 -10.98 37.36 -12 36 C-12.99 36.495 -12.99 36.495 -14 37 C-14.186 35.721 -14.371 34.442 -14.562 33.125 C-15.686 27.873 -18.308 24.279 -21.539 20.066 C-23 18 -23 18 -23 16 C-22.348 15.89 -21.695 15.781 -21.023 15.668 C-15.851 14.73 -11.65 13.558 -7 11 C-6.34 11 -5.68 11 -5 11 C-4.67 10.01 -4.34 9.02 -4 8 C-3.01 7.34 -2.02 6.68 -1 6 C-0.267 2.934 -0.267 2.934 0 0 Z " fill="#F7CBAE" transform="translate(578,815)"/></g><g><path d="M0 0 C3.387 3.882 4.838 7.253 5.312 12.375 C4.945 16.638 4.031 18.053 1 21 C-3.517 23.712 -7.869 23.737 -13 23 C-18.406 20.937 -23.6 17.717 -27 13 C-27.976 8.719 -27.53 5.87 -25.25 2.125 C-18.63 -4.127 -8.113 -3.108 0 0 Z " fill="#FA9456" transform="translate(568,803)"/></g><g><path d="M0 0 C3.29 1.238 5.391 2.781 7 6 C7.122 7.789 7.175 9.582 7.188 11.375 C7.202 12.331 7.216 13.288 7.23 14.273 C6.989 17.129 6.604 18.644 5 21 C0.909 24.365 -3.332 26.462 -8.688 26.062 C-13.906 25.088 -17.47 22.836 -20.875 18.75 C-22.387 15.054 -22.583 11.939 -22 8 C-18.003 -1.467 -8.949 -0.975 0 0 Z " fill="#FA9456" transform="translate(607,792)"/></g><g><path d="M0 0 C3 0.438 3 0.438 4.672 1.547 C6.682 4.408 6.322 6.646 6.25 10.125 C6.23 11.183 6.23 11.183 6.21 12.262 C6.175 13.948 6.132 15.634 6.083 17.319 C6.002 20.344 5.951 23.368 5.906 26.393 C5.859 29.284 5.798 32.174 5.734 35.064 C5.703 36.519 5.677 37.973 5.655 39.427 C5.621 41.5 5.569 43.572 5.512 45.645 C5.486 46.856 5.459 48.067 5.432 49.316 C4.971 52.65 4.374 54.089 2 56.438 C-0.5 56.938 -0.5 56.938 -3 56.438 C-5.721 53.55 -6.377 51.565 -6.388 47.641 C-6.398 46.693 -6.407 45.745 -6.417 44.769 C-6.411 43.752 -6.405 42.735 -6.398 41.688 C-6.401 40.637 -6.404 39.587 -6.407 38.505 C-6.409 36.286 -6.404 34.067 -6.391 31.848 C-6.375 28.45 -6.391 25.054 -6.41 21.656 C-6.408 19.5 -6.404 17.344 -6.398 15.188 C-6.405 14.171 -6.411 13.154 -6.417 12.106 C-6.407 11.159 -6.398 10.211 -6.388 9.234 C-6.386 8.403 -6.383 7.571 -6.381 6.714 C-5.685 2.554 -4.175 0.609 0 0 Z " fill="#0A0909" transform="translate(612,566.5625)"/></g><g><path d="M0 0 C0.793 2.277 0.793 2.277 1.188 4.938 C1.636 7.781 2.086 10.258 3 13 C3.66 13 4.32 13 5 13 C4.527 17.255 2.075 19.225 -1 22 C-6.356 24.678 -15.458 23.669 -21.188 22.188 C-25.585 20.331 -25.585 20.331 -27 18 C-27.461 13.166 -26.649 10.714 -23.812 6.812 C-23.221 5.973 -22.629 5.134 -22.02 4.27 C-16.729 -1.676 -7.083 -4.951 0 0 Z " fill="#FA9456" transform="translate(398,454)"/></g><g><path d="M0 0 C3.188 1.812 3.188 1.812 5 4 C5.438 7.125 5.438 7.125 5 10 C0.543 14.457 -8.392 13.062 -14.32 13.098 C-16.922 13.091 -19.523 13.079 -22.125 13.062 C-23.477 13.057 -24.828 13.053 -26.18 13.049 C-29.453 13.037 -32.727 13.021 -36 13 C-36.436 6.548 -36.436 6.548 -34.496 4.109 C-22.739 -3.655 -13.331 -4.994 0 0 Z " fill="#FA9456" transform="translate(512,420)"/></g><g><path d="M0 0 C1.671 0.005 3.341 0.01 5.012 0.014 C9.05 0.025 13.087 0.042 17.125 0.062 C16.795 1.053 16.465 2.043 16.125 3.062 C14.993 3.123 13.861 3.184 12.695 3.246 C11.214 3.33 9.732 3.415 8.25 3.5 C7.13 3.559 7.13 3.559 5.988 3.619 C1.925 3.778 1.925 3.778 -1.875 5.062 C-4.435 5.254 -6.975 5.392 -9.539 5.492 C-11.141 5.564 -12.743 5.637 -14.345 5.709 C-15.608 5.765 -15.608 5.765 -16.896 5.822 C-30.055 6.407 -43.044 7.234 -56.095 9.093 C-63.13 10.066 -69.929 10.291 -77.023 10.07 C-79.823 9.849 -79.823 9.849 -81.875 11.062 C-85.818 11.565 -89.788 11.818 -93.75 12.125 C-94.833 12.216 -95.916 12.307 -97.031 12.4 C-104.328 12.979 -111.557 13.174 -118.875 13.062 C-118.875 12.403 -118.875 11.742 -118.875 11.062 C-107.441 9.22 -96.05 7.669 -84.505 6.709 C-83.666 6.638 -82.826 6.566 -81.961 6.492 C-80.848 6.403 -80.848 6.403 -79.712 6.312 C-77.782 6.151 -77.782 6.151 -75.875 5.062 C-73.351 4.899 -70.839 4.782 -68.312 4.688 C-59.509 4.288 -50.82 3.304 -42.084 2.167 C-28.028 0.365 -14.147 -0.075 0 0 Z " fill="#151514" transform="translate(711.875,888.9375)"/></g><g><path d="M0 0 C11.88 1.32 23.76 2.64 36 4 C34.68 6.64 33.36 9.28 32 12 C30.948 11.76 30.948 11.76 29.875 11.516 C26.871 10.977 24.05 10.797 21 10.75 C19.989 10.724 18.979 10.698 17.938 10.672 C13.143 11.207 10.808 13.025 7.762 16.699 C6.735 18.178 6.735 18.178 5.688 19.688 C4.99 20.681 4.293 21.675 3.574 22.699 C2.795 23.838 2.795 23.838 2 25 C0 23 0 23 -0.227 20.662 C-0.217 19.709 -0.206 18.755 -0.195 17.773 C-0.19 16.845 -0.185 15.916 -0.18 14.958 C-0.162 13.776 -0.144 12.593 -0.125 11.375 C-0.084 7.621 -0.043 3.868 0 0 Z " fill="#FA9456" transform="translate(367,439)"/></g><g><path d="M0 0 C1.3 -0.003 1.3 -0.003 2.626 -0.006 C4.454 -0.007 6.282 -0.003 8.11 0.005 C10.897 0.016 13.684 0.005 16.471 -0.008 C18.251 -0.006 20.032 -0.004 21.812 0 C22.641 -0.004 23.469 -0.008 24.322 -0.012 C28.932 0.025 32.633 0.508 36.973 2.266 C36.973 3.256 36.973 4.246 36.973 5.266 C34.118 6.217 32.368 6.387 29.409 6.379 C28.489 6.379 27.568 6.379 26.619 6.379 C25.629 6.374 24.638 6.369 23.617 6.363 C22.6 6.362 21.584 6.36 20.536 6.359 C17.286 6.353 14.035 6.341 10.785 6.328 C8.583 6.323 6.38 6.319 4.178 6.314 C-1.224 6.303 -6.626 6.287 -12.027 6.266 C-12.687 4.946 -13.347 3.626 -14.027 2.266 C-9.357 -0.107 -5.112 -0.025 0 0 Z " fill="#151514" transform="translate(354.02734375,896.734375)"/></g><g><path d="M0 0 C3.576 2.02 6.041 4.468 7.957 8.105 C8.831 13.546 7.587 17.409 4.957 22.105 C2.77 23.043 2.77 23.043 0.957 23.105 C1.287 22.301 1.617 21.497 1.957 20.668 C3.158 16.39 3.66 12.517 2.957 8.105 C1.38 6.027 1.38 6.027 -1.043 5.105 C-1.744 4.714 -2.445 4.322 -3.168 3.918 C-10.199 1.931 -17.687 3.167 -24.855 3.918 C-25.949 4.023 -25.949 4.023 -27.065 4.13 C-31.383 4.629 -34.641 5.333 -38.043 8.105 C-39.052 10.111 -39.052 10.111 -39.355 12.293 C-39.582 13.551 -39.809 14.809 -40.043 16.105 C-40.373 16.105 -40.703 16.105 -41.043 16.105 C-41.373 14.455 -41.703 12.805 -42.043 11.105 C-42.373 12.755 -42.703 14.405 -43.043 16.105 C-43.373 16.105 -43.703 16.105 -44.043 16.105 C-44.384 12.523 -44.152 10.349 -42.668 7.043 C-32.955 -3.826 -13.093 -4.884 0 0 Z " fill="#151514" transform="translate(565.04296875,449.89453125)"/></g><g><path d="M0 0 C0.66 0 1.32 0 2 0 C3.028 5.921 3.145 11.675 3.133 17.676 C3.134 18.682 3.135 19.689 3.136 20.725 C3.136 22.841 3.135 24.956 3.13 27.072 C3.125 30.319 3.13 33.567 3.137 36.814 C3.136 38.872 3.135 40.93 3.133 42.988 C3.135 43.962 3.137 44.936 3.139 45.94 C3.136 46.838 3.133 47.736 3.129 48.661 C3.128 49.849 3.128 49.849 3.127 51.06 C3 53 3 53 2 55 C1.34 55 0.68 55 0 55 C-2.358 45.981 -2.305 37.168 -2.261 27.913 C-2.25 25.242 -2.261 22.573 -2.273 19.902 C-2.272 18.19 -2.27 16.478 -2.266 14.766 C-2.27 13.975 -2.274 13.184 -2.278 12.369 C-2.24 7.86 -1.704 4.249 0 0 Z " fill="#353435" transform="translate(480,158)"/></g><g><path d="M0 0 C0.66 0 1.32 0 2 0 C4.556 12.91 4.227 25.776 4.125 38.875 C4.115 41.124 4.106 43.372 4.098 45.621 C4.076 51.081 4.043 56.54 4 62 C3.01 62 2.02 62 1 62 C0.002 58.682 -0.121 55.679 -0.114 52.222 C-0.113 51.061 -0.113 49.9 -0.113 48.704 C-0.108 47.456 -0.103 46.208 -0.098 44.922 C-0.096 43.64 -0.095 42.358 -0.093 41.038 C-0.09 37.638 -0.08 34.238 -0.069 30.839 C-0.058 27.366 -0.054 23.894 -0.049 20.422 C-0.038 13.615 -0.021 6.807 0 0 Z " fill="#151514" transform="translate(538,156)"/></g><g><path d="M0 0 C0.66 0 1.32 0 2 0 C3.174 3.714 3.129 7.24 3.133 11.117 C3.134 11.811 3.135 12.504 3.136 13.219 C3.136 14.69 3.135 16.161 3.13 17.632 C3.125 19.833 3.13 22.033 3.137 24.234 C3.149 47.552 3.149 47.552 1 54 C0.34 54 -0.32 54 -1 54 C-2.199 50.402 -2.162 47.105 -2.168 43.359 C-2.171 42.6 -2.175 41.841 -2.178 41.059 C-2.183 39.445 -2.185 37.831 -2.185 36.217 C-2.187 33.801 -2.206 31.385 -2.225 28.969 C-2.259 19.135 -1.596 9.711 0 0 Z " fill="#414043" transform="translate(406,168)"/></g><g><path d="M0 0 C0.66 0.33 1.32 0.66 2 1 C1.906 6.854 1.8 12.707 1.683 18.56 C1.644 20.549 1.61 22.538 1.578 24.528 C1.532 27.395 1.474 30.262 1.414 33.129 C1.403 34.011 1.391 34.894 1.379 35.803 C1.259 40.891 0.631 45.174 -1 50 C-1.66 50 -2.32 50 -3 50 C-3.074 43.844 -3.129 37.687 -3.165 31.531 C-3.18 29.438 -3.2 27.345 -3.226 25.251 C-3.263 22.238 -3.28 19.225 -3.293 16.211 C-3.308 15.279 -3.324 14.348 -3.34 13.388 C-3.341 8.138 -2.875 4.582 0 0 Z " fill="#151514" transform="translate(513,153)"/></g><g><path d="M0 0 C2.375 1.5 2.375 1.5 4 4 C4.584 6.963 4.393 8.902 4 12 C2.438 14 2.438 14 0 15 C-3.398 15.358 -5.859 15.589 -8.938 14 C-10.66 10.758 -10.632 7.529 -10 4 C-7.312 -0.136 -4.798 -0.8 0 0 Z " fill="#0A0909" transform="translate(615,537)"/></g><g><path d="M0 0 C4.994 1.453 4.994 1.453 6.438 4 C6.827 7.574 6.808 10.098 5.438 13.438 C2.722 15.559 0.688 15.511 -2.688 15.312 C-4.562 15 -4.562 15 -6.562 13.938 C-8.177 10.81 -7.98 8.456 -7.562 5 C-5.436 0.917 -4.679 0 0 0 Z " fill="#0A0909" transform="translate(468.5625,540)"/></g><g><path d="M0 0 C0.66 0 1.32 0 2 0 C2.927 2.781 3.122 4.421 3.114 7.288 C3.113 8.579 3.113 8.579 3.113 9.896 C3.108 10.821 3.103 11.746 3.098 12.699 C3.096 13.649 3.095 14.6 3.093 15.579 C3.088 18.615 3.075 21.651 3.062 24.688 C3.057 26.745 3.053 28.803 3.049 30.861 C3.038 35.908 3.021 40.954 3 46 C2.01 46 1.02 46 0 46 C-0.838 40.907 -1.147 35.965 -1.133 30.801 C-1.134 30.043 -1.135 29.286 -1.136 28.505 C-1.136 26.916 -1.135 25.327 -1.13 23.738 C-1.125 21.309 -1.13 18.88 -1.137 16.451 C-1.136 14.901 -1.135 13.351 -1.133 11.801 C-1.135 11.078 -1.137 10.355 -1.139 9.61 C-1.123 6.265 -1.04 3.198 0 0 Z " fill="#0A0909" transform="translate(429,167)"/></g><g><path d="M0 0 C0.99 0 1.98 0 3 0 C3.128 11.155 2.966 22.296 2.627 33.446 C2.584 34.858 2.543 36.27 2.503 37.681 C2.446 39.685 2.381 41.688 2.316 43.691 C2.28 44.859 2.243 46.026 2.205 47.229 C2 50 2 50 1 52 C0.34 52 -0.32 52 -1 52 C-1.025 45.237 -1.043 38.475 -1.055 31.712 C-1.06 29.411 -1.067 27.11 -1.075 24.81 C-1.088 21.503 -1.093 18.197 -1.098 14.891 C-1.103 13.861 -1.108 12.832 -1.113 11.772 C-1.113 10.811 -1.113 9.85 -1.114 8.86 C-1.116 8.017 -1.118 7.173 -1.12 6.303 C-1.004 4.071 -0.622 2.141 0 0 Z " fill="#252326" transform="translate(389,169)"/></g><g><path d="M0 0 C1.279 -0.062 2.558 -0.124 3.875 -0.188 C4.954 -0.24 4.954 -0.24 6.055 -0.293 C6.697 -0.196 7.339 -0.1 8 0 C8.66 0.99 9.32 1.98 10 3 C12.074 3.458 12.074 3.458 14.465 3.406 C15.788 3.439 15.788 3.439 17.139 3.473 C18.062 3.482 18.986 3.491 19.938 3.5 C21.759 3.518 23.581 3.549 25.402 3.594 C26.212 3.601 27.021 3.608 27.855 3.615 C30.46 4.083 31.346 4.989 33 7 C31 9 31 9 28.282 9.167 C26.586 9.108 26.586 9.108 24.855 9.047 C23.621 9.004 22.387 8.962 21.115 8.918 C19.819 8.863 18.523 8.807 17.188 8.75 C15.903 8.71 14.618 8.67 13.295 8.629 C2.797 8.225 2.797 8.225 -2 6 C-2 5.01 -2 4.02 -2 3 C-1.34 2.67 -0.68 2.34 0 2 C0 1.34 0 0.68 0 0 Z " fill="#151514" transform="translate(682,858)"/></g><g><path d="M0 0 C4.843 4.843 3.08 15.374 3.098 21.949 C3.095 25.195 3.079 28.441 3.062 31.688 C3.057 33.372 3.053 35.056 3.049 36.74 C3.038 40.827 3.021 44.913 3 49 C2.34 49 1.68 49 1 49 C-1.878 43.244 -1.15 35.377 -1.133 29.062 C-1.134 28.256 -1.135 27.45 -1.136 26.62 C-1.136 24.936 -1.135 23.252 -1.13 21.568 C-1.125 18.979 -1.13 16.39 -1.137 13.801 C-1.136 12.159 -1.135 10.517 -1.133 8.875 C-1.135 8.099 -1.137 7.323 -1.139 6.524 C-1.115 1.115 -1.115 1.115 0 0 Z " fill="#151514" transform="translate(629,157)"/></g><g><path d="M0 0 C0.66 0 1.32 0 2 0 C2.985 2.954 3.121 4.852 3.114 7.93 C3.113 8.931 3.113 9.932 3.113 10.963 C3.108 12.041 3.103 13.12 3.098 14.23 C3.096 15.336 3.095 16.442 3.093 17.581 C3.088 21.116 3.075 24.652 3.062 28.188 C3.057 30.583 3.053 32.978 3.049 35.373 C3.038 41.249 3.021 47.124 3 53 C1.515 53.495 1.515 53.495 0 54 C0 36.18 0 18.36 0 0 Z " fill="#0A0909" transform="translate(602,157)"/></g><g><path d="M0 0 C0.99 0.495 0.99 0.495 2 1 C2.919 4.347 3.123 7.517 3.114 10.974 C3.113 11.934 3.113 12.895 3.113 13.885 C3.108 14.909 3.103 15.933 3.098 16.988 C3.096 18.047 3.095 19.105 3.093 20.195 C3.088 23.568 3.075 26.94 3.062 30.312 C3.057 32.602 3.053 34.892 3.049 37.182 C3.038 42.788 3.021 48.394 3 54 C1.515 54.495 1.515 54.495 0 55 C0 36.85 0 18.7 0 0 Z " fill="#252326" transform="translate(620,157)"/></g><g><path d="M0 0 C14.517 -0.889 28.703 1.749 43 4 C42.34 5.32 41.68 6.64 41 8 C41.66 8.33 42.32 8.66 43 9 C42.67 9.66 42.34 10.32 42 11 C39.374 10.19 36.749 9.377 34.125 8.562 C33.379 8.332 32.632 8.102 31.863 7.865 C26.227 6.113 26.227 6.113 24 5 C22.126 4.93 20.25 4.916 18.375 4.938 C16.871 4.951 16.871 4.951 15.336 4.965 C14.565 4.976 13.794 4.988 13 5 C13 4.01 13 3.02 13 2 C11.969 2.035 11.969 2.035 10.918 2.07 C9.566 2.097 9.566 2.097 8.188 2.125 C7.294 2.148 6.401 2.171 5.48 2.195 C3 2 3 2 0 0 Z " fill="#CB7237" transform="translate(422,786)"/></g><g><path d="M0 0 C1.437 -0.027 2.875 -0.046 4.312 -0.062 C5.513 -0.08 5.513 -0.08 6.738 -0.098 C9 0 9 0 12 1 C14.248 1.178 16.498 1.319 18.75 1.438 C23.815 1.763 28.228 2.296 33 4 C33 4.66 33 5.32 33 6 C28.8 5.906 24.601 5.8 20.402 5.683 C18.975 5.644 17.547 5.61 16.119 5.578 C14.063 5.532 12.008 5.474 9.953 5.414 C8.717 5.383 7.481 5.351 6.208 5.319 C3.233 5.023 1.507 4.56 -1 3 C-0.67 2.01 -0.34 1.02 0 0 Z " fill="#151514" transform="translate(717,863)"/></g><g><path d="M0 0 C2 1 2 1 2.609 2.586 C3.151 5.931 3.224 9.246 3.25 12.625 C3.271 13.306 3.291 13.986 3.312 14.688 C3.328 16.664 3.328 16.664 3 20 C2.01 20.66 1.02 21.32 0 22 C-3.34 16.99 -2.671 10.47 -1.547 4.656 C-1.096 3.084 -0.559 1.537 0 0 Z " fill="#252326" transform="translate(429,272)"/></g><g><path d="M0 0 C1.152 0.009 2.305 0.018 3.492 0.027 C4.361 0.039 5.23 0.051 6.125 0.062 C6.62 1.548 6.62 1.548 7.125 3.062 C-2.775 3.722 -12.675 4.383 -22.875 5.062 C-22.875 4.732 -22.875 4.403 -22.875 4.062 C-25.515 3.732 -28.155 3.403 -30.875 3.062 C-30.875 2.732 -30.875 2.403 -30.875 2.062 C-29.645 2.002 -28.415 1.941 -27.148 1.879 C-25.516 1.794 -23.883 1.71 -22.25 1.625 C-21.442 1.586 -20.634 1.546 -19.801 1.506 C-16.388 1.326 -13.092 1.099 -9.719 0.531 C-6.437 -0.01 -3.324 -0.034 0 0 Z " fill="#DFDFDF" transform="translate(369.875,875.9375)"/></g><g><path d="M0 0 C0.33 0 0.66 0 1 0 C1.33 5.61 1.66 11.22 2 17 C2.33 12.05 2.66 7.1 3 2 C3.33 2 3.66 2 4 2 C4.029 5.812 4.047 9.625 4.062 13.438 C4.071 14.507 4.079 15.576 4.088 16.678 C4.107 22.876 3.821 28.855 3 35 C2.34 34.67 1.68 34.34 1 34 C0.004 29.748 -0.118 25.642 -0.098 21.289 C-0.094 20.045 -0.091 18.801 -0.088 17.52 C-0.08 16.234 -0.071 14.949 -0.062 13.625 C-0.058 12.317 -0.053 11.008 -0.049 9.66 C-0.037 6.44 -0.021 3.22 0 0 Z " fill="#252326" transform="translate(453,178)"/></g><g><path d="M0 0 C0.66 0 1.32 0 2 0 C1.629 7.288 1.629 7.288 -1.375 10.688 C-2.241 11.451 -3.107 12.214 -4 13 C-4.456 13.784 -4.913 14.567 -5.383 15.375 C-7.134 18.218 -9.005 20.105 -11.5 22.312 C-12.273 23.01 -13.047 23.707 -13.844 24.426 C-16 26 -16 26 -19 26 C-19.33 26.66 -19.66 27.32 -20 28 C-20.99 27.01 -21.98 26.02 -23 25 C-21.34 24.349 -19.68 23.698 -18.02 23.047 C-10.429 19.112 -3.975 11.338 -1 3.375 C-0.67 2.261 -0.34 1.148 0 0 Z " fill="#FDEDDD" transform="translate(652,785)"/></g><g><path d="M0 0 C-0.33 0.33 -0.66 0.66 -1 1 C1.64 1.33 4.28 1.66 7 2 C7 2.33 7 2.66 7 3 C-3.658 4.159 -14.302 5.27 -25 6 C-25 6.66 -25 7.32 -25 8 C-22.03 8 -19.06 8 -16 8 C-16 8.33 -16 8.66 -16 9 C-19.3 9 -22.6 9 -26 9 C-26.33 7.35 -26.66 5.7 -27 4 C-25.298 3.71 -25.298 3.71 -23.562 3.414 C-22.042 3.151 -20.521 2.888 -19 2.625 C-18.256 2.499 -17.512 2.372 -16.746 2.242 C-12.965 1.585 -9.27 0.833 -5.562 -0.164 C-2 -1 -2 -1 0 0 Z " fill="#D3D3D4" transform="translate(618,894)"/></g><g><path d="M0 0 C1.034 0.004 2.068 0.008 3.133 0.012 C5.875 0.312 5.875 0.312 8.875 2.312 C8.545 2.973 8.215 3.632 7.875 4.312 C7.04 4.26 7.04 4.26 6.188 4.207 C-2.351 3.904 -8.287 6.355 -15.125 11.312 C-15.125 7.315 -13.804 6.208 -11.125 3.312 C-7.316 0.556 -4.679 -0.076 0 0 Z " fill="#0A0909" transform="translate(388.125,448.6875)"/></g><g><path d="M0 0 C4.984 0.033 9.179 0.751 13.938 2.188 C13.608 3.178 13.277 4.168 12.938 5.188 C10.332 5.295 7.731 5.375 5.125 5.438 C4.387 5.471 3.649 5.505 2.889 5.539 C0.73 5.578 0.73 5.578 -3.062 5.188 C-5.074 3.172 -5.074 3.172 -6.062 1.188 C-4.377 -0.498 -2.305 0.016 0 0 Z " fill="#252326" transform="translate(404.0625,899.8125)"/></g><g><path d="M0 0 C-0.33 0.99 -0.66 1.98 -1 3 C-10.387 4.334 -19.491 5.324 -29 5 C-29 4.34 -29 3.68 -29 3 C-25.856 2.489 -22.71 1.993 -19.562 1.5 C-18.684 1.357 -17.806 1.214 -16.9 1.066 C-11.193 0.182 -5.775 -0.141 0 0 Z " fill="#0A0909" transform="translate(622,897)"/></g><g><path d="M0 0 C4.501 4.501 3.059 13.957 3.098 19.98 C3.091 22.383 3.079 24.785 3.062 27.188 C3.058 28.426 3.053 29.664 3.049 30.939 C3.037 33.96 3.021 36.98 3 40 C2.67 40 2.34 40 2 40 C1.67 31.75 1.34 23.5 1 15 C0.67 16.98 0.34 18.96 0 21 C-0.33 21 -0.66 21 -1 21 C-1.029 17.688 -1.047 14.375 -1.062 11.062 C-1.071 10.117 -1.079 9.171 -1.088 8.197 C-1.091 7.298 -1.094 6.399 -1.098 5.473 C-1.103 4.64 -1.108 3.807 -1.114 2.949 C-1 1 -1 1 0 0 Z " fill="#4C4A4F" transform="translate(629,157)"/></g><g><path d="M0 0 C2.958 4.437 3.114 7.454 3.062 12.688 C3.053 13.867 3.044 15.046 3.035 16.262 C3.024 17.165 3.012 18.069 3 19 C1.35 19.66 -0.3 20.32 -2 21 C-2 15.06 -2 9.12 -2 3 C-1.34 3 -0.68 3 0 3 C0 2.01 0 1.02 0 0 Z " fill="#26150D" transform="translate(506,448)"/></g><g><path d="M0 0 C1.32 0 2.64 0 4 0 C4.054 2.417 4.094 4.833 4.125 7.25 C4.15 8.273 4.15 8.273 4.176 9.316 C4.212 13.061 4.079 15.824 2 19 C-0.288 13.117 -1.444 8.325 -1 2 C-0.67 1.34 -0.34 0.68 0 0 Z " fill="#EB9148" transform="translate(650,442)"/></g><g><path d="M0 0 C0.66 0 1.32 0 2 0 C2 7.92 2 15.84 2 24 C1.34 24.33 0.68 24.66 0 25 C-1.154 22.693 -1.129 21.354 -1.133 18.789 C-1.134 17.956 -1.135 17.124 -1.137 16.266 C-1.133 15.394 -1.129 14.523 -1.125 13.625 C-1.129 12.761 -1.133 11.898 -1.137 11.008 C-1.135 10.173 -1.134 9.337 -1.133 8.477 C-1.132 7.714 -1.131 6.952 -1.129 6.167 C-1 3.995 -0.597 2.087 0 0 Z " fill="#151514" transform="translate(406,168)"/></g><g><path d="M0 0 C5.94 0 11.88 0 18 0 C17.34 1.32 16.68 2.64 16 4 C16.66 4.33 17.32 4.66 18 5 C17.67 5.66 17.34 6.32 17 7 C14.351 6.218 11.706 5.425 9.062 4.625 C8.308 4.403 7.553 4.182 6.775 3.953 C4.832 3.36 2.913 2.685 1 2 C0.67 1.34 0.34 0.68 0 0 Z " fill="#EB9148" transform="translate(447,790)"/></g><g><path d="M0 0 C0.66 0 1.32 0 2 0 C3.019 5.849 3.118 11.509 3.062 17.438 C3.058 18.36 3.053 19.282 3.049 20.232 C3.037 22.488 3.021 24.744 3 27 C2.34 26.67 1.68 26.34 1 26 C-0.752 17.637 -0.103 8.502 0 0 Z " fill="#151514" transform="translate(611,159)"/></g><g><path d="M0 0 C0.66 0 1.32 0 2 0 C3.283 3.85 3.066 6.947 3 11 C2.34 9.68 1.68 8.36 1 7 C0.67 17.56 0.34 28.12 0 39 C-0.33 39 -0.66 39 -1 39 C-1.025 34.089 -1.043 29.177 -1.055 24.266 C-1.06 22.596 -1.067 20.926 -1.075 19.255 C-1.088 16.853 -1.093 14.45 -1.098 12.047 C-1.103 11.302 -1.108 10.557 -1.113 9.789 C-1.114 6.385 -1.073 3.253 0 0 Z " fill="#615D63" transform="translate(429,167)"/></g><g><path d="M0 0 C0.99 0.495 0.99 0.495 2 1 C2.33 7.93 2.66 14.86 3 22 C3.66 22 4.32 22 5 22 C4.67 22.66 4.34 23.32 4 24 C3.34 23.67 2.68 23.34 2 23 C1.34 24.32 0.68 25.64 0 27 C0 18.09 0 9.18 0 0 Z " fill="#F8E5D1" transform="translate(371,795)"/></g><g><path d="M0 0 C0.99 0 1.98 0 3 0 C3 7.92 3 15.84 3 24 C2.34 24.33 1.68 24.66 1 25 C-0.279 22.443 -0.113 20.633 -0.098 17.773 C-0.094 16.742 -0.091 15.711 -0.088 14.648 C-0.08 13.568 -0.071 12.488 -0.062 11.375 C-0.058 10.287 -0.053 9.199 -0.049 8.078 C-0.037 5.385 -0.021 2.693 0 0 Z " fill="#D5834C" transform="translate(367,439)"/></g><g><path d="M0 0 C0.33 0.99 0.66 1.98 1 3 C-2.003 4.502 -4.791 4.093 -8.125 4.062 C-9.406 4.053 -10.688 4.044 -12.008 4.035 C-13.489 4.018 -13.489 4.018 -15 4 C-15 3.01 -15 2.02 -15 1 C-13.438 0.83 -11.875 0.664 -10.312 0.5 C-9.442 0.407 -8.572 0.314 -7.676 0.219 C-5.103 0.008 -2.58 -0.037 0 0 Z " fill="#353435" transform="translate(306,891)"/></g><g><path d="M0 0 C0 0.33 0 0.66 0 1 C-2.31 1.33 -4.62 1.66 -7 2 C-4.03 2.495 -4.03 2.495 -1 3 C-1 3.33 -1 3.66 -1 4 C-3.624 4.248 -6.248 4.474 -8.875 4.688 C-9.621 4.76 -10.368 4.833 -11.137 4.908 C-13.305 5.074 -13.305 5.074 -17 5 C-17.66 4.01 -18.32 3.02 -19 2 C-12.57 0.676 -6.571 -0.248 0 0 Z " fill="#353435" transform="translate(505,147)"/></g><g><path d="M0 0 C1.625 -0.027 3.25 -0.046 4.875 -0.062 C5.78 -0.074 6.685 -0.086 7.617 -0.098 C10 0 10 0 12 1 C12 1.99 12 2.98 12 4 C10.375 4.027 8.75 4.046 7.125 4.062 C5.768 4.08 5.768 4.08 4.383 4.098 C2 4 2 4 0 3 C0 2.01 0 1.02 0 0 Z " fill="#252326" transform="translate(734,874)"/></g><g><path d="M0 0 C0.33 0.66 0.66 1.32 1 2 C0.01 3.485 0.01 3.485 -1 5 C6.92 5 14.84 5 23 5 C23 5.66 23 6.32 23 7 C13.43 7 3.86 7 -6 7 C-4.02 4.69 -2.04 2.38 0 0 Z " fill="#B6673E" transform="translate(505,472)"/></g><g><path d="M0 0 C-0.99 0.33 -1.98 0.66 -3 1 C-3.99 2.485 -3.99 2.485 -5 4 C-7.383 4.512 -7.383 4.512 -10.125 4.688 C-11.035 4.753 -11.945 4.819 -12.883 4.887 C-13.931 4.943 -13.931 4.943 -15 5 C-14.67 3.68 -14.34 2.36 -14 1 C-12.419 0.635 -10.835 0.283 -9.25 -0.062 C-8.368 -0.26 -7.487 -0.457 -6.578 -0.66 C-4.013 -0.998 -2.429 -0.812 0 0 Z " fill="#353435" transform="translate(306,880)"/></g><g><path d="M0 0 C0.66 0.33 1.32 0.66 2 1 C2.594 3.649 2.742 6.292 3 9 C2.01 9 1.02 9 0 9 C-0.454 8.381 -0.908 7.762 -1.375 7.125 C-3.327 4.572 -4.989 3.977 -8 3 C-7.34 2.34 -6.68 1.68 -6 1 C-2.875 1.375 -2.875 1.375 0 2 C0 1.34 0 0.68 0 0 Z " fill="#151514" transform="translate(647,445)"/></g><g><path d="M0 0 C1.32 0.33 2.64 0.66 4 1 C3.67 5.29 3.34 9.58 3 14 C2.34 14 1.68 14 1 14 C-0.05 10.851 -0.101 8.612 -0.062 5.312 C-0.053 4.319 -0.044 3.325 -0.035 2.301 C-0.024 1.542 -0.012 0.782 0 0 Z " fill="#353435" transform="translate(564,198)"/></g><g><path d="M0 0 C4.29 0 8.58 0 13 0 C13.33 0.99 13.66 1.98 14 3 C9.38 3 4.76 3 0 3 C0 2.01 0 1.02 0 0 Z " fill="#C9C9C9" transform="translate(363,876)"/></g><g><path d="M0 0 C0 0.66 0 1.32 0 2 C-1.98 2 -3.96 2 -6 2 C-6 1.34 -6 0.68 -6 0 C-13.59 0 -21.18 0 -29 0 C-29 -0.33 -29 -0.66 -29 -1 C-25.48 -1.228 -21.959 -1.429 -18.438 -1.625 C-16.952 -1.722 -16.952 -1.722 -15.436 -1.82 C-9.789 -2.12 -5.324 -1.956 0 0 Z " fill="#A3A5A7" transform="translate(617,143)"/></g><g><path d="M0 0 C0 0.33 0 0.66 0 1 C-6.435 1.495 -6.435 1.495 -13 2 C-13 2.66 -13 3.32 -13 4 C-10.03 4 -7.06 4 -4 4 C-4 4.33 -4 4.66 -4 5 C-7.3 5 -10.6 5 -14 5 C-14.33 3.35 -14.66 1.7 -15 0 C-9.654 -1.002 -5.376 -0.849 0 0 Z " fill="#A3A5A7" transform="translate(606,898)"/></g><g><path d="M0 0 C0.967 3.122 0.99 5.521 0.562 8.75 C0.461 9.549 0.359 10.348 0.254 11.172 C0.128 12.077 0.128 12.077 0 13 C-0.33 13 -0.66 13 -1 13 C-1 11.35 -1 9.7 -1 8 C-1.99 7.67 -2.98 7.34 -4 7 C-4.33 5.35 -4.66 3.7 -5 2 C-3.35 1.34 -1.7 0.68 0 0 Z " fill="#FABB8E" transform="translate(472,823)"/></g><g><path d="M0 0 C2.125 -0.027 4.25 -0.046 6.375 -0.062 C7.558 -0.074 8.742 -0.086 9.961 -0.098 C13 0 13 0 15 1 C15 1.66 15 2.32 15 3 C9.561 3.218 5.129 3.104 0 1 C0 0.67 0 0.34 0 0 Z " fill="#0A0909" transform="translate(735,866)"/></g><g><path d="M0 0 C3.96 0 7.92 0 12 0 C12 0.33 12 0.66 12 1 C10.02 1.66 8.04 2.32 6 3 C6.33 5.97 6.66 8.94 7 12 C5.015 10.015 4.145 8.498 2.938 6 C2.596 5.299 2.254 4.597 1.902 3.875 C1.605 3.256 1.307 2.638 1 2 C0.67 1.34 0.34 0.68 0 0 Z " fill="#FBC49D" transform="translate(447,829)"/></g><g><path d="M0 0 C2.779 2.398 3.86 4.707 5.125 8.125 C6.15 11.316 6.15 11.316 8 14 C9.347 14.231 10.704 14.412 12.062 14.562 C13.362 14.707 14.661 14.851 16 15 C16 15.33 16 15.66 16 16 C12.37 16 8.74 16 5 16 C4.352 14.084 3.707 12.167 3.062 10.25 C2.703 9.183 2.343 8.115 1.973 7.016 C1.22 4.683 0.55 2.386 0 0 Z " fill="#EBBE99" transform="translate(505,817)"/></g><g><path d="M0 0 C4.95 0 9.9 0 15 0 C15.33 1.32 15.66 2.64 16 4 C15.01 4.33 14.02 4.66 13 5 C13 4.01 13 3.02 13 2 C11.969 2.035 11.969 2.035 10.918 2.07 C9.566 2.097 9.566 2.097 8.188 2.125 C7.294 2.148 6.401 2.171 5.48 2.195 C3 2 3 2 0 0 Z " fill="#D5834C" transform="translate(422,786)"/></g><g><path d="M0 0 C0.66 0 1.32 0 2 0 C2 4.95 2 9.9 2 15 C1.01 14.67 0.02 14.34 -1 14 C-0.67 9.38 -0.34 4.76 0 0 Z " fill="#CABCA2" transform="translate(652,770)"/></g><g><path d="M0 0 C2.64 0 5.28 0 8 0 C8.66 1.32 9.32 2.64 10 4 C6.04 4 2.08 4 -2 4 C-1.34 2.68 -0.68 1.36 0 0 Z " fill="#615D63" transform="translate(682,858)"/></g><g><path d="M0 0 C0.66 0 1.32 0 2 0 C2.351 5.842 2.167 9.853 -1 15 C-1.66 15 -2.32 15 -3 15 C-2.691 14.01 -2.381 13.02 -2.062 12 C-0.916 8.023 -0.433 4.112 0 0 Z " fill="#F1DAC1" transform="translate(453,842)"/></g><g><path d="M0 0 C0.33 0 0.66 0 1 0 C1.027 2.271 1.046 4.542 1.062 6.812 C1.074 8.077 1.086 9.342 1.098 10.645 C1 14 1 14 0 17 C-0.66 17 -1.32 17 -2 17 C-2.257 11.087 -1.298 5.761 0 0 Z " fill="#353435" transform="translate(407,205)"/></g><g><path d="M0 0 C0.33 0 0.66 0 1 0 C1.66 5.94 2.32 11.88 3 18 C2.01 17.34 1.02 16.68 0 16 C-0.221 13.211 -0.281 10.653 -0.188 7.875 C-0.174 7.121 -0.16 6.367 -0.146 5.59 C-0.111 3.726 -0.057 1.863 0 0 Z " fill="#FBC49D" transform="translate(370,776)"/></g><g><path d="M0 0 C0.66 0.33 1.32 0.66 2 1 C1.857 1.684 1.714 2.369 1.566 3.074 C0.94 6.311 0.431 9.553 -0.062 12.812 C-0.239 13.974 -0.416 15.135 -0.598 16.332 C-0.73 17.212 -0.863 18.093 -1 19 C-1.33 19 -1.66 19 -2 19 C-2.198 12.295 -2.308 6.348 0 0 Z " fill="#565556" transform="translate(429,272)"/></g><g><path d="M0 0 C0.99 0.33 1.98 0.66 3 1 C0.36 3.64 -2.28 6.28 -5 9 C-5.33 7.68 -5.66 6.36 -6 5 C-1.605 0.996 -1.605 0.996 0 0 Z " fill="#EB9148" transform="translate(482,421)"/></g><g><path d="M0 0 C1.485 0.99 1.485 0.99 3 2 C3.293 4.164 3.293 4.164 3.188 6.625 C3.16 7.442 3.133 8.26 3.105 9.102 C3.071 9.728 3.036 10.355 3 11 C2.34 11 1.68 11 1 11 C-0.203 8.595 -0.101 7.05 -0.062 4.375 C-0.053 3.558 -0.044 2.74 -0.035 1.898 C-0.024 1.272 -0.012 0.645 0 0 Z " fill="#252326" transform="translate(629,195)"/></g><g><path d="M0 0 C-0.33 0.99 -0.66 1.98 -1 3 C-3.31 3.33 -5.62 3.66 -8 4 C-8.33 3.01 -8.66 2.02 -9 1 C-5.804 -0.065 -3.343 -0.074 0 0 Z " fill="#353435" transform="translate(286,883)"/></g><g><path d="M0 0 C0 0.33 0 0.66 0 1 C-2.31 1.33 -4.62 1.66 -7 2 C-7 2.66 -7 3.32 -7 4 C-8.98 4 -10.96 4 -13 4 C-13 3.01 -13 2.02 -13 1 C-8.591 -0.102 -4.516 -0.077 0 0 Z " fill="#414043" transform="translate(358,880)"/></g><g><path d="M0 0 C0.66 0 1.32 0 2 0 C1.25 1.938 1.25 1.938 0 4 C-2.062 4.625 -2.062 4.625 -4 5 C-4.33 5.66 -4.66 6.32 -5 7 C-5.99 6.01 -6.98 5.02 -8 4 C-6.866 3.526 -5.731 3.051 -4.562 2.562 C-1.243 1.364 -1.243 1.364 0 0 Z " fill="#FDEDDD" transform="translate(637,806)"/></g><g><path d="M0 0 C4.29 0 8.58 0 13 0 C9 3 9 3 6.895 3.145 C4.918 2.829 2.958 2.417 1 2 C0.67 1.34 0.34 0.68 0 0 Z " fill="#FA9456" transform="translate(447,790)"/></g><g><path d="M0 0 C0.66 0.99 1.32 1.98 2 3 C1.67 3.99 1.34 4.98 1 6 C0.778 7.892 0.594 9.789 0.438 11.688 C0.312 13.178 0.312 13.178 0.184 14.699 C0.123 15.458 0.062 16.218 0 17 C-0.33 17 -0.66 17 -1 17 C-1.33 12.38 -1.66 7.76 -2 3 C-1.34 3 -0.68 3 0 3 C0 2.01 0 1.02 0 0 Z " fill="#532F1B" transform="translate(506,448)"/></g><g><path d="M0 0 C0.892 0.018 1.784 0.036 2.703 0.055 C3.716 0.089 3.716 0.089 4.75 0.125 C3.76 0.62 3.76 0.62 2.75 1.125 C2.75 1.785 2.75 2.445 2.75 3.125 C-1.21 2.795 -5.17 2.465 -9.25 2.125 C-5.382 0.191 -4.1 -0.108 0 0 Z " fill="#CE9269" transform="translate(634.25,775.875)"/></g><g><path d="M0 0 C0.66 0.33 1.32 0.66 2 1 C1.67 1.33 1.34 1.66 1 2 C3.64 2.33 6.28 2.66 9 3 C9 3.33 9 3.66 9 4 C4.71 4 0.42 4 -4 4 C-3.67 3.01 -3.34 2.02 -3 1 C-2.01 0.67 -1.02 0.34 0 0 Z " fill="#D3D3D4" transform="translate(616,893)"/></g><g><path d="M0 0 C0.66 0 1.32 0 2 0 C3.283 3.85 3.066 6.947 3 11 C0.397 8.288 0.005 7.109 -0.188 3.25 C-0.126 2.178 -0.064 1.105 0 0 Z " fill="#353435" transform="translate(429,167)"/></g><g><path d="M0 0 C2.051 0.033 4.102 0.065 6.152 0.098 C5.286 0.5 5.286 0.5 4.402 0.91 C2.12 2.115 0.179 3.506 -1.848 5.098 C-2.41 3.16 -2.41 3.16 -2.848 1.098 C-1.848 0.098 -1.848 0.098 0 0 Z " fill="#EB9148" transform="translate(506.84765625,440.90234375)"/></g><g><path d="M0 0 C2.31 0 4.62 0 7 0 C6 3 6 3 3 5 C3 3.68 3 2.36 3 1 C1.68 1.33 0.36 1.66 -1 2 C-0.67 1.34 -0.34 0.68 0 0 Z " fill="#EB9148" transform="translate(511,837)"/></g><g><path d="M0 0 C0.33 1.32 0.66 2.64 1 4 C-0.98 4.33 -2.96 4.66 -5 5 C-5 4.01 -5 3.02 -5 2 C-3.35 1.34 -1.7 0.68 0 0 Z " fill="#E29C6A" transform="translate(472,823)"/></g></svg>