<svg xmlns="http://www.w3.org/2000/svg" viewBox="0 0 1024 1024" preserveAspectRatio="xMidYMid meet"><g><path d="M0 0 C337.92 0 675.84 0 1024 0 C1024 337.92 1024 675.84 1024 1024 C686.08 1024 348.16 1024 0 1024 C0 686.08 0 348.16 0 0 Z " fill="#ECF9F9" transform="translate(0,0)"/></g><g><path d="M0 0 C18.363 15.938 31.133 37.277 34.188 61.625 C34.39 65.872 34.415 70.115 34.428 74.366 C34.437 76.356 34.469 78.346 34.5 80.336 C34.532 88.288 33.776 95.105 31.188 102.625 C30.958 103.336 30.728 104.047 30.491 104.78 C21.806 130.945 4.535 150.581 -20 163 C-25.812 165.846 -31.496 168.142 -37.812 169.625 C-38.75 169.901 -39.687 170.177 -40.652 170.461 C-65.679 177.074 -93.507 172.769 -115.801 160.078 C-135.296 148.443 -150.347 131.71 -158.812 110.625 C-159.202 109.666 -159.591 108.707 -159.992 107.719 C-168.689 85.119 -166.894 59.299 -157.5 37.25 C-146.118 12.075 -126.323 -6.222 -100.841 -16.632 C-67.358 -28.9 -27.401 -22.938 0 0 Z " fill="#FEFEFE" transform="translate(576.8125,438.375)"/></g><g><path d="M0 0 C2.476 -0.012 4.953 -0.032 7.429 -0.062 C11.06 -0.104 14.691 -0.12 18.323 -0.131 C19.422 -0.148 20.521 -0.166 21.653 -0.184 C29.227 -0.162 34.68 0.92 40.491 6.147 C40.946 6.732 41.401 7.317 41.87 7.92 C42.343 8.511 42.816 9.101 43.303 9.709 C51.806 21.654 47.858 49.334 48.09 63.531 C48.264 74.822 48.264 74.822 48.936 86.092 C49.696 95.625 49.73 105.179 49.782 114.737 C49.799 116.95 49.826 119.162 49.864 121.375 C49.919 124.614 49.941 127.852 49.956 131.092 C49.978 132.068 50.001 133.045 50.024 134.05 C50.001 141.657 47.996 147.976 43.095 153.915 C35.166 161.308 24.143 160.812 14.014 160.99 C12.51 161.027 11.006 161.066 9.503 161.105 C5.551 161.205 1.599 161.29 -2.353 161.37 C-6.299 161.452 -10.245 161.548 -14.191 161.643 C-14.959 161.661 -15.728 161.68 -16.52 161.699 C-18.058 161.736 -19.596 161.773 -21.135 161.811 C-23.417 161.865 -25.699 161.918 -27.982 161.97 C-37.086 162.183 -46.179 162.507 -55.274 162.955 C-63.059 163.334 -70.838 163.581 -78.632 163.645 C-80.111 163.662 -81.59 163.69 -83.068 163.727 C-92.851 163.971 -101.538 163.754 -109.202 156.816 C-117.477 147.604 -116.637 133.117 -117.091 121.436 C-117.133 120.397 -117.175 119.358 -117.217 118.287 C-117.962 98.813 -118.183 79.32 -118.468 59.834 C-118.541 54.927 -118.629 50.021 -118.726 45.115 C-118.782 42.05 -118.822 38.985 -118.854 35.92 C-118.879 33.926 -118.925 31.932 -118.97 29.938 C-119.023 21.761 -117.987 16.342 -112.673 10.053 C-100.348 -0.44 -81.425 2.09 -66.005 1.795 C-55.658 1.595 -45.327 1.368 -34.994 0.783 C-23.335 0.145 -11.674 0.038 0 0 Z " fill="#FEFEFE" transform="translate(235.56787109375,663.704833984375)"/></g><g><path d="M0 0 C10.754 7.898 18.841 19.495 21.551 32.68 C23.012 43.482 22.925 54.756 19 65 C18.397 66.626 18.397 66.626 17.781 68.285 C7.665 93.66 -13.22 116.017 -35 132 C-36.211 132.925 -37.421 133.852 -38.629 134.781 C-42.714 137.908 -46.848 140.963 -51 144 C-52.034 144.766 -52.034 144.766 -53.089 145.547 C-55.085 147.013 -57.101 148.448 -59.125 149.875 C-60.029 150.546 -60.029 150.546 -60.952 151.23 C-63.873 153.24 -65.419 154.092 -68.977 153.527 C-72.514 151.74 -75.911 149.817 -79.25 147.688 C-80.284 147.033 -80.284 147.033 -81.34 146.365 C-89.814 140.929 -97.963 135.059 -106 129 C-106.67 128.497 -107.34 127.993 -108.03 127.475 C-132.146 109.157 -157.387 85.47 -162 54 C-163.424 38.696 -159.228 24.599 -150 12.344 C-141.829 2.655 -131.358 -3.559 -119.125 -6.75 C-103.739 -7.981 -90.647 -5.922 -78.488 4.062 C-75.212 6.933 -72.061 9.901 -69 13 C-68.58 12.112 -68.58 12.112 -68.152 11.207 C-63.24 1.798 -53.963 -3.709 -44.312 -7.438 C-28.921 -12.075 -13.218 -8.716 0 0 Z " fill="#FEFEFE" transform="translate(661,744)"/></g><g><path d="M0 0 C0.808 -0.008 1.615 -0.015 2.447 -0.023 C16.772 0.023 29.423 6.262 39.75 16 C43.865 20.255 46.758 25.065 49.562 30.25 C50.096 29.416 50.63 28.582 51.18 27.723 C59.843 14.503 70.629 3.851 86.562 0.25 C89.86 -0.02 93.131 -0.03 96.438 0 C97.708 -0.012 97.708 -0.012 99.004 -0.023 C113.747 0.022 126.801 5.619 137.383 15.871 C149.01 28.561 154.17 43.045 153.812 60.188 C152.208 79.842 142.468 96.94 130.625 112.188 C129.916 113.102 129.916 113.102 129.193 114.035 C128.034 115.482 126.804 116.873 125.562 118.25 C124.903 118.25 124.243 118.25 123.562 118.25 C122.944 117.569 122.944 117.569 122.312 116.875 C118.981 113.781 115.22 113.327 110.812 112.812 C103.945 113.074 98.588 116.255 93.773 120.996 C91.989 122.931 90.294 124.909 88.594 126.922 C86.511 129.309 85.682 130.136 82.574 130.453 C74.24 130.621 74.24 130.621 70.562 127.25 C60.901 114.319 62.115 97.58 62.051 82.305 C62.035 79.677 62.002 77.05 61.969 74.422 C61.972 73.634 61.975 72.846 61.978 72.035 C61.906 66.639 61.363 60.979 58.562 56.25 C54.966 54.868 51.369 54.842 47.562 55.25 C42.284 60.243 41.197 66.45 40.16 73.383 C40.037 74.174 39.914 74.965 39.787 75.781 C39.394 78.311 39.009 80.843 38.625 83.375 C38.371 85.022 38.116 86.669 37.861 88.316 C36.301 98.411 36.301 98.411 34.78 108.512 C34.522 110.21 34.265 111.908 34.008 113.605 C33.838 114.772 33.838 114.772 33.666 115.961 C32.779 121.754 31.222 126.998 28.562 132.25 C27.903 132.25 27.243 132.25 26.562 132.25 C24.896 123.674 23.743 115.098 22.795 106.416 C22.162 101.159 21.53 96.777 18.562 92.25 C15.05 89.908 13.698 89.754 9.562 90.25 C5.572 92.445 3.861 95.328 1.688 99.188 C-3.042 107.333 -9.157 109.783 -17.766 113.137 C-21.439 114.667 -23.211 115.91 -25.438 119.25 C-36.58 106.171 -45.41 93.507 -51.438 77.25 C-51.757 76.456 -52.077 75.662 -52.406 74.844 C-57.028 62.006 -55.473 45.538 -49.944 33.275 C-42.854 18.57 -31.901 7.9 -16.438 2.25 C-10.802 0.334 -5.876 -0.056 0 0 Z " fill="#FEFEFE" transform="translate(760.4375,575.75)"/></g><g><path d="M0 0 C10.779 6.769 18.277 15.885 21.184 28.496 C23.533 41.57 21.562 52.97 15.57 64.645 C14.828 66.162 14.828 66.162 14.07 67.711 C2.407 89.608 -18.726 105.48 -38.43 119.645 C-39.176 120.189 -39.922 120.734 -40.691 121.295 C-42.715 122.766 -44.755 124.21 -46.805 125.645 C-47.392 126.072 -47.98 126.5 -48.586 126.94 C-51.342 128.814 -52.954 129.68 -56.321 129.429 C-59.574 128.608 -61.587 127.55 -64.336 125.652 C-65.238 125.035 -66.14 124.418 -67.069 123.782 C-68.013 123.118 -68.957 122.454 -69.93 121.77 C-71.398 120.75 -71.398 120.75 -72.896 119.71 C-87.154 109.735 -100.119 98.955 -112.43 86.645 C-112.992 86.141 -113.554 85.636 -114.133 85.117 C-125.102 75.118 -133.62 59.493 -134.633 44.672 C-134.854 30.107 -131.764 18.172 -121.68 7.395 C-111.397 -2.337 -101.021 -5.058 -87.273 -4.723 C-76.6 -4.136 -69.014 0.229 -61.355 7.461 C-59.585 9.469 -58.469 11.194 -57.43 13.645 C-56.471 12.655 -56.471 12.655 -55.492 11.645 C-39.74 -3.974 -21.093 -11.767 0 0 Z " fill="#FEFEFE" transform="translate(898.4296875,327.35546875)"/></g><g><path d="M0 0 C1.626 -0.046 3.253 -0.089 4.879 -0.129 C6.052 -0.174 6.052 -0.174 7.249 -0.22 C12.764 -0.275 12.764 -0.275 15.215 2.016 C18.05 7.932 17.885 14.234 18.316 20.684 C18.361 21.343 18.406 22.002 18.452 22.681 C19.378 36.521 19.474 50.314 19.254 64.184 C20.306 64.093 20.306 64.093 21.38 64 C35.135 62.841 48.887 61.931 62.691 61.684 C63.874 61.641 65.057 61.599 66.276 61.555 C71.253 61.514 74.282 61.55 78.508 64.305 C81.852 69.614 80.884 76.742 80.754 82.746 C80.756 84.06 80.759 85.374 80.762 86.729 C80.646 98.12 80.646 98.12 77.254 102.184 C71.871 104.961 65.663 104.63 59.73 104.816 C58.078 104.879 58.078 104.879 56.393 104.942 C52.889 105.073 49.384 105.191 45.879 105.309 C43.497 105.395 41.116 105.482 38.734 105.57 C32.908 105.784 27.081 105.988 21.254 106.184 C21.264 107.339 21.264 107.339 21.274 108.517 C21.334 115.771 21.38 123.025 21.409 130.28 C21.425 134.009 21.446 137.739 21.48 141.468 C21.513 145.067 21.531 148.665 21.539 152.264 C21.544 153.637 21.555 155.011 21.571 156.384 C21.593 158.307 21.594 160.229 21.594 162.152 C21.604 163.794 21.604 163.794 21.615 165.469 C21.254 168.184 21.254 168.184 19.889 170.015 C13.763 174.394 3.029 173.441 -4.309 173.621 C-5.082 173.655 -5.856 173.69 -6.653 173.725 C-10.566 173.755 -12.325 173.583 -15.211 170.844 C-24.508 154.733 -20.373 125.564 -20.746 107.184 C-22.466 107.299 -22.466 107.299 -24.22 107.417 C-35.516 108.155 -46.83 108.377 -58.148 108.471 C-59.879 108.488 -61.61 108.512 -63.341 108.542 C-65.81 108.585 -68.277 108.6 -70.746 108.609 C-71.493 108.627 -72.24 108.644 -73.01 108.662 C-76.304 108.649 -78.412 108.397 -81.213 106.61 C-83.319 103.277 -83.264 100.863 -83.277 96.934 C-83.281 96.238 -83.285 95.543 -83.289 94.827 C-83.292 93.361 -83.284 91.895 -83.268 90.43 C-83.246 88.19 -83.267 85.954 -83.293 83.715 C-83.29 82.288 -83.285 80.861 -83.277 79.434 C-83.273 78.139 -83.268 76.845 -83.264 75.512 C-82.746 72.184 -82.746 72.184 -81.041 69.78 C-78.343 67.903 -76.767 67.591 -73.504 67.391 C-72.451 67.318 -71.398 67.246 -70.314 67.171 C-69.178 67.114 -68.042 67.056 -66.871 66.996 C-65.112 66.886 -65.112 66.886 -63.317 66.774 C-49.474 65.955 -35.607 65.542 -21.746 65.184 C-21.814 64.279 -21.882 63.375 -21.952 62.444 C-22.693 51.75 -23.027 41.08 -23.096 30.362 C-23.113 28.475 -23.14 26.588 -23.178 24.702 C-23.233 21.932 -23.255 19.164 -23.27 16.395 C-23.292 15.557 -23.315 14.719 -23.338 13.857 C-23.323 9.68 -23.028 6.989 -20.382 3.658 C-17.347 0.809 -16.155 0.405 -12.059 0.309 C-10.371 0.26 -10.371 0.26 -8.648 0.211 C-5.756 0.191 -2.888 0.116 0 0 Z " fill="#8acdcb" transform="translate(207.74609375,329.81640625)"/></g><g><path d="M0 0 C1.319 0.003 2.639 0.005 3.998 0.008 C4.68 0.022 5.362 0.037 6.065 0.052 C8.15 0.094 10.232 0.093 12.318 0.086 C22.201 0.183 22.201 0.183 25.451 1.686 C29.236 6.093 28.281 13.539 28.406 19.152 C28.427 19.941 28.448 20.731 28.469 21.544 C28.534 24.039 28.593 26.535 28.652 29.031 C28.696 30.734 28.739 32.436 28.783 34.139 C28.89 38.29 28.991 42.442 29.09 46.594 C30.876 46.562 30.876 46.562 32.698 46.53 C37.119 46.458 41.539 46.412 45.96 46.374 C47.873 46.354 49.786 46.327 51.698 46.292 C54.449 46.243 57.198 46.221 59.949 46.203 C60.804 46.182 61.658 46.162 62.538 46.141 C66.226 46.139 68.444 46.199 71.635 48.149 C73.604 51.457 73.61 54.361 73.516 58.098 C73.511 59.177 73.511 59.177 73.506 60.279 C73.495 61.796 73.475 63.313 73.447 64.83 C73.402 67.152 73.385 69.473 73.373 71.795 C73.36 73.271 73.345 74.747 73.328 76.223 C73.321 76.916 73.313 77.61 73.306 78.325 C73.246 81.343 73.052 83.708 72.09 86.594 C67.077 88.5 62.316 88.921 56.969 89.008 C56.224 89.027 55.479 89.047 54.712 89.066 C52.359 89.126 50.006 89.172 47.652 89.219 C46.046 89.257 44.44 89.296 42.834 89.336 C38.919 89.431 35.005 89.516 31.09 89.594 C31.1 90.81 31.111 92.025 31.122 93.278 C31.158 97.797 31.181 102.317 31.2 106.836 C31.21 108.791 31.223 110.745 31.241 112.699 C31.265 115.512 31.276 118.324 31.285 121.137 C31.295 122.008 31.306 122.879 31.316 123.776 C31.317 128.116 31.282 131.709 29.09 135.594 C24.584 137.847 18.444 136.862 13.432 136.889 C11.164 136.906 8.898 136.95 6.631 136.994 C5.191 137.004 3.752 137.013 2.312 137.02 C1 137.034 -0.312 137.049 -1.664 137.064 C-4.91 136.594 -4.91 136.594 -6.799 134.88 C-9.231 129.876 -9.107 124.701 -9.227 119.23 C-9.247 118.438 -9.268 117.647 -9.29 116.831 C-9.355 114.314 -9.414 111.798 -9.473 109.281 C-9.516 107.57 -9.559 105.858 -9.604 104.146 C-9.71 99.962 -9.812 95.778 -9.91 91.594 C-11.167 91.609 -12.423 91.625 -13.718 91.641 C-18.375 91.696 -23.032 91.73 -27.69 91.759 C-29.706 91.774 -31.723 91.794 -33.74 91.82 C-36.636 91.856 -39.533 91.873 -42.43 91.887 C-43.333 91.902 -44.236 91.918 -45.167 91.934 C-46.428 91.934 -46.428 91.934 -47.714 91.934 C-48.823 91.944 -48.823 91.944 -49.955 91.955 C-52.492 91.486 -53.34 90.606 -54.91 88.594 C-56.692 83.248 -56.136 77.459 -56.15 71.86 C-56.16 69.602 -56.191 67.344 -56.223 65.086 C-56.229 63.651 -56.234 62.216 -56.238 60.781 C-56.248 59.475 -56.257 58.17 -56.267 56.824 C-55.91 53.594 -55.91 53.594 -54.577 51.707 C-51.36 49.559 -48.36 49.422 -44.605 49.277 C-43.546 49.235 -42.486 49.194 -41.395 49.15 C-40.286 49.111 -39.177 49.072 -38.035 49.031 C-36.43 48.966 -36.43 48.966 -34.793 48.9 C-27.163 48.612 -19.545 48.544 -11.91 48.594 C-11.936 47.317 -11.963 46.041 -11.99 44.726 C-12.08 39.983 -12.137 35.24 -12.185 30.497 C-12.21 28.445 -12.244 26.394 -12.287 24.343 C-12.348 21.391 -12.376 18.44 -12.398 15.488 C-12.424 14.574 -12.45 13.659 -12.477 12.716 C-12.479 8.348 -12.324 6.202 -9.812 2.512 C-6.262 0.165 -4.235 -0.025 0 0 Z " fill="#FEFEFE" transform="translate(445.91015625,153.40625)"/></g><g><path d="M0 0 C0.724 -0.008 1.448 -0.016 2.194 -0.024 C3.729 -0.038 5.264 -0.049 6.799 -0.057 C9.148 -0.074 11.495 -0.118 13.844 -0.162 C15.333 -0.172 16.823 -0.181 18.312 -0.188 C19.367 -0.214 19.367 -0.214 20.443 -0.241 C23.474 -0.227 25.336 -0.125 27.738 1.803 C29.196 5.181 29.126 7.954 29.082 11.629 C29.078 12.334 29.074 13.038 29.069 13.764 C29.052 16.006 29.015 18.247 28.977 20.488 C28.962 22.012 28.948 23.535 28.936 25.059 C28.903 28.785 28.851 32.512 28.789 36.238 C30.31 36.223 30.31 36.223 31.863 36.207 C35.625 36.17 39.388 36.147 43.151 36.128 C44.779 36.118 46.408 36.105 48.036 36.087 C50.377 36.063 52.718 36.052 55.059 36.043 C55.787 36.033 56.515 36.022 57.265 36.012 C61.002 36.011 62.596 36.109 65.789 38.238 C66.056 41.005 66.137 43.544 66.082 46.309 C66.078 47.105 66.074 47.901 66.069 48.721 C66.052 51.269 66.015 53.816 65.977 56.363 C65.962 58.089 65.948 59.814 65.936 61.539 C65.902 65.772 65.851 70.005 65.789 74.238 C57.98 77.448 51.105 77.599 42.727 77.426 C41.479 77.412 40.232 77.399 38.947 77.385 C35.894 77.35 32.842 77.301 29.789 77.238 C29.805 78.253 29.82 79.267 29.837 80.312 C29.891 84.074 29.925 87.837 29.954 91.6 C29.969 93.228 29.989 94.857 30.015 96.486 C30.052 98.826 30.069 101.167 30.082 103.508 C30.098 104.236 30.113 104.964 30.129 105.715 C30.13 108.501 30.068 110.717 28.74 113.203 C25.691 114.821 22.64 114.605 19.277 114.531 C18.549 114.527 17.821 114.523 17.071 114.518 C14.747 114.502 12.425 114.464 10.102 114.426 C8.525 114.411 6.949 114.397 5.373 114.385 C1.511 114.352 -2.35 114.3 -6.211 114.238 C-8.77 109.763 -9.609 106.446 -9.723 101.309 C-9.758 100.02 -9.794 98.73 -9.83 97.402 C-9.853 96.056 -9.876 94.71 -9.898 93.363 C-9.932 91.993 -9.966 90.624 -10.002 89.254 C-10.084 85.915 -10.153 82.577 -10.211 79.238 C-11.778 79.216 -11.778 79.216 -13.376 79.194 C-17.251 79.136 -21.125 79.059 -25 78.976 C-26.677 78.943 -28.354 78.915 -30.031 78.892 C-32.442 78.858 -34.851 78.806 -37.262 78.75 C-38.012 78.744 -38.762 78.737 -39.535 78.731 C-42.362 78.651 -44.668 78.534 -47.181 77.167 C-48.779 74.175 -48.659 71.178 -48.645 67.867 C-48.65 67.148 -48.655 66.43 -48.66 65.689 C-48.667 64.17 -48.666 62.651 -48.657 61.133 C-48.648 58.812 -48.677 56.494 -48.709 54.174 C-48.711 52.697 -48.71 51.219 -48.707 49.742 C-48.718 49.05 -48.729 48.359 -48.741 47.646 C-48.694 44.352 -48.405 42.508 -46.463 39.807 C-43.957 38.061 -42.704 37.71 -39.684 37.629 C-38.808 37.597 -37.932 37.564 -37.029 37.531 C-35.665 37.51 -35.665 37.51 -34.273 37.488 C-33.399 37.459 -32.524 37.429 -31.623 37.398 C-24.488 37.181 -17.349 37.213 -10.211 37.238 C-10.227 35.869 -10.227 35.869 -10.243 34.472 C-10.277 31.071 -10.302 27.67 -10.321 24.268 C-10.331 22.799 -10.344 21.329 -10.362 19.86 C-10.386 17.743 -10.397 15.625 -10.406 13.508 C-10.422 11.599 -10.422 11.599 -10.438 9.652 C-9.881 1.28 -7.722 0.081 0 0 Z " fill="#67C8C1" transform="translate(502.2109375,458.76171875)"/></g><g><path d="M0 0 C1.203 -0.003 2.405 -0.005 3.645 -0.008 C4.907 -0 6.169 0.008 7.469 0.016 C8.731 0.008 9.993 0 11.293 -0.008 C13.097 -0.004 13.097 -0.004 14.938 0 C16.045 0.002 17.153 0.005 18.295 0.007 C20.969 0.266 20.969 0.266 22.969 2.266 C23.379 4.509 23.379 4.509 23.602 7.281 C23.685 8.285 23.769 9.29 23.855 10.324 C23.973 11.904 23.973 11.904 24.094 13.516 C24.18 14.553 24.266 15.591 24.355 16.66 C24.749 21.546 25.011 26.361 24.969 31.266 C25.832 31.25 26.694 31.234 27.583 31.218 C30.787 31.167 33.99 31.129 37.194 31.101 C38.58 31.086 39.966 31.065 41.352 31.039 C43.345 31.003 45.339 30.987 47.332 30.973 C48.531 30.957 49.73 30.941 50.966 30.925 C53.969 31.266 53.969 31.266 55.865 32.383 C57.504 35.18 57.305 37.461 57.262 40.684 C57.252 41.937 57.242 43.191 57.232 44.482 C57.207 45.793 57.182 47.103 57.156 48.453 C57.141 49.788 57.128 51.124 57.115 52.459 C57.08 55.728 57.03 58.997 56.969 62.266 C50.008 65.16 43.89 65.646 36.406 65.453 C35.398 65.44 34.389 65.426 33.35 65.412 C30.889 65.377 28.429 65.328 25.969 65.266 C25.984 66.225 26 67.183 26.016 68.171 C26.071 71.723 26.105 75.275 26.134 78.828 C26.149 80.366 26.169 81.905 26.195 83.443 C26.231 85.652 26.248 87.861 26.262 90.07 C26.277 90.76 26.293 91.45 26.309 92.16 C26.309 94.101 26.309 94.101 25.969 97.266 C22.556 99.541 21.287 99.522 17.277 99.531 C15.613 99.535 15.613 99.535 13.916 99.539 C12.758 99.531 11.6 99.524 10.406 99.516 C9.244 99.523 8.082 99.531 6.885 99.539 C5.777 99.536 4.669 99.534 3.527 99.531 C2.51 99.529 1.492 99.527 0.443 99.524 C-2.031 99.266 -2.031 99.266 -4.031 97.266 C-4.442 94.915 -4.442 94.915 -4.664 91.996 C-4.748 90.942 -4.832 89.888 -4.918 88.803 C-4.997 87.697 -5.075 86.592 -5.156 85.453 C-5.243 84.359 -5.329 83.266 -5.418 82.139 C-5.774 77.502 -6.081 72.918 -6.031 68.266 C-6.924 68.281 -7.817 68.297 -8.738 68.313 C-12.053 68.364 -15.368 68.402 -18.684 68.43 C-20.118 68.446 -21.553 68.466 -22.988 68.492 C-25.05 68.528 -27.113 68.545 -29.176 68.559 C-30.417 68.574 -31.658 68.59 -32.937 68.606 C-36.031 68.266 -36.031 68.266 -37.897 66.872 C-41.318 62.026 -40.339 56.052 -40.406 50.328 C-40.444 49.122 -40.481 47.916 -40.52 46.674 C-40.531 45.519 -40.543 44.365 -40.555 43.176 C-40.575 42.115 -40.594 41.054 -40.615 39.961 C-40.031 37.266 -40.031 37.266 -37.898 35.415 C-34.591 34.089 -32.194 33.922 -28.637 33.973 C-27.435 33.982 -26.233 33.992 -24.994 34.002 C-23.125 34.04 -23.125 34.04 -21.219 34.078 C-19.321 34.098 -19.321 34.098 -17.385 34.119 C-14.266 34.154 -11.149 34.204 -8.031 34.266 C-8.042 33.307 -8.052 32.348 -8.063 31.36 C-8.099 27.808 -8.122 24.256 -8.141 20.704 C-8.151 19.165 -8.165 17.627 -8.182 16.088 C-8.206 13.879 -8.218 11.67 -8.227 9.461 C-8.237 8.771 -8.247 8.082 -8.258 7.371 C-8.258 5.668 -8.153 3.965 -8.031 2.266 C-5.309 -0.457 -3.804 0.008 0 0 Z " fill="#67C8C1" transform="translate(193.03125,698.734375)"/></g><g><path d="M0 0 C3.161 1.37 3.993 1.989 6 5 C6.218 7.902 6.325 10.717 6.344 13.621 C6.358 14.476 6.373 15.331 6.388 16.212 C6.435 18.954 6.469 21.696 6.5 24.438 C6.01 49.395 6.01 49.395 16.879 71.051 C22.053 75.577 25.402 76.476 32.113 76.406 C38.403 75.521 42.179 71.118 46 66.375 C49.506 62.101 53.585 59.499 59.113 58.691 C63.147 58.562 66.402 59.201 70 61 C66.947 70.049 58.083 75.923 50.863 81.695 C47.984 84.013 45.183 86.408 42.375 88.812 C35.639 94.429 28.535 99.452 21.306 104.411 C18.887 106.078 16.487 107.771 14.086 109.465 C12.475 110.582 10.863 111.698 9.25 112.812 C8.5 113.347 7.749 113.881 6.976 114.431 C1.764 117.982 1.764 117.982 -1.625 118.062 C-4.709 116.683 -7.424 115.046 -10.25 113.188 C-10.851 112.792 -11.453 112.397 -12.072 111.99 C-27.685 101.644 -42.95 90.755 -56.754 78.062 C-58.908 76.085 -61.1 74.162 -63.312 72.25 C-69.437 66.883 -69.437 66.883 -72 64 C-72 63.01 -72 62.02 -72 61 C-71.451 60.784 -70.901 60.568 -70.335 60.345 C-67.822 59.347 -65.317 58.33 -62.812 57.312 C-61.948 56.973 -61.084 56.633 -60.193 56.283 C-51.303 52.638 -47.491 47.525 -42.746 39.328 C-41 37 -41 37 -38.887 36.113 C-37 36 -37 36 -35.375 36.938 C-30.82 43.77 -31.364 53.611 -30.877 61.512 C-30.358 70.932 -30.358 70.932 -26 79 C-22.551 78.984 -22.551 78.984 -19 78 C-15.759 73.879 -14.722 69.073 -13.504 64.074 C-13.288 63.199 -13.073 62.325 -12.851 61.424 C-10.243 50.393 -8.953 39.19 -7.591 27.952 C-7.248 25.16 -6.888 22.371 -6.527 19.582 C-6.432 18.751 -6.338 17.919 -6.24 17.063 C-5.504 11.417 -4.194 4.194 0 0 Z " fill="#FEFEFE" transform="translate(811,635)"/></g><g><path d="M0 0 C0.678 -0.03 1.355 -0.06 2.053 -0.09 C8.282 -0.162 11.672 2.291 16.062 6.438 C18.552 10.528 19.126 14.622 19.812 19.312 C19.983 20.323 20.153 21.334 20.328 22.375 C20.986 27.722 21.18 33.056 21.375 38.438 C21.417 39.547 21.46 40.656 21.504 41.799 C21.777 49.307 21.947 56.799 21.812 64.312 C22.768 64.152 23.724 63.991 24.709 63.825 C29.295 63.174 33.846 63.132 38.473 63.109 C39.381 63.104 40.289 63.098 41.224 63.092 C43.135 63.083 45.045 63.076 46.955 63.072 C49.87 63.063 52.783 63.031 55.697 63 C57.56 62.993 59.423 62.988 61.285 62.984 C62.151 62.972 63.017 62.96 63.909 62.947 C68.965 62.966 72.436 63.498 76.812 66.312 C81.241 71.219 81.977 74.289 82.016 80.734 C82.021 81.472 82.027 82.21 82.033 82.97 C82.042 84.533 82.049 86.097 82.053 87.66 C82.062 90.039 82.093 92.418 82.125 94.797 C82.132 96.318 82.137 97.839 82.141 99.359 C82.153 100.066 82.165 100.772 82.178 101.5 C82.152 107.372 80.723 111.402 76.562 115.562 C69.856 119.83 62.17 119.893 54.438 120.438 C53.292 120.522 52.146 120.607 50.965 120.695 C41.889 121.328 32.906 121.493 23.812 121.312 C23.916 122.722 23.916 122.722 24.022 124.16 C24.709 133.948 25.028 143.704 25.053 153.516 C25.063 155.905 25.094 158.293 25.125 160.682 C25.132 162.227 25.137 163.771 25.141 165.316 C25.153 166.018 25.165 166.719 25.178 167.441 C25.15 173.681 23.475 178.027 19.812 183.062 C12.454 188.582 2.727 188.934 -6.188 189.312 C-7.322 189.377 -8.456 189.441 -9.625 189.508 C-14.623 189.678 -18.183 189.788 -22.75 187.625 C-30.284 180.477 -31.41 173.518 -32.25 163.562 C-32.332 162.63 -32.415 161.698 -32.5 160.738 C-33.502 148.619 -33.839 136.464 -34.188 124.312 C-34.784 124.321 -35.38 124.33 -35.994 124.339 C-42.224 124.428 -48.453 124.488 -54.683 124.532 C-57.005 124.552 -59.327 124.58 -61.649 124.614 C-64.995 124.663 -68.341 124.686 -71.688 124.703 C-72.718 124.724 -73.749 124.744 -74.81 124.766 C-80.998 124.768 -86.145 124.163 -91.188 120.312 C-96.667 113.323 -96.434 106.139 -96.483 97.653 C-96.494 96.266 -96.515 94.88 -96.544 93.493 C-96.851 79.1 -96.851 79.1 -92.188 73.312 C-81.398 64.946 -65.514 67.067 -52.438 66.75 C-50.758 66.707 -49.078 66.663 -47.398 66.619 C-43.328 66.513 -39.258 66.412 -35.188 66.312 C-35.257 65.374 -35.326 64.435 -35.397 63.467 C-36.086 53.66 -36.403 43.885 -36.428 34.054 C-36.438 31.654 -36.469 29.255 -36.5 26.855 C-36.507 25.307 -36.512 23.759 -36.516 22.211 C-36.528 21.505 -36.54 20.798 -36.553 20.071 C-36.525 13.895 -34.798 10.041 -30.625 5.562 C-26.611 2.463 -22.103 1.96 -17.188 1.312 C-16.5 1.202 -15.813 1.091 -15.105 0.977 C-10.101 0.268 -5.048 0.121 0 0 Z M-14.098 8.328 C-15.22 8.364 -16.343 8.4 -17.5 8.438 C-18.979 8.472 -18.979 8.472 -20.488 8.508 C-24.302 9.645 -26.288 11.93 -28.188 15.312 C-28.854 18.4 -28.796 21.376 -28.711 24.523 C-28.706 25.409 -28.702 26.295 -28.697 27.208 C-28.675 30.035 -28.619 32.861 -28.562 35.688 C-28.546 37.548 -28.532 39.409 -28.52 41.27 C-28.422 51.978 -27.989 62.633 -27.188 73.312 C-27.955 73.332 -28.722 73.352 -29.513 73.373 C-43.788 73.756 -58.059 74.234 -72.312 75.125 C-74.017 75.212 -74.017 75.212 -75.755 75.3 C-76.808 75.373 -77.861 75.445 -78.945 75.52 C-79.865 75.576 -80.784 75.632 -81.731 75.691 C-85.027 76.525 -86.22 77.54 -88.188 80.312 C-88.804 83.725 -88.804 83.725 -88.719 87.562 C-88.723 88.258 -88.726 88.953 -88.73 89.669 C-88.733 91.135 -88.726 92.601 -88.709 94.066 C-88.688 96.306 -88.709 98.542 -88.734 100.781 C-88.732 102.208 -88.727 103.635 -88.719 105.062 C-88.714 106.357 -88.71 107.651 -88.705 108.984 C-88.414 112.311 -88.414 112.311 -86.654 114.739 C-83.221 116.929 -80.128 116.83 -76.188 116.738 C-75.403 116.735 -74.618 116.732 -73.809 116.729 C-71.268 116.714 -68.728 116.67 -66.188 116.625 C-64.455 116.608 -62.722 116.592 -60.99 116.578 C-49.372 116.46 -37.78 116.092 -26.188 115.312 C-26.158 116.776 -26.158 116.776 -26.127 118.268 C-25.71 141.251 -25.71 141.251 -24.312 164.188 C-24.246 165.046 -24.18 165.904 -24.112 166.788 C-23.565 172.496 -22.379 177.121 -18.188 181.312 C-15.376 181.516 -12.686 181.595 -9.875 181.562 C-9.07 181.556 -8.265 181.55 -7.435 181.544 C4.047 181.816 4.047 181.816 14.448 178.144 C16.414 175.505 16.173 173.548 16.153 170.281 C16.153 169.039 16.153 167.798 16.152 166.52 C16.137 165.165 16.121 163.811 16.105 162.457 C16.1 161.071 16.096 159.685 16.093 158.3 C16.081 154.655 16.052 151.01 16.018 147.366 C15.988 143.646 15.974 139.925 15.959 136.205 C15.927 128.907 15.876 121.61 15.812 114.312 C16.423 114.294 17.034 114.276 17.664 114.257 C24.04 114.062 30.415 113.848 36.79 113.623 C39.167 113.541 41.545 113.465 43.922 113.393 C47.346 113.289 50.768 113.168 54.191 113.043 C55.249 113.015 56.307 112.986 57.396 112.957 C63.204 112.726 67.752 112.288 72.812 109.312 C76.303 104.92 75.223 98.277 75.238 92.95 C75.25 90.951 75.3 88.952 75.35 86.953 C75.591 79.382 75.591 79.382 73.07 72.43 C67.962 69.11 63.207 69.598 57.25 69.812 C56.03 69.834 54.809 69.856 53.552 69.879 C40.28 70.191 27.036 71.171 13.812 72.312 C13.823 71.652 13.833 70.991 13.844 70.31 C14.031 56.505 13.844 42.777 13 29 C12.93 27.726 12.86 26.452 12.788 25.14 C12.707 23.943 12.626 22.745 12.543 21.512 C12.475 20.458 12.407 19.405 12.337 18.319 C11.699 14.664 10.501 11.001 7.812 8.312 C2.593 8.119 -2.621 8.189 -7.843 8.275 C-9.928 8.308 -12.013 8.32 -14.098 8.328 Z " fill="#FEFEFE" transform="translate(213.1875,321.6875)"/></g><g><path d="M0 0 C4.238 2.32 7.026 5.596 9.875 9.438 C10.927 8.355 10.927 8.355 12 7.25 C17.316 1.964 21.392 -1.576 29.125 -1.938 C34.422 -1.876 37.856 0.112 41.875 3.438 C46.057 7.845 48.985 12.535 49.375 18.688 C49.001 27.597 43.856 34.172 37.598 40.086 C33.283 43.813 28.79 47.296 24.273 50.773 C19.954 54.12 15.888 57.732 11.875 61.438 C9.034 60.117 6.713 58.639 4.301 56.645 C3.637 56.1 2.974 55.556 2.291 54.995 C1.597 54.419 0.903 53.843 0.188 53.25 C-1.252 52.066 -2.692 50.882 -4.133 49.699 C-4.823 49.133 -5.513 48.566 -6.224 47.982 C-8.508 46.126 -10.84 44.338 -13.188 42.562 C-20.343 37.005 -26.825 31.323 -28.574 22.059 C-29.074 14.96 -26.548 9.884 -22.125 4.438 C-15.702 -1.47 -8.123 -3.648 0 0 Z " fill="#67C8C1" transform="translate(832.125,358.5625)"/></g><g><path d="M0 0 C3.021 0.923 3.841 1.776 5.688 4.375 C8.198 9.396 8.161 14.148 8.211 19.684 C8.239 21.434 8.268 23.185 8.297 24.936 C8.338 27.673 8.375 30.411 8.401 33.149 C8.53 52.957 8.53 52.957 16 71 C16 71.66 16 72.32 16 73 C20.512 75.329 25.026 75.874 30 75 C32.77 72.981 32.77 72.981 35 70 C40.238 64.028 46.118 59.129 54.137 57.59 C59.258 57.358 63.39 59.024 68 61 C68 61.99 68 62.98 68 64 C64.173 64.638 60.966 64.998 57.062 64.812 C52.28 64.803 48.834 66.154 45 69 C42.596 71.464 40.363 74.002 38.176 76.66 C35.226 79.832 32.673 81.677 28.387 82.504 C22.105 82.64 18.416 81.812 13.645 77.633 C-0.026 64.06 1.665 44.602 1.544 26.732 C1.522 24.061 1.483 21.39 1.441 18.719 C1.441 17.494 1.441 17.494 1.441 16.244 C1.382 12.883 1.236 10.429 -0.403 7.455 C-1.886 5.776 -1.886 5.776 -4 6 C-8.163 13.557 -9.106 21.079 -10.062 29.562 C-10.39 32.256 -10.729 34.948 -11.066 37.641 C-11.225 38.92 -11.384 40.199 -11.547 41.518 C-12.4 48.076 -13.604 54.535 -15 61 C-15.232 62.096 -15.232 62.096 -15.469 63.214 C-15.966 65.542 -16.48 67.865 -17 70.188 C-17.154 70.896 -17.308 71.604 -17.467 72.333 C-18.772 77.939 -20.139 81.76 -25 85 C-27.745 85.343 -29.322 85.427 -31.688 83.938 C-36.165 77.329 -35.649 68.283 -36.123 60.625 C-36.706 51.452 -36.706 51.452 -40 43 C-42.038 42.205 -42.038 42.205 -44 42 C-44.568 42.964 -45.137 43.928 -45.723 44.922 C-46.502 46.198 -47.282 47.474 -48.062 48.75 C-48.433 49.384 -48.804 50.018 -49.186 50.672 C-52.024 55.251 -55.076 57.748 -60 60 C-60.669 60.316 -61.337 60.632 -62.026 60.958 C-64.109 61.92 -66.206 62.84 -68.312 63.75 C-69.027 64.066 -69.742 64.382 -70.479 64.707 C-75.744 67 -75.744 67 -78 67 C-78.495 64.525 -78.495 64.525 -79 62 C-74.296 58.472 -69.388 56.434 -63.902 54.344 C-58.668 51.92 -55.709 49.049 -53 44 C-50.775 40.151 -48.999 37.199 -45 35 C-42 34.438 -42 34.438 -39 35 C-33.899 38.677 -32.434 43.124 -31 49 C-30.246 54.005 -29.767 59.023 -29.312 64.062 C-29.183 65.419 -29.052 66.775 -28.92 68.131 C-28.604 71.42 -28.298 74.709 -28 78 C-25.58 77.064 -25.58 77.064 -24.562 73.516 C-22.238 66.114 -21.222 58.393 -20 50.75 C-19.734 49.132 -19.468 47.514 -19.202 45.896 C-18.077 39.024 -16.991 32.154 -16.086 25.25 C-15.898 23.823 -15.898 23.823 -15.707 22.368 C-15.495 20.695 -15.296 19.02 -15.113 17.343 C-13.933 7.837 -10.743 -0.942 0 0 Z " fill="#79CCC6" transform="translate(815,630)"/></g><g><path d="M0 0 C6.361 6.715 9.174 12.954 9.031 22.263 C8.28 33.698 1.06 42.524 -6.75 50.375 C-8.235 49.88 -8.235 49.88 -9.75 49.375 C-10.093 46.153 -9.995 44.735 -8.141 42.016 C-7.434 41.227 -6.728 40.438 -6 39.625 C-0.339 32.84 3.044 26.825 2.637 17.801 C1.793 12.511 -0.379 8.711 -4.188 5 C-9.953 1.344 -15.095 0.478 -21.797 1.77 C-28.391 3.75 -32.405 8.282 -35.764 14.144 C-39.089 20.776 -39.351 26.734 -39.359 34.066 C-39.376 35.252 -39.392 36.438 -39.409 37.66 C-39.458 41.419 -39.479 45.178 -39.5 48.938 C-39.528 51.498 -39.558 54.059 -39.59 56.619 C-39.664 62.871 -39.715 69.123 -39.75 75.375 C-41.73 75.375 -43.71 75.375 -45.75 75.375 C-45.768 74.438 -45.768 74.438 -45.786 73.482 C-45.914 66.926 -46.083 60.372 -46.275 53.817 C-46.341 51.378 -46.397 48.937 -46.443 46.497 C-46.653 25.979 -46.653 25.979 -56.188 8.375 C-62.37 3.549 -66.251 1.667 -74.168 1.992 C-80.56 2.94 -84.09 7.495 -87.75 12.375 C-90.434 16.987 -90.558 21.157 -89.75 26.375 C-86.927 34.19 -82.579 40.512 -76.75 46.375 C-77.41 47.695 -78.07 49.015 -78.75 50.375 C-86.235 47.993 -90.665 40.898 -94.25 34.188 C-97.065 27.067 -96.981 18.698 -94.902 11.398 C-92.217 5.372 -88.391 1.695 -82.75 -1.625 C-82.147 -1.999 -81.543 -2.373 -80.922 -2.758 C-74.595 -5.284 -65.951 -4.547 -59.75 -1.938 C-52.879 1.714 -48.214 6.431 -44.75 13.375 C-44.75 14.035 -44.75 14.695 -44.75 15.375 C-44.09 15.375 -43.43 15.375 -42.75 15.375 C-42.649 14.643 -42.549 13.911 -42.445 13.156 C-40.783 6.507 -35.08 0.941 -29.426 -2.695 C-19.224 -8.355 -9.528 -5.63 0 0 Z " fill="#79CCC6" transform="translate(635.75,772.625)"/></g><g><path d="M0 0 C3.96 0 7.92 0 12 0 C12 6.93 12 13.86 12 21 C18.93 21 25.86 21 33 21 C33 24.96 33 28.92 33 33 C22.605 33.495 22.605 33.495 12 34 C12 40.93 12 47.86 12 55 C8.37 55 4.74 55 1 55 C1 48.07 1 41.14 1 34 C-5.6 34 -12.2 34 -19 34 C-19 30.37 -19 26.74 -19 23 C-12.637 21.843 -6.464 21.927 0 22 C0 14.74 0 7.48 0 0 Z " fill="#FEFEFE" transform="translate(654,304)"/></g><g><path d="M0 0 C3.63 0 7.26 0 11 0 C11 6.6 11 13.2 11 20 C17.6 20 24.2 20 31 20 C31 23.63 31 27.26 31 31 C24.204 31.688 17.885 32 11 32 C11 38.6 11 45.2 11 52 C7.37 52 3.74 52 0 52 C0 45.4 0 38.8 0 32 C-6.6 32 -13.2 32 -20 32 C-20 22 -20 22 -19 21 C-17.66 20.844 -16.312 20.75 -14.965 20.684 C-14.236 20.645 -13.508 20.607 -12.758 20.568 C-11.827 20.525 -10.896 20.482 -9.938 20.438 C-6.988 20.293 -4.039 20.149 -1 20 C-0.67 13.4 -0.34 6.8 0 0 Z " fill="#FEFEFE" transform="translate(380,661)"/></g><g><path d="M0 0 C3.63 0 7.26 0 11 0 C11 6.27 11 12.54 11 19 C17.27 19 23.54 19 30 19 C30 22.63 30 26.26 30 30 C24.06 30.33 18.12 30.66 12 31 C12 36.94 12 42.88 12 49 C8.127 49.968 4.964 50.076 1 50 C0.827 48.522 0.662 47.042 0.5 45.562 C0.361 44.327 0.361 44.327 0.219 43.066 C-0.067 39.054 0 35.023 0 31 C-5.94 31 -11.88 31 -18 31 C-18 27.37 -18 23.74 -18 20 C-12.06 19.67 -6.12 19.34 0 19 C0 12.73 0 6.46 0 0 Z " fill="#FEFEFE" transform="translate(696,186)"/></g><g><path d="M0 0 C3.63 0 7.26 0 11 0 C11 5.61 11 11.22 11 17 C16.61 17 22.22 17 28 17 C28 20.3 28 23.6 28 27 C22.39 27 16.78 27 11 27 C11.021 28.299 11.041 29.599 11.062 30.938 C11.07 35.694 10.599 40.284 10 45 C8.521 45.027 7.042 45.046 5.562 45.062 C4.327 45.08 4.327 45.08 3.066 45.098 C1 45 1 45 0 44 C-0.073 41.303 -0.092 38.633 -0.062 35.938 C-0.058 35.179 -0.053 34.42 -0.049 33.639 C-0.037 31.759 -0.019 29.88 0 28 C-1.143 28.012 -2.287 28.023 -3.465 28.035 C-4.956 28.045 -6.447 28.054 -7.938 28.062 C-8.692 28.071 -9.447 28.079 -10.225 28.088 C-12.15 28.097 -14.075 28.052 -16 28 C-17 27 -17 27 -17.098 24.934 C-17.086 24.11 -17.074 23.286 -17.062 22.438 C-17.053 21.611 -17.044 20.785 -17.035 19.934 C-17.024 19.296 -17.012 18.657 -17 18 C-11.524 16.278 -5.667 16.943 0 17 C0 11.39 0 5.78 0 0 Z " fill="#FEFEFE" transform="translate(374,811)"/></g></svg>